%TF.GenerationSoftware,KiCad,Pcbnew,9.0.0*%
%TF.CreationDate,2025-08-25T21:43:05+03:00*%
%TF.ProjectId,Daredevil-mini,44617265-6465-4766-996c-2d6d696e692e,rev?*%
%TF.SameCoordinates,Original*%
%TF.FileFunction,Legend,Top*%
%TF.FilePolarity,Positive*%
%FSLAX46Y46*%
G04 Gerber Fmt 4.6, Leading zero omitted, Abs format (unit mm)*
G04 Created by KiCad (PCBNEW 9.0.0) date 2025-08-25 21:43:05*
%MOMM*%
%LPD*%
G01*
G04 APERTURE LIST*
%ADD10C,0.200000*%
%ADD11C,0.160000*%
%ADD12C,0.120000*%
%ADD13C,0.150000*%
%ADD14C,0.300000*%
%ADD15C,0.100000*%
%ADD16C,0.127000*%
G04 APERTURE END LIST*
D10*
X135900000Y-99300000D02*
X135900000Y-100400000D01*
X135900000Y-100400000D02*
X136400000Y-100900000D01*
X135188368Y-104530303D02*
X135150272Y-104568399D01*
X135150272Y-104568399D02*
X135035987Y-104606494D01*
X135035987Y-104606494D02*
X134959796Y-104606494D01*
X134959796Y-104606494D02*
X134845510Y-104568399D01*
X134845510Y-104568399D02*
X134769320Y-104492208D01*
X134769320Y-104492208D02*
X134731225Y-104416018D01*
X134731225Y-104416018D02*
X134693129Y-104263637D01*
X134693129Y-104263637D02*
X134693129Y-104149351D01*
X134693129Y-104149351D02*
X134731225Y-103996970D01*
X134731225Y-103996970D02*
X134769320Y-103920779D01*
X134769320Y-103920779D02*
X134845510Y-103844589D01*
X134845510Y-103844589D02*
X134959796Y-103806494D01*
X134959796Y-103806494D02*
X135035987Y-103806494D01*
X135035987Y-103806494D02*
X135150272Y-103844589D01*
X135150272Y-103844589D02*
X135188368Y-103882684D01*
X135455034Y-103806494D02*
X135988368Y-103806494D01*
X135988368Y-103806494D02*
X135645510Y-104606494D01*
X139552381Y-95859695D02*
X139552381Y-95059695D01*
X139552381Y-95059695D02*
X139819047Y-95631123D01*
X139819047Y-95631123D02*
X140085714Y-95059695D01*
X140085714Y-95059695D02*
X140085714Y-95859695D01*
X140466667Y-95859695D02*
X140466667Y-95059695D01*
X140923810Y-95859695D02*
X140580952Y-95402552D01*
X140923810Y-95059695D02*
X140466667Y-95516838D01*
X141190476Y-95059695D02*
X141685714Y-95059695D01*
X141685714Y-95059695D02*
X141419048Y-95364457D01*
X141419048Y-95364457D02*
X141533333Y-95364457D01*
X141533333Y-95364457D02*
X141609524Y-95402552D01*
X141609524Y-95402552D02*
X141647619Y-95440647D01*
X141647619Y-95440647D02*
X141685714Y-95516838D01*
X141685714Y-95516838D02*
X141685714Y-95707314D01*
X141685714Y-95707314D02*
X141647619Y-95783504D01*
X141647619Y-95783504D02*
X141609524Y-95821600D01*
X141609524Y-95821600D02*
X141533333Y-95859695D01*
X141533333Y-95859695D02*
X141304762Y-95859695D01*
X141304762Y-95859695D02*
X141228571Y-95821600D01*
X141228571Y-95821600D02*
X141190476Y-95783504D01*
X126785714Y-110683504D02*
X126747618Y-110721600D01*
X126747618Y-110721600D02*
X126633333Y-110759695D01*
X126633333Y-110759695D02*
X126557142Y-110759695D01*
X126557142Y-110759695D02*
X126442856Y-110721600D01*
X126442856Y-110721600D02*
X126366666Y-110645409D01*
X126366666Y-110645409D02*
X126328571Y-110569219D01*
X126328571Y-110569219D02*
X126290475Y-110416838D01*
X126290475Y-110416838D02*
X126290475Y-110302552D01*
X126290475Y-110302552D02*
X126328571Y-110150171D01*
X126328571Y-110150171D02*
X126366666Y-110073980D01*
X126366666Y-110073980D02*
X126442856Y-109997790D01*
X126442856Y-109997790D02*
X126557142Y-109959695D01*
X126557142Y-109959695D02*
X126633333Y-109959695D01*
X126633333Y-109959695D02*
X126747618Y-109997790D01*
X126747618Y-109997790D02*
X126785714Y-110035885D01*
X127547618Y-110759695D02*
X127090475Y-110759695D01*
X127319047Y-110759695D02*
X127319047Y-109959695D01*
X127319047Y-109959695D02*
X127242856Y-110073980D01*
X127242856Y-110073980D02*
X127166666Y-110150171D01*
X127166666Y-110150171D02*
X127090475Y-110188266D01*
X128233333Y-109959695D02*
X128080952Y-109959695D01*
X128080952Y-109959695D02*
X128004761Y-109997790D01*
X128004761Y-109997790D02*
X127966666Y-110035885D01*
X127966666Y-110035885D02*
X127890476Y-110150171D01*
X127890476Y-110150171D02*
X127852380Y-110302552D01*
X127852380Y-110302552D02*
X127852380Y-110607314D01*
X127852380Y-110607314D02*
X127890476Y-110683504D01*
X127890476Y-110683504D02*
X127928571Y-110721600D01*
X127928571Y-110721600D02*
X128004761Y-110759695D01*
X128004761Y-110759695D02*
X128157142Y-110759695D01*
X128157142Y-110759695D02*
X128233333Y-110721600D01*
X128233333Y-110721600D02*
X128271428Y-110683504D01*
X128271428Y-110683504D02*
X128309523Y-110607314D01*
X128309523Y-110607314D02*
X128309523Y-110416838D01*
X128309523Y-110416838D02*
X128271428Y-110340647D01*
X128271428Y-110340647D02*
X128233333Y-110302552D01*
X128233333Y-110302552D02*
X128157142Y-110264457D01*
X128157142Y-110264457D02*
X128004761Y-110264457D01*
X128004761Y-110264457D02*
X127928571Y-110302552D01*
X127928571Y-110302552D02*
X127890476Y-110340647D01*
X127890476Y-110340647D02*
X127852380Y-110416838D01*
X132683504Y-99014285D02*
X132721600Y-99052381D01*
X132721600Y-99052381D02*
X132759695Y-99166666D01*
X132759695Y-99166666D02*
X132759695Y-99242857D01*
X132759695Y-99242857D02*
X132721600Y-99357143D01*
X132721600Y-99357143D02*
X132645409Y-99433333D01*
X132645409Y-99433333D02*
X132569219Y-99471428D01*
X132569219Y-99471428D02*
X132416838Y-99509524D01*
X132416838Y-99509524D02*
X132302552Y-99509524D01*
X132302552Y-99509524D02*
X132150171Y-99471428D01*
X132150171Y-99471428D02*
X132073980Y-99433333D01*
X132073980Y-99433333D02*
X131997790Y-99357143D01*
X131997790Y-99357143D02*
X131959695Y-99242857D01*
X131959695Y-99242857D02*
X131959695Y-99166666D01*
X131959695Y-99166666D02*
X131997790Y-99052381D01*
X131997790Y-99052381D02*
X132035885Y-99014285D01*
X132759695Y-98252381D02*
X132759695Y-98709524D01*
X132759695Y-98480952D02*
X131959695Y-98480952D01*
X131959695Y-98480952D02*
X132073980Y-98557143D01*
X132073980Y-98557143D02*
X132150171Y-98633333D01*
X132150171Y-98633333D02*
X132188266Y-98709524D01*
X131959695Y-97528571D02*
X131959695Y-97909523D01*
X131959695Y-97909523D02*
X132340647Y-97947619D01*
X132340647Y-97947619D02*
X132302552Y-97909523D01*
X132302552Y-97909523D02*
X132264457Y-97833333D01*
X132264457Y-97833333D02*
X132264457Y-97642857D01*
X132264457Y-97642857D02*
X132302552Y-97566666D01*
X132302552Y-97566666D02*
X132340647Y-97528571D01*
X132340647Y-97528571D02*
X132416838Y-97490476D01*
X132416838Y-97490476D02*
X132607314Y-97490476D01*
X132607314Y-97490476D02*
X132683504Y-97528571D01*
X132683504Y-97528571D02*
X132721600Y-97566666D01*
X132721600Y-97566666D02*
X132759695Y-97642857D01*
X132759695Y-97642857D02*
X132759695Y-97833333D01*
X132759695Y-97833333D02*
X132721600Y-97909523D01*
X132721600Y-97909523D02*
X132683504Y-97947619D01*
X136592391Y-104337371D02*
X136592391Y-103537371D01*
X136592391Y-103537371D02*
X136859057Y-104108799D01*
X136859057Y-104108799D02*
X137125724Y-103537371D01*
X137125724Y-103537371D02*
X137125724Y-104337371D01*
X137506677Y-104337371D02*
X137506677Y-103537371D01*
X137963820Y-104337371D02*
X137620962Y-103880228D01*
X137963820Y-103537371D02*
X137506677Y-103994514D01*
X138725724Y-104337371D02*
X138268581Y-104337371D01*
X138497153Y-104337371D02*
X138497153Y-103537371D01*
X138497153Y-103537371D02*
X138420962Y-103651656D01*
X138420962Y-103651656D02*
X138344772Y-103727847D01*
X138344772Y-103727847D02*
X138268581Y-103765942D01*
X126159695Y-109314285D02*
X125778742Y-109580952D01*
X126159695Y-109771428D02*
X125359695Y-109771428D01*
X125359695Y-109771428D02*
X125359695Y-109466666D01*
X125359695Y-109466666D02*
X125397790Y-109390476D01*
X125397790Y-109390476D02*
X125435885Y-109352381D01*
X125435885Y-109352381D02*
X125512076Y-109314285D01*
X125512076Y-109314285D02*
X125626361Y-109314285D01*
X125626361Y-109314285D02*
X125702552Y-109352381D01*
X125702552Y-109352381D02*
X125740647Y-109390476D01*
X125740647Y-109390476D02*
X125778742Y-109466666D01*
X125778742Y-109466666D02*
X125778742Y-109771428D01*
X126159695Y-108552381D02*
X126159695Y-109009524D01*
X126159695Y-108780952D02*
X125359695Y-108780952D01*
X125359695Y-108780952D02*
X125473980Y-108857143D01*
X125473980Y-108857143D02*
X125550171Y-108933333D01*
X125550171Y-108933333D02*
X125588266Y-109009524D01*
X126159695Y-107790476D02*
X126159695Y-108247619D01*
X126159695Y-108019047D02*
X125359695Y-108019047D01*
X125359695Y-108019047D02*
X125473980Y-108095238D01*
X125473980Y-108095238D02*
X125550171Y-108171428D01*
X125550171Y-108171428D02*
X125588266Y-108247619D01*
X136254538Y-110433332D02*
X135873585Y-110699999D01*
X136254538Y-110890475D02*
X135454538Y-110890475D01*
X135454538Y-110890475D02*
X135454538Y-110585713D01*
X135454538Y-110585713D02*
X135492633Y-110509523D01*
X135492633Y-110509523D02*
X135530728Y-110471428D01*
X135530728Y-110471428D02*
X135606919Y-110433332D01*
X135606919Y-110433332D02*
X135721204Y-110433332D01*
X135721204Y-110433332D02*
X135797395Y-110471428D01*
X135797395Y-110471428D02*
X135835490Y-110509523D01*
X135835490Y-110509523D02*
X135873585Y-110585713D01*
X135873585Y-110585713D02*
X135873585Y-110890475D01*
X135454538Y-109747618D02*
X135454538Y-109899999D01*
X135454538Y-109899999D02*
X135492633Y-109976190D01*
X135492633Y-109976190D02*
X135530728Y-110014285D01*
X135530728Y-110014285D02*
X135645014Y-110090475D01*
X135645014Y-110090475D02*
X135797395Y-110128571D01*
X135797395Y-110128571D02*
X136102157Y-110128571D01*
X136102157Y-110128571D02*
X136178347Y-110090475D01*
X136178347Y-110090475D02*
X136216443Y-110052380D01*
X136216443Y-110052380D02*
X136254538Y-109976190D01*
X136254538Y-109976190D02*
X136254538Y-109823809D01*
X136254538Y-109823809D02*
X136216443Y-109747618D01*
X136216443Y-109747618D02*
X136178347Y-109709523D01*
X136178347Y-109709523D02*
X136102157Y-109671428D01*
X136102157Y-109671428D02*
X135911681Y-109671428D01*
X135911681Y-109671428D02*
X135835490Y-109709523D01*
X135835490Y-109709523D02*
X135797395Y-109747618D01*
X135797395Y-109747618D02*
X135759300Y-109823809D01*
X135759300Y-109823809D02*
X135759300Y-109976190D01*
X135759300Y-109976190D02*
X135797395Y-110052380D01*
X135797395Y-110052380D02*
X135835490Y-110090475D01*
X135835490Y-110090475D02*
X135911681Y-110128571D01*
X124566667Y-100383504D02*
X124528571Y-100421600D01*
X124528571Y-100421600D02*
X124414286Y-100459695D01*
X124414286Y-100459695D02*
X124338095Y-100459695D01*
X124338095Y-100459695D02*
X124223809Y-100421600D01*
X124223809Y-100421600D02*
X124147619Y-100345409D01*
X124147619Y-100345409D02*
X124109524Y-100269219D01*
X124109524Y-100269219D02*
X124071428Y-100116838D01*
X124071428Y-100116838D02*
X124071428Y-100002552D01*
X124071428Y-100002552D02*
X124109524Y-99850171D01*
X124109524Y-99850171D02*
X124147619Y-99773980D01*
X124147619Y-99773980D02*
X124223809Y-99697790D01*
X124223809Y-99697790D02*
X124338095Y-99659695D01*
X124338095Y-99659695D02*
X124414286Y-99659695D01*
X124414286Y-99659695D02*
X124528571Y-99697790D01*
X124528571Y-99697790D02*
X124566667Y-99735885D01*
X125023809Y-100002552D02*
X124947619Y-99964457D01*
X124947619Y-99964457D02*
X124909524Y-99926361D01*
X124909524Y-99926361D02*
X124871428Y-99850171D01*
X124871428Y-99850171D02*
X124871428Y-99812076D01*
X124871428Y-99812076D02*
X124909524Y-99735885D01*
X124909524Y-99735885D02*
X124947619Y-99697790D01*
X124947619Y-99697790D02*
X125023809Y-99659695D01*
X125023809Y-99659695D02*
X125176190Y-99659695D01*
X125176190Y-99659695D02*
X125252381Y-99697790D01*
X125252381Y-99697790D02*
X125290476Y-99735885D01*
X125290476Y-99735885D02*
X125328571Y-99812076D01*
X125328571Y-99812076D02*
X125328571Y-99850171D01*
X125328571Y-99850171D02*
X125290476Y-99926361D01*
X125290476Y-99926361D02*
X125252381Y-99964457D01*
X125252381Y-99964457D02*
X125176190Y-100002552D01*
X125176190Y-100002552D02*
X125023809Y-100002552D01*
X125023809Y-100002552D02*
X124947619Y-100040647D01*
X124947619Y-100040647D02*
X124909524Y-100078742D01*
X124909524Y-100078742D02*
X124871428Y-100154933D01*
X124871428Y-100154933D02*
X124871428Y-100307314D01*
X124871428Y-100307314D02*
X124909524Y-100383504D01*
X124909524Y-100383504D02*
X124947619Y-100421600D01*
X124947619Y-100421600D02*
X125023809Y-100459695D01*
X125023809Y-100459695D02*
X125176190Y-100459695D01*
X125176190Y-100459695D02*
X125252381Y-100421600D01*
X125252381Y-100421600D02*
X125290476Y-100383504D01*
X125290476Y-100383504D02*
X125328571Y-100307314D01*
X125328571Y-100307314D02*
X125328571Y-100154933D01*
X125328571Y-100154933D02*
X125290476Y-100078742D01*
X125290476Y-100078742D02*
X125252381Y-100040647D01*
X125252381Y-100040647D02*
X125176190Y-100002552D01*
X135045848Y-105538415D02*
X135007752Y-105576511D01*
X135007752Y-105576511D02*
X134893467Y-105614606D01*
X134893467Y-105614606D02*
X134817276Y-105614606D01*
X134817276Y-105614606D02*
X134702990Y-105576511D01*
X134702990Y-105576511D02*
X134626800Y-105500320D01*
X134626800Y-105500320D02*
X134588705Y-105424130D01*
X134588705Y-105424130D02*
X134550609Y-105271749D01*
X134550609Y-105271749D02*
X134550609Y-105157463D01*
X134550609Y-105157463D02*
X134588705Y-105005082D01*
X134588705Y-105005082D02*
X134626800Y-104928891D01*
X134626800Y-104928891D02*
X134702990Y-104852701D01*
X134702990Y-104852701D02*
X134817276Y-104814606D01*
X134817276Y-104814606D02*
X134893467Y-104814606D01*
X134893467Y-104814606D02*
X135007752Y-104852701D01*
X135007752Y-104852701D02*
X135045848Y-104890796D01*
X135807752Y-105614606D02*
X135350609Y-105614606D01*
X135579181Y-105614606D02*
X135579181Y-104814606D01*
X135579181Y-104814606D02*
X135502990Y-104928891D01*
X135502990Y-104928891D02*
X135426800Y-105005082D01*
X135426800Y-105005082D02*
X135350609Y-105043177D01*
X136302991Y-104814606D02*
X136379181Y-104814606D01*
X136379181Y-104814606D02*
X136455372Y-104852701D01*
X136455372Y-104852701D02*
X136493467Y-104890796D01*
X136493467Y-104890796D02*
X136531562Y-104966987D01*
X136531562Y-104966987D02*
X136569657Y-105119368D01*
X136569657Y-105119368D02*
X136569657Y-105309844D01*
X136569657Y-105309844D02*
X136531562Y-105462225D01*
X136531562Y-105462225D02*
X136493467Y-105538415D01*
X136493467Y-105538415D02*
X136455372Y-105576511D01*
X136455372Y-105576511D02*
X136379181Y-105614606D01*
X136379181Y-105614606D02*
X136302991Y-105614606D01*
X136302991Y-105614606D02*
X136226800Y-105576511D01*
X136226800Y-105576511D02*
X136188705Y-105538415D01*
X136188705Y-105538415D02*
X136150610Y-105462225D01*
X136150610Y-105462225D02*
X136112514Y-105309844D01*
X136112514Y-105309844D02*
X136112514Y-105119368D01*
X136112514Y-105119368D02*
X136150610Y-104966987D01*
X136150610Y-104966987D02*
X136188705Y-104890796D01*
X136188705Y-104890796D02*
X136226800Y-104852701D01*
X136226800Y-104852701D02*
X136302991Y-104814606D01*
X129385714Y-108683504D02*
X129347618Y-108721600D01*
X129347618Y-108721600D02*
X129233333Y-108759695D01*
X129233333Y-108759695D02*
X129157142Y-108759695D01*
X129157142Y-108759695D02*
X129042856Y-108721600D01*
X129042856Y-108721600D02*
X128966666Y-108645409D01*
X128966666Y-108645409D02*
X128928571Y-108569219D01*
X128928571Y-108569219D02*
X128890475Y-108416838D01*
X128890475Y-108416838D02*
X128890475Y-108302552D01*
X128890475Y-108302552D02*
X128928571Y-108150171D01*
X128928571Y-108150171D02*
X128966666Y-108073980D01*
X128966666Y-108073980D02*
X129042856Y-107997790D01*
X129042856Y-107997790D02*
X129157142Y-107959695D01*
X129157142Y-107959695D02*
X129233333Y-107959695D01*
X129233333Y-107959695D02*
X129347618Y-107997790D01*
X129347618Y-107997790D02*
X129385714Y-108035885D01*
X130147618Y-108759695D02*
X129690475Y-108759695D01*
X129919047Y-108759695D02*
X129919047Y-107959695D01*
X129919047Y-107959695D02*
X129842856Y-108073980D01*
X129842856Y-108073980D02*
X129766666Y-108150171D01*
X129766666Y-108150171D02*
X129690475Y-108188266D01*
X130909523Y-108759695D02*
X130452380Y-108759695D01*
X130680952Y-108759695D02*
X130680952Y-107959695D01*
X130680952Y-107959695D02*
X130604761Y-108073980D01*
X130604761Y-108073980D02*
X130528571Y-108150171D01*
X130528571Y-108150171D02*
X130452380Y-108188266D01*
X131071728Y-98996658D02*
X131109824Y-99034754D01*
X131109824Y-99034754D02*
X131147919Y-99149039D01*
X131147919Y-99149039D02*
X131147919Y-99225230D01*
X131147919Y-99225230D02*
X131109824Y-99339516D01*
X131109824Y-99339516D02*
X131033633Y-99415706D01*
X131033633Y-99415706D02*
X130957443Y-99453801D01*
X130957443Y-99453801D02*
X130805062Y-99491897D01*
X130805062Y-99491897D02*
X130690776Y-99491897D01*
X130690776Y-99491897D02*
X130538395Y-99453801D01*
X130538395Y-99453801D02*
X130462204Y-99415706D01*
X130462204Y-99415706D02*
X130386014Y-99339516D01*
X130386014Y-99339516D02*
X130347919Y-99225230D01*
X130347919Y-99225230D02*
X130347919Y-99149039D01*
X130347919Y-99149039D02*
X130386014Y-99034754D01*
X130386014Y-99034754D02*
X130424109Y-98996658D01*
X131147919Y-98234754D02*
X131147919Y-98691897D01*
X131147919Y-98463325D02*
X130347919Y-98463325D01*
X130347919Y-98463325D02*
X130462204Y-98539516D01*
X130462204Y-98539516D02*
X130538395Y-98615706D01*
X130538395Y-98615706D02*
X130576490Y-98691897D01*
X130347919Y-97968087D02*
X130347919Y-97472849D01*
X130347919Y-97472849D02*
X130652681Y-97739515D01*
X130652681Y-97739515D02*
X130652681Y-97625230D01*
X130652681Y-97625230D02*
X130690776Y-97549039D01*
X130690776Y-97549039D02*
X130728871Y-97510944D01*
X130728871Y-97510944D02*
X130805062Y-97472849D01*
X130805062Y-97472849D02*
X130995538Y-97472849D01*
X130995538Y-97472849D02*
X131071728Y-97510944D01*
X131071728Y-97510944D02*
X131109824Y-97549039D01*
X131109824Y-97549039D02*
X131147919Y-97625230D01*
X131147919Y-97625230D02*
X131147919Y-97853801D01*
X131147919Y-97853801D02*
X131109824Y-97929992D01*
X131109824Y-97929992D02*
X131071728Y-97968087D01*
X123066667Y-102059695D02*
X122800000Y-101678742D01*
X122609524Y-102059695D02*
X122609524Y-101259695D01*
X122609524Y-101259695D02*
X122914286Y-101259695D01*
X122914286Y-101259695D02*
X122990476Y-101297790D01*
X122990476Y-101297790D02*
X123028571Y-101335885D01*
X123028571Y-101335885D02*
X123066667Y-101412076D01*
X123066667Y-101412076D02*
X123066667Y-101526361D01*
X123066667Y-101526361D02*
X123028571Y-101602552D01*
X123028571Y-101602552D02*
X122990476Y-101640647D01*
X122990476Y-101640647D02*
X122914286Y-101678742D01*
X122914286Y-101678742D02*
X122609524Y-101678742D01*
X123752381Y-101526361D02*
X123752381Y-102059695D01*
X123561905Y-101221600D02*
X123371428Y-101793028D01*
X123371428Y-101793028D02*
X123866667Y-101793028D01*
X134685714Y-98983504D02*
X134647618Y-99021600D01*
X134647618Y-99021600D02*
X134533333Y-99059695D01*
X134533333Y-99059695D02*
X134457142Y-99059695D01*
X134457142Y-99059695D02*
X134342856Y-99021600D01*
X134342856Y-99021600D02*
X134266666Y-98945409D01*
X134266666Y-98945409D02*
X134228571Y-98869219D01*
X134228571Y-98869219D02*
X134190475Y-98716838D01*
X134190475Y-98716838D02*
X134190475Y-98602552D01*
X134190475Y-98602552D02*
X134228571Y-98450171D01*
X134228571Y-98450171D02*
X134266666Y-98373980D01*
X134266666Y-98373980D02*
X134342856Y-98297790D01*
X134342856Y-98297790D02*
X134457142Y-98259695D01*
X134457142Y-98259695D02*
X134533333Y-98259695D01*
X134533333Y-98259695D02*
X134647618Y-98297790D01*
X134647618Y-98297790D02*
X134685714Y-98335885D01*
X135447618Y-99059695D02*
X134990475Y-99059695D01*
X135219047Y-99059695D02*
X135219047Y-98259695D01*
X135219047Y-98259695D02*
X135142856Y-98373980D01*
X135142856Y-98373980D02*
X135066666Y-98450171D01*
X135066666Y-98450171D02*
X134990475Y-98488266D01*
X135904761Y-98602552D02*
X135828571Y-98564457D01*
X135828571Y-98564457D02*
X135790476Y-98526361D01*
X135790476Y-98526361D02*
X135752380Y-98450171D01*
X135752380Y-98450171D02*
X135752380Y-98412076D01*
X135752380Y-98412076D02*
X135790476Y-98335885D01*
X135790476Y-98335885D02*
X135828571Y-98297790D01*
X135828571Y-98297790D02*
X135904761Y-98259695D01*
X135904761Y-98259695D02*
X136057142Y-98259695D01*
X136057142Y-98259695D02*
X136133333Y-98297790D01*
X136133333Y-98297790D02*
X136171428Y-98335885D01*
X136171428Y-98335885D02*
X136209523Y-98412076D01*
X136209523Y-98412076D02*
X136209523Y-98450171D01*
X136209523Y-98450171D02*
X136171428Y-98526361D01*
X136171428Y-98526361D02*
X136133333Y-98564457D01*
X136133333Y-98564457D02*
X136057142Y-98602552D01*
X136057142Y-98602552D02*
X135904761Y-98602552D01*
X135904761Y-98602552D02*
X135828571Y-98640647D01*
X135828571Y-98640647D02*
X135790476Y-98678742D01*
X135790476Y-98678742D02*
X135752380Y-98754933D01*
X135752380Y-98754933D02*
X135752380Y-98907314D01*
X135752380Y-98907314D02*
X135790476Y-98983504D01*
X135790476Y-98983504D02*
X135828571Y-99021600D01*
X135828571Y-99021600D02*
X135904761Y-99059695D01*
X135904761Y-99059695D02*
X136057142Y-99059695D01*
X136057142Y-99059695D02*
X136133333Y-99021600D01*
X136133333Y-99021600D02*
X136171428Y-98983504D01*
X136171428Y-98983504D02*
X136209523Y-98907314D01*
X136209523Y-98907314D02*
X136209523Y-98754933D01*
X136209523Y-98754933D02*
X136171428Y-98678742D01*
X136171428Y-98678742D02*
X136133333Y-98640647D01*
X136133333Y-98640647D02*
X136057142Y-98602552D01*
X126424012Y-103239885D02*
X125624012Y-103239885D01*
X125624012Y-103239885D02*
X125624012Y-103049409D01*
X125624012Y-103049409D02*
X125662107Y-102935123D01*
X125662107Y-102935123D02*
X125738297Y-102858933D01*
X125738297Y-102858933D02*
X125814488Y-102820838D01*
X125814488Y-102820838D02*
X125966869Y-102782742D01*
X125966869Y-102782742D02*
X126081155Y-102782742D01*
X126081155Y-102782742D02*
X126233536Y-102820838D01*
X126233536Y-102820838D02*
X126309726Y-102858933D01*
X126309726Y-102858933D02*
X126385917Y-102935123D01*
X126385917Y-102935123D02*
X126424012Y-103049409D01*
X126424012Y-103049409D02*
X126424012Y-103239885D01*
X126424012Y-102439885D02*
X125624012Y-102439885D01*
X125624012Y-102439885D02*
X125624012Y-102249409D01*
X125624012Y-102249409D02*
X125662107Y-102135123D01*
X125662107Y-102135123D02*
X125738297Y-102058933D01*
X125738297Y-102058933D02*
X125814488Y-102020838D01*
X125814488Y-102020838D02*
X125966869Y-101982742D01*
X125966869Y-101982742D02*
X126081155Y-101982742D01*
X126081155Y-101982742D02*
X126233536Y-102020838D01*
X126233536Y-102020838D02*
X126309726Y-102058933D01*
X126309726Y-102058933D02*
X126385917Y-102135123D01*
X126385917Y-102135123D02*
X126424012Y-102249409D01*
X126424012Y-102249409D02*
X126424012Y-102439885D01*
X125624012Y-101716076D02*
X125624012Y-101220838D01*
X125624012Y-101220838D02*
X125928774Y-101487504D01*
X125928774Y-101487504D02*
X125928774Y-101373219D01*
X125928774Y-101373219D02*
X125966869Y-101297028D01*
X125966869Y-101297028D02*
X126004964Y-101258933D01*
X126004964Y-101258933D02*
X126081155Y-101220838D01*
X126081155Y-101220838D02*
X126271631Y-101220838D01*
X126271631Y-101220838D02*
X126347821Y-101258933D01*
X126347821Y-101258933D02*
X126385917Y-101297028D01*
X126385917Y-101297028D02*
X126424012Y-101373219D01*
X126424012Y-101373219D02*
X126424012Y-101601790D01*
X126424012Y-101601790D02*
X126385917Y-101677981D01*
X126385917Y-101677981D02*
X126347821Y-101716076D01*
X124385714Y-105783504D02*
X124347618Y-105821600D01*
X124347618Y-105821600D02*
X124233333Y-105859695D01*
X124233333Y-105859695D02*
X124157142Y-105859695D01*
X124157142Y-105859695D02*
X124042856Y-105821600D01*
X124042856Y-105821600D02*
X123966666Y-105745409D01*
X123966666Y-105745409D02*
X123928571Y-105669219D01*
X123928571Y-105669219D02*
X123890475Y-105516838D01*
X123890475Y-105516838D02*
X123890475Y-105402552D01*
X123890475Y-105402552D02*
X123928571Y-105250171D01*
X123928571Y-105250171D02*
X123966666Y-105173980D01*
X123966666Y-105173980D02*
X124042856Y-105097790D01*
X124042856Y-105097790D02*
X124157142Y-105059695D01*
X124157142Y-105059695D02*
X124233333Y-105059695D01*
X124233333Y-105059695D02*
X124347618Y-105097790D01*
X124347618Y-105097790D02*
X124385714Y-105135885D01*
X125147618Y-105859695D02*
X124690475Y-105859695D01*
X124919047Y-105859695D02*
X124919047Y-105059695D01*
X124919047Y-105059695D02*
X124842856Y-105173980D01*
X124842856Y-105173980D02*
X124766666Y-105250171D01*
X124766666Y-105250171D02*
X124690475Y-105288266D01*
X125833333Y-105326361D02*
X125833333Y-105859695D01*
X125642857Y-105021600D02*
X125452380Y-105593028D01*
X125452380Y-105593028D02*
X125947619Y-105593028D01*
X129954538Y-110433332D02*
X129573585Y-110699999D01*
X129954538Y-110890475D02*
X129154538Y-110890475D01*
X129154538Y-110890475D02*
X129154538Y-110585713D01*
X129154538Y-110585713D02*
X129192633Y-110509523D01*
X129192633Y-110509523D02*
X129230728Y-110471428D01*
X129230728Y-110471428D02*
X129306919Y-110433332D01*
X129306919Y-110433332D02*
X129421204Y-110433332D01*
X129421204Y-110433332D02*
X129497395Y-110471428D01*
X129497395Y-110471428D02*
X129535490Y-110509523D01*
X129535490Y-110509523D02*
X129573585Y-110585713D01*
X129573585Y-110585713D02*
X129573585Y-110890475D01*
X129497395Y-109976190D02*
X129459300Y-110052380D01*
X129459300Y-110052380D02*
X129421204Y-110090475D01*
X129421204Y-110090475D02*
X129345014Y-110128571D01*
X129345014Y-110128571D02*
X129306919Y-110128571D01*
X129306919Y-110128571D02*
X129230728Y-110090475D01*
X129230728Y-110090475D02*
X129192633Y-110052380D01*
X129192633Y-110052380D02*
X129154538Y-109976190D01*
X129154538Y-109976190D02*
X129154538Y-109823809D01*
X129154538Y-109823809D02*
X129192633Y-109747618D01*
X129192633Y-109747618D02*
X129230728Y-109709523D01*
X129230728Y-109709523D02*
X129306919Y-109671428D01*
X129306919Y-109671428D02*
X129345014Y-109671428D01*
X129345014Y-109671428D02*
X129421204Y-109709523D01*
X129421204Y-109709523D02*
X129459300Y-109747618D01*
X129459300Y-109747618D02*
X129497395Y-109823809D01*
X129497395Y-109823809D02*
X129497395Y-109976190D01*
X129497395Y-109976190D02*
X129535490Y-110052380D01*
X129535490Y-110052380D02*
X129573585Y-110090475D01*
X129573585Y-110090475D02*
X129649776Y-110128571D01*
X129649776Y-110128571D02*
X129802157Y-110128571D01*
X129802157Y-110128571D02*
X129878347Y-110090475D01*
X129878347Y-110090475D02*
X129916443Y-110052380D01*
X129916443Y-110052380D02*
X129954538Y-109976190D01*
X129954538Y-109976190D02*
X129954538Y-109823809D01*
X129954538Y-109823809D02*
X129916443Y-109747618D01*
X129916443Y-109747618D02*
X129878347Y-109709523D01*
X129878347Y-109709523D02*
X129802157Y-109671428D01*
X129802157Y-109671428D02*
X129649776Y-109671428D01*
X129649776Y-109671428D02*
X129573585Y-109709523D01*
X129573585Y-109709523D02*
X129535490Y-109747618D01*
X129535490Y-109747618D02*
X129497395Y-109823809D01*
X131054538Y-110433332D02*
X130673585Y-110699999D01*
X131054538Y-110890475D02*
X130254538Y-110890475D01*
X130254538Y-110890475D02*
X130254538Y-110585713D01*
X130254538Y-110585713D02*
X130292633Y-110509523D01*
X130292633Y-110509523D02*
X130330728Y-110471428D01*
X130330728Y-110471428D02*
X130406919Y-110433332D01*
X130406919Y-110433332D02*
X130521204Y-110433332D01*
X130521204Y-110433332D02*
X130597395Y-110471428D01*
X130597395Y-110471428D02*
X130635490Y-110509523D01*
X130635490Y-110509523D02*
X130673585Y-110585713D01*
X130673585Y-110585713D02*
X130673585Y-110890475D01*
X130254538Y-110166666D02*
X130254538Y-109633332D01*
X130254538Y-109633332D02*
X131054538Y-109976190D01*
X124366667Y-106883504D02*
X124328571Y-106921600D01*
X124328571Y-106921600D02*
X124214286Y-106959695D01*
X124214286Y-106959695D02*
X124138095Y-106959695D01*
X124138095Y-106959695D02*
X124023809Y-106921600D01*
X124023809Y-106921600D02*
X123947619Y-106845409D01*
X123947619Y-106845409D02*
X123909524Y-106769219D01*
X123909524Y-106769219D02*
X123871428Y-106616838D01*
X123871428Y-106616838D02*
X123871428Y-106502552D01*
X123871428Y-106502552D02*
X123909524Y-106350171D01*
X123909524Y-106350171D02*
X123947619Y-106273980D01*
X123947619Y-106273980D02*
X124023809Y-106197790D01*
X124023809Y-106197790D02*
X124138095Y-106159695D01*
X124138095Y-106159695D02*
X124214286Y-106159695D01*
X124214286Y-106159695D02*
X124328571Y-106197790D01*
X124328571Y-106197790D02*
X124366667Y-106235885D01*
X124747619Y-106959695D02*
X124900000Y-106959695D01*
X124900000Y-106959695D02*
X124976190Y-106921600D01*
X124976190Y-106921600D02*
X125014286Y-106883504D01*
X125014286Y-106883504D02*
X125090476Y-106769219D01*
X125090476Y-106769219D02*
X125128571Y-106616838D01*
X125128571Y-106616838D02*
X125128571Y-106312076D01*
X125128571Y-106312076D02*
X125090476Y-106235885D01*
X125090476Y-106235885D02*
X125052381Y-106197790D01*
X125052381Y-106197790D02*
X124976190Y-106159695D01*
X124976190Y-106159695D02*
X124823809Y-106159695D01*
X124823809Y-106159695D02*
X124747619Y-106197790D01*
X124747619Y-106197790D02*
X124709524Y-106235885D01*
X124709524Y-106235885D02*
X124671428Y-106312076D01*
X124671428Y-106312076D02*
X124671428Y-106502552D01*
X124671428Y-106502552D02*
X124709524Y-106578742D01*
X124709524Y-106578742D02*
X124747619Y-106616838D01*
X124747619Y-106616838D02*
X124823809Y-106654933D01*
X124823809Y-106654933D02*
X124976190Y-106654933D01*
X124976190Y-106654933D02*
X125052381Y-106616838D01*
X125052381Y-106616838D02*
X125090476Y-106578742D01*
X125090476Y-106578742D02*
X125128571Y-106502552D01*
X137085714Y-95683504D02*
X137047618Y-95721600D01*
X137047618Y-95721600D02*
X136933333Y-95759695D01*
X136933333Y-95759695D02*
X136857142Y-95759695D01*
X136857142Y-95759695D02*
X136742856Y-95721600D01*
X136742856Y-95721600D02*
X136666666Y-95645409D01*
X136666666Y-95645409D02*
X136628571Y-95569219D01*
X136628571Y-95569219D02*
X136590475Y-95416838D01*
X136590475Y-95416838D02*
X136590475Y-95302552D01*
X136590475Y-95302552D02*
X136628571Y-95150171D01*
X136628571Y-95150171D02*
X136666666Y-95073980D01*
X136666666Y-95073980D02*
X136742856Y-94997790D01*
X136742856Y-94997790D02*
X136857142Y-94959695D01*
X136857142Y-94959695D02*
X136933333Y-94959695D01*
X136933333Y-94959695D02*
X137047618Y-94997790D01*
X137047618Y-94997790D02*
X137085714Y-95035885D01*
X137390475Y-95035885D02*
X137428571Y-94997790D01*
X137428571Y-94997790D02*
X137504761Y-94959695D01*
X137504761Y-94959695D02*
X137695237Y-94959695D01*
X137695237Y-94959695D02*
X137771428Y-94997790D01*
X137771428Y-94997790D02*
X137809523Y-95035885D01*
X137809523Y-95035885D02*
X137847618Y-95112076D01*
X137847618Y-95112076D02*
X137847618Y-95188266D01*
X137847618Y-95188266D02*
X137809523Y-95302552D01*
X137809523Y-95302552D02*
X137352380Y-95759695D01*
X137352380Y-95759695D02*
X137847618Y-95759695D01*
X138533333Y-95226361D02*
X138533333Y-95759695D01*
X138342857Y-94921600D02*
X138152380Y-95493028D01*
X138152380Y-95493028D02*
X138647619Y-95493028D01*
X123066667Y-103159695D02*
X122800000Y-102778742D01*
X122609524Y-103159695D02*
X122609524Y-102359695D01*
X122609524Y-102359695D02*
X122914286Y-102359695D01*
X122914286Y-102359695D02*
X122990476Y-102397790D01*
X122990476Y-102397790D02*
X123028571Y-102435885D01*
X123028571Y-102435885D02*
X123066667Y-102512076D01*
X123066667Y-102512076D02*
X123066667Y-102626361D01*
X123066667Y-102626361D02*
X123028571Y-102702552D01*
X123028571Y-102702552D02*
X122990476Y-102740647D01*
X122990476Y-102740647D02*
X122914286Y-102778742D01*
X122914286Y-102778742D02*
X122609524Y-102778742D01*
X123333333Y-102359695D02*
X123828571Y-102359695D01*
X123828571Y-102359695D02*
X123561905Y-102664457D01*
X123561905Y-102664457D02*
X123676190Y-102664457D01*
X123676190Y-102664457D02*
X123752381Y-102702552D01*
X123752381Y-102702552D02*
X123790476Y-102740647D01*
X123790476Y-102740647D02*
X123828571Y-102816838D01*
X123828571Y-102816838D02*
X123828571Y-103007314D01*
X123828571Y-103007314D02*
X123790476Y-103083504D01*
X123790476Y-103083504D02*
X123752381Y-103121600D01*
X123752381Y-103121600D02*
X123676190Y-103159695D01*
X123676190Y-103159695D02*
X123447619Y-103159695D01*
X123447619Y-103159695D02*
X123371428Y-103121600D01*
X123371428Y-103121600D02*
X123333333Y-103083504D01*
X137354538Y-110433332D02*
X136973585Y-110699999D01*
X137354538Y-110890475D02*
X136554538Y-110890475D01*
X136554538Y-110890475D02*
X136554538Y-110585713D01*
X136554538Y-110585713D02*
X136592633Y-110509523D01*
X136592633Y-110509523D02*
X136630728Y-110471428D01*
X136630728Y-110471428D02*
X136706919Y-110433332D01*
X136706919Y-110433332D02*
X136821204Y-110433332D01*
X136821204Y-110433332D02*
X136897395Y-110471428D01*
X136897395Y-110471428D02*
X136935490Y-110509523D01*
X136935490Y-110509523D02*
X136973585Y-110585713D01*
X136973585Y-110585713D02*
X136973585Y-110890475D01*
X136554538Y-109709523D02*
X136554538Y-110090475D01*
X136554538Y-110090475D02*
X136935490Y-110128571D01*
X136935490Y-110128571D02*
X136897395Y-110090475D01*
X136897395Y-110090475D02*
X136859300Y-110014285D01*
X136859300Y-110014285D02*
X136859300Y-109823809D01*
X136859300Y-109823809D02*
X136897395Y-109747618D01*
X136897395Y-109747618D02*
X136935490Y-109709523D01*
X136935490Y-109709523D02*
X137011681Y-109671428D01*
X137011681Y-109671428D02*
X137202157Y-109671428D01*
X137202157Y-109671428D02*
X137278347Y-109709523D01*
X137278347Y-109709523D02*
X137316443Y-109747618D01*
X137316443Y-109747618D02*
X137354538Y-109823809D01*
X137354538Y-109823809D02*
X137354538Y-110014285D01*
X137354538Y-110014285D02*
X137316443Y-110090475D01*
X137316443Y-110090475D02*
X137278347Y-110128571D01*
X127266666Y-95259695D02*
X126885714Y-95259695D01*
X126885714Y-95259695D02*
X126885714Y-94459695D01*
X127952380Y-95259695D02*
X127495237Y-95259695D01*
X127723809Y-95259695D02*
X127723809Y-94459695D01*
X127723809Y-94459695D02*
X127647618Y-94573980D01*
X127647618Y-94573980D02*
X127571428Y-94650171D01*
X127571428Y-94650171D02*
X127495237Y-94688266D01*
X137085714Y-98383504D02*
X137047618Y-98421600D01*
X137047618Y-98421600D02*
X136933333Y-98459695D01*
X136933333Y-98459695D02*
X136857142Y-98459695D01*
X136857142Y-98459695D02*
X136742856Y-98421600D01*
X136742856Y-98421600D02*
X136666666Y-98345409D01*
X136666666Y-98345409D02*
X136628571Y-98269219D01*
X136628571Y-98269219D02*
X136590475Y-98116838D01*
X136590475Y-98116838D02*
X136590475Y-98002552D01*
X136590475Y-98002552D02*
X136628571Y-97850171D01*
X136628571Y-97850171D02*
X136666666Y-97773980D01*
X136666666Y-97773980D02*
X136742856Y-97697790D01*
X136742856Y-97697790D02*
X136857142Y-97659695D01*
X136857142Y-97659695D02*
X136933333Y-97659695D01*
X136933333Y-97659695D02*
X137047618Y-97697790D01*
X137047618Y-97697790D02*
X137085714Y-97735885D01*
X137390475Y-97735885D02*
X137428571Y-97697790D01*
X137428571Y-97697790D02*
X137504761Y-97659695D01*
X137504761Y-97659695D02*
X137695237Y-97659695D01*
X137695237Y-97659695D02*
X137771428Y-97697790D01*
X137771428Y-97697790D02*
X137809523Y-97735885D01*
X137809523Y-97735885D02*
X137847618Y-97812076D01*
X137847618Y-97812076D02*
X137847618Y-97888266D01*
X137847618Y-97888266D02*
X137809523Y-98002552D01*
X137809523Y-98002552D02*
X137352380Y-98459695D01*
X137352380Y-98459695D02*
X137847618Y-98459695D01*
X138342857Y-97659695D02*
X138419047Y-97659695D01*
X138419047Y-97659695D02*
X138495238Y-97697790D01*
X138495238Y-97697790D02*
X138533333Y-97735885D01*
X138533333Y-97735885D02*
X138571428Y-97812076D01*
X138571428Y-97812076D02*
X138609523Y-97964457D01*
X138609523Y-97964457D02*
X138609523Y-98154933D01*
X138609523Y-98154933D02*
X138571428Y-98307314D01*
X138571428Y-98307314D02*
X138533333Y-98383504D01*
X138533333Y-98383504D02*
X138495238Y-98421600D01*
X138495238Y-98421600D02*
X138419047Y-98459695D01*
X138419047Y-98459695D02*
X138342857Y-98459695D01*
X138342857Y-98459695D02*
X138266666Y-98421600D01*
X138266666Y-98421600D02*
X138228571Y-98383504D01*
X138228571Y-98383504D02*
X138190476Y-98307314D01*
X138190476Y-98307314D02*
X138152380Y-98154933D01*
X138152380Y-98154933D02*
X138152380Y-97964457D01*
X138152380Y-97964457D02*
X138190476Y-97812076D01*
X138190476Y-97812076D02*
X138228571Y-97735885D01*
X138228571Y-97735885D02*
X138266666Y-97697790D01*
X138266666Y-97697790D02*
X138342857Y-97659695D01*
X134685714Y-97883504D02*
X134647618Y-97921600D01*
X134647618Y-97921600D02*
X134533333Y-97959695D01*
X134533333Y-97959695D02*
X134457142Y-97959695D01*
X134457142Y-97959695D02*
X134342856Y-97921600D01*
X134342856Y-97921600D02*
X134266666Y-97845409D01*
X134266666Y-97845409D02*
X134228571Y-97769219D01*
X134228571Y-97769219D02*
X134190475Y-97616838D01*
X134190475Y-97616838D02*
X134190475Y-97502552D01*
X134190475Y-97502552D02*
X134228571Y-97350171D01*
X134228571Y-97350171D02*
X134266666Y-97273980D01*
X134266666Y-97273980D02*
X134342856Y-97197790D01*
X134342856Y-97197790D02*
X134457142Y-97159695D01*
X134457142Y-97159695D02*
X134533333Y-97159695D01*
X134533333Y-97159695D02*
X134647618Y-97197790D01*
X134647618Y-97197790D02*
X134685714Y-97235885D01*
X134990475Y-97235885D02*
X135028571Y-97197790D01*
X135028571Y-97197790D02*
X135104761Y-97159695D01*
X135104761Y-97159695D02*
X135295237Y-97159695D01*
X135295237Y-97159695D02*
X135371428Y-97197790D01*
X135371428Y-97197790D02*
X135409523Y-97235885D01*
X135409523Y-97235885D02*
X135447618Y-97312076D01*
X135447618Y-97312076D02*
X135447618Y-97388266D01*
X135447618Y-97388266D02*
X135409523Y-97502552D01*
X135409523Y-97502552D02*
X134952380Y-97959695D01*
X134952380Y-97959695D02*
X135447618Y-97959695D01*
X136209523Y-97959695D02*
X135752380Y-97959695D01*
X135980952Y-97959695D02*
X135980952Y-97159695D01*
X135980952Y-97159695D02*
X135904761Y-97273980D01*
X135904761Y-97273980D02*
X135828571Y-97350171D01*
X135828571Y-97350171D02*
X135752380Y-97388266D01*
X136352381Y-100059695D02*
X136352381Y-99259695D01*
X136352381Y-99259695D02*
X136619047Y-99831123D01*
X136619047Y-99831123D02*
X136885714Y-99259695D01*
X136885714Y-99259695D02*
X136885714Y-100059695D01*
X137266667Y-100059695D02*
X137266667Y-99259695D01*
X137723810Y-100059695D02*
X137380952Y-99602552D01*
X137723810Y-99259695D02*
X137266667Y-99716838D01*
X138028571Y-99335885D02*
X138066667Y-99297790D01*
X138066667Y-99297790D02*
X138142857Y-99259695D01*
X138142857Y-99259695D02*
X138333333Y-99259695D01*
X138333333Y-99259695D02*
X138409524Y-99297790D01*
X138409524Y-99297790D02*
X138447619Y-99335885D01*
X138447619Y-99335885D02*
X138485714Y-99412076D01*
X138485714Y-99412076D02*
X138485714Y-99488266D01*
X138485714Y-99488266D02*
X138447619Y-99602552D01*
X138447619Y-99602552D02*
X137990476Y-100059695D01*
X137990476Y-100059695D02*
X138485714Y-100059695D01*
X134685714Y-96783504D02*
X134647618Y-96821600D01*
X134647618Y-96821600D02*
X134533333Y-96859695D01*
X134533333Y-96859695D02*
X134457142Y-96859695D01*
X134457142Y-96859695D02*
X134342856Y-96821600D01*
X134342856Y-96821600D02*
X134266666Y-96745409D01*
X134266666Y-96745409D02*
X134228571Y-96669219D01*
X134228571Y-96669219D02*
X134190475Y-96516838D01*
X134190475Y-96516838D02*
X134190475Y-96402552D01*
X134190475Y-96402552D02*
X134228571Y-96250171D01*
X134228571Y-96250171D02*
X134266666Y-96173980D01*
X134266666Y-96173980D02*
X134342856Y-96097790D01*
X134342856Y-96097790D02*
X134457142Y-96059695D01*
X134457142Y-96059695D02*
X134533333Y-96059695D01*
X134533333Y-96059695D02*
X134647618Y-96097790D01*
X134647618Y-96097790D02*
X134685714Y-96135885D01*
X134990475Y-96135885D02*
X135028571Y-96097790D01*
X135028571Y-96097790D02*
X135104761Y-96059695D01*
X135104761Y-96059695D02*
X135295237Y-96059695D01*
X135295237Y-96059695D02*
X135371428Y-96097790D01*
X135371428Y-96097790D02*
X135409523Y-96135885D01*
X135409523Y-96135885D02*
X135447618Y-96212076D01*
X135447618Y-96212076D02*
X135447618Y-96288266D01*
X135447618Y-96288266D02*
X135409523Y-96402552D01*
X135409523Y-96402552D02*
X134952380Y-96859695D01*
X134952380Y-96859695D02*
X135447618Y-96859695D01*
X135752380Y-96135885D02*
X135790476Y-96097790D01*
X135790476Y-96097790D02*
X135866666Y-96059695D01*
X135866666Y-96059695D02*
X136057142Y-96059695D01*
X136057142Y-96059695D02*
X136133333Y-96097790D01*
X136133333Y-96097790D02*
X136171428Y-96135885D01*
X136171428Y-96135885D02*
X136209523Y-96212076D01*
X136209523Y-96212076D02*
X136209523Y-96288266D01*
X136209523Y-96288266D02*
X136171428Y-96402552D01*
X136171428Y-96402552D02*
X135714285Y-96859695D01*
X135714285Y-96859695D02*
X136209523Y-96859695D01*
X134685714Y-95683504D02*
X134647618Y-95721600D01*
X134647618Y-95721600D02*
X134533333Y-95759695D01*
X134533333Y-95759695D02*
X134457142Y-95759695D01*
X134457142Y-95759695D02*
X134342856Y-95721600D01*
X134342856Y-95721600D02*
X134266666Y-95645409D01*
X134266666Y-95645409D02*
X134228571Y-95569219D01*
X134228571Y-95569219D02*
X134190475Y-95416838D01*
X134190475Y-95416838D02*
X134190475Y-95302552D01*
X134190475Y-95302552D02*
X134228571Y-95150171D01*
X134228571Y-95150171D02*
X134266666Y-95073980D01*
X134266666Y-95073980D02*
X134342856Y-94997790D01*
X134342856Y-94997790D02*
X134457142Y-94959695D01*
X134457142Y-94959695D02*
X134533333Y-94959695D01*
X134533333Y-94959695D02*
X134647618Y-94997790D01*
X134647618Y-94997790D02*
X134685714Y-95035885D01*
X135447618Y-95759695D02*
X134990475Y-95759695D01*
X135219047Y-95759695D02*
X135219047Y-94959695D01*
X135219047Y-94959695D02*
X135142856Y-95073980D01*
X135142856Y-95073980D02*
X135066666Y-95150171D01*
X135066666Y-95150171D02*
X134990475Y-95188266D01*
X135828571Y-95759695D02*
X135980952Y-95759695D01*
X135980952Y-95759695D02*
X136057142Y-95721600D01*
X136057142Y-95721600D02*
X136095238Y-95683504D01*
X136095238Y-95683504D02*
X136171428Y-95569219D01*
X136171428Y-95569219D02*
X136209523Y-95416838D01*
X136209523Y-95416838D02*
X136209523Y-95112076D01*
X136209523Y-95112076D02*
X136171428Y-95035885D01*
X136171428Y-95035885D02*
X136133333Y-94997790D01*
X136133333Y-94997790D02*
X136057142Y-94959695D01*
X136057142Y-94959695D02*
X135904761Y-94959695D01*
X135904761Y-94959695D02*
X135828571Y-94997790D01*
X135828571Y-94997790D02*
X135790476Y-95035885D01*
X135790476Y-95035885D02*
X135752380Y-95112076D01*
X135752380Y-95112076D02*
X135752380Y-95302552D01*
X135752380Y-95302552D02*
X135790476Y-95378742D01*
X135790476Y-95378742D02*
X135828571Y-95416838D01*
X135828571Y-95416838D02*
X135904761Y-95454933D01*
X135904761Y-95454933D02*
X136057142Y-95454933D01*
X136057142Y-95454933D02*
X136133333Y-95416838D01*
X136133333Y-95416838D02*
X136171428Y-95378742D01*
X136171428Y-95378742D02*
X136209523Y-95302552D01*
D11*
X138852381Y-110161775D02*
X138852381Y-109361775D01*
X138852381Y-109361775D02*
X139119047Y-109933203D01*
X139119047Y-109933203D02*
X139385714Y-109361775D01*
X139385714Y-109361775D02*
X139385714Y-110161775D01*
X139766667Y-110161775D02*
X139766667Y-109361775D01*
X140223810Y-110161775D02*
X139880952Y-109704632D01*
X140223810Y-109361775D02*
X139766667Y-109818918D01*
X140909524Y-109628441D02*
X140909524Y-110161775D01*
X140719048Y-109323680D02*
X140528571Y-109895108D01*
X140528571Y-109895108D02*
X141023810Y-109895108D01*
D10*
X137228211Y-108730751D02*
X137266307Y-108768847D01*
X137266307Y-108768847D02*
X137304402Y-108883132D01*
X137304402Y-108883132D02*
X137304402Y-108959323D01*
X137304402Y-108959323D02*
X137266307Y-109073609D01*
X137266307Y-109073609D02*
X137190116Y-109149799D01*
X137190116Y-109149799D02*
X137113926Y-109187894D01*
X137113926Y-109187894D02*
X136961545Y-109225990D01*
X136961545Y-109225990D02*
X136847259Y-109225990D01*
X136847259Y-109225990D02*
X136694878Y-109187894D01*
X136694878Y-109187894D02*
X136618687Y-109149799D01*
X136618687Y-109149799D02*
X136542497Y-109073609D01*
X136542497Y-109073609D02*
X136504402Y-108959323D01*
X136504402Y-108959323D02*
X136504402Y-108883132D01*
X136504402Y-108883132D02*
X136542497Y-108768847D01*
X136542497Y-108768847D02*
X136580592Y-108730751D01*
X136580592Y-108425990D02*
X136542497Y-108387894D01*
X136542497Y-108387894D02*
X136504402Y-108311704D01*
X136504402Y-108311704D02*
X136504402Y-108121228D01*
X136504402Y-108121228D02*
X136542497Y-108045037D01*
X136542497Y-108045037D02*
X136580592Y-108006942D01*
X136580592Y-108006942D02*
X136656783Y-107968847D01*
X136656783Y-107968847D02*
X136732973Y-107968847D01*
X136732973Y-107968847D02*
X136847259Y-108006942D01*
X136847259Y-108006942D02*
X137304402Y-108464085D01*
X137304402Y-108464085D02*
X137304402Y-107968847D01*
X136504402Y-107245037D02*
X136504402Y-107625989D01*
X136504402Y-107625989D02*
X136885354Y-107664085D01*
X136885354Y-107664085D02*
X136847259Y-107625989D01*
X136847259Y-107625989D02*
X136809164Y-107549799D01*
X136809164Y-107549799D02*
X136809164Y-107359323D01*
X136809164Y-107359323D02*
X136847259Y-107283132D01*
X136847259Y-107283132D02*
X136885354Y-107245037D01*
X136885354Y-107245037D02*
X136961545Y-107206942D01*
X136961545Y-107206942D02*
X137152021Y-107206942D01*
X137152021Y-107206942D02*
X137228211Y-107245037D01*
X137228211Y-107245037D02*
X137266307Y-107283132D01*
X137266307Y-107283132D02*
X137304402Y-107359323D01*
X137304402Y-107359323D02*
X137304402Y-107549799D01*
X137304402Y-107549799D02*
X137266307Y-107625989D01*
X137266307Y-107625989D02*
X137228211Y-107664085D01*
X124085714Y-98883504D02*
X124047618Y-98921600D01*
X124047618Y-98921600D02*
X123933333Y-98959695D01*
X123933333Y-98959695D02*
X123857142Y-98959695D01*
X123857142Y-98959695D02*
X123742856Y-98921600D01*
X123742856Y-98921600D02*
X123666666Y-98845409D01*
X123666666Y-98845409D02*
X123628571Y-98769219D01*
X123628571Y-98769219D02*
X123590475Y-98616838D01*
X123590475Y-98616838D02*
X123590475Y-98502552D01*
X123590475Y-98502552D02*
X123628571Y-98350171D01*
X123628571Y-98350171D02*
X123666666Y-98273980D01*
X123666666Y-98273980D02*
X123742856Y-98197790D01*
X123742856Y-98197790D02*
X123857142Y-98159695D01*
X123857142Y-98159695D02*
X123933333Y-98159695D01*
X123933333Y-98159695D02*
X124047618Y-98197790D01*
X124047618Y-98197790D02*
X124085714Y-98235885D01*
X124847618Y-98959695D02*
X124390475Y-98959695D01*
X124619047Y-98959695D02*
X124619047Y-98159695D01*
X124619047Y-98159695D02*
X124542856Y-98273980D01*
X124542856Y-98273980D02*
X124466666Y-98350171D01*
X124466666Y-98350171D02*
X124390475Y-98388266D01*
X125114285Y-98159695D02*
X125647619Y-98159695D01*
X125647619Y-98159695D02*
X125304761Y-98959695D01*
X136142713Y-108737025D02*
X136180809Y-108775121D01*
X136180809Y-108775121D02*
X136218904Y-108889406D01*
X136218904Y-108889406D02*
X136218904Y-108965597D01*
X136218904Y-108965597D02*
X136180809Y-109079883D01*
X136180809Y-109079883D02*
X136104618Y-109156073D01*
X136104618Y-109156073D02*
X136028428Y-109194168D01*
X136028428Y-109194168D02*
X135876047Y-109232264D01*
X135876047Y-109232264D02*
X135761761Y-109232264D01*
X135761761Y-109232264D02*
X135609380Y-109194168D01*
X135609380Y-109194168D02*
X135533189Y-109156073D01*
X135533189Y-109156073D02*
X135456999Y-109079883D01*
X135456999Y-109079883D02*
X135418904Y-108965597D01*
X135418904Y-108965597D02*
X135418904Y-108889406D01*
X135418904Y-108889406D02*
X135456999Y-108775121D01*
X135456999Y-108775121D02*
X135495094Y-108737025D01*
X135495094Y-108432264D02*
X135456999Y-108394168D01*
X135456999Y-108394168D02*
X135418904Y-108317978D01*
X135418904Y-108317978D02*
X135418904Y-108127502D01*
X135418904Y-108127502D02*
X135456999Y-108051311D01*
X135456999Y-108051311D02*
X135495094Y-108013216D01*
X135495094Y-108013216D02*
X135571285Y-107975121D01*
X135571285Y-107975121D02*
X135647475Y-107975121D01*
X135647475Y-107975121D02*
X135761761Y-108013216D01*
X135761761Y-108013216D02*
X136218904Y-108470359D01*
X136218904Y-108470359D02*
X136218904Y-107975121D01*
X135418904Y-107708454D02*
X135418904Y-107213216D01*
X135418904Y-107213216D02*
X135723666Y-107479882D01*
X135723666Y-107479882D02*
X135723666Y-107365597D01*
X135723666Y-107365597D02*
X135761761Y-107289406D01*
X135761761Y-107289406D02*
X135799856Y-107251311D01*
X135799856Y-107251311D02*
X135876047Y-107213216D01*
X135876047Y-107213216D02*
X136066523Y-107213216D01*
X136066523Y-107213216D02*
X136142713Y-107251311D01*
X136142713Y-107251311D02*
X136180809Y-107289406D01*
X136180809Y-107289406D02*
X136218904Y-107365597D01*
X136218904Y-107365597D02*
X136218904Y-107594168D01*
X136218904Y-107594168D02*
X136180809Y-107670359D01*
X136180809Y-107670359D02*
X136142713Y-107708454D01*
X129971728Y-98996658D02*
X130009824Y-99034754D01*
X130009824Y-99034754D02*
X130047919Y-99149039D01*
X130047919Y-99149039D02*
X130047919Y-99225230D01*
X130047919Y-99225230D02*
X130009824Y-99339516D01*
X130009824Y-99339516D02*
X129933633Y-99415706D01*
X129933633Y-99415706D02*
X129857443Y-99453801D01*
X129857443Y-99453801D02*
X129705062Y-99491897D01*
X129705062Y-99491897D02*
X129590776Y-99491897D01*
X129590776Y-99491897D02*
X129438395Y-99453801D01*
X129438395Y-99453801D02*
X129362204Y-99415706D01*
X129362204Y-99415706D02*
X129286014Y-99339516D01*
X129286014Y-99339516D02*
X129247919Y-99225230D01*
X129247919Y-99225230D02*
X129247919Y-99149039D01*
X129247919Y-99149039D02*
X129286014Y-99034754D01*
X129286014Y-99034754D02*
X129324109Y-98996658D01*
X130047919Y-98234754D02*
X130047919Y-98691897D01*
X130047919Y-98463325D02*
X129247919Y-98463325D01*
X129247919Y-98463325D02*
X129362204Y-98539516D01*
X129362204Y-98539516D02*
X129438395Y-98615706D01*
X129438395Y-98615706D02*
X129476490Y-98691897D01*
X129324109Y-97929992D02*
X129286014Y-97891896D01*
X129286014Y-97891896D02*
X129247919Y-97815706D01*
X129247919Y-97815706D02*
X129247919Y-97625230D01*
X129247919Y-97625230D02*
X129286014Y-97549039D01*
X129286014Y-97549039D02*
X129324109Y-97510944D01*
X129324109Y-97510944D02*
X129400300Y-97472849D01*
X129400300Y-97472849D02*
X129476490Y-97472849D01*
X129476490Y-97472849D02*
X129590776Y-97510944D01*
X129590776Y-97510944D02*
X130047919Y-97968087D01*
X130047919Y-97968087D02*
X130047919Y-97472849D01*
D12*
%TO.C,MK3*%
X138820000Y-96027884D02*
X142520000Y-96027884D01*
X138820000Y-98577884D02*
X138820000Y-96027884D01*
X142520000Y-96027884D02*
X142520000Y-98877884D01*
X142520000Y-98877884D02*
X139120000Y-98877884D01*
X138820000Y-99157884D02*
X138540000Y-98877884D01*
X138820000Y-98877884D01*
X138820000Y-99157884D01*
G36*
X138820000Y-99157884D02*
G01*
X138540000Y-98877884D01*
X138820000Y-98877884D01*
X138820000Y-99157884D01*
G37*
D13*
%TO.C,MK1*%
X138904500Y-102370000D02*
X138904500Y-102435500D01*
X138904500Y-103428000D02*
X138904500Y-104112000D01*
X138904500Y-105104000D02*
X138904500Y-105170000D01*
X138904500Y-105170000D02*
X139264500Y-105170000D01*
X139264500Y-105170000D02*
X142044500Y-105170000D01*
X140654500Y-102370000D02*
X138904500Y-102370000D01*
X140654500Y-102370000D02*
X142404500Y-102370000D01*
X142404500Y-102370000D02*
X142404500Y-103335500D01*
X142404500Y-104205000D02*
X142404500Y-105170000D01*
X142404500Y-105170000D02*
X142044500Y-105170000D01*
D14*
X138734500Y-104650000D02*
G75*
G02*
X138434500Y-104650000I-150000J0D01*
G01*
X138434500Y-104650000D02*
G75*
G02*
X138734500Y-104650000I150000J0D01*
G01*
D12*
%TO.C,R11*%
X126400000Y-107840000D02*
X126400000Y-109740000D01*
X126400000Y-109740000D02*
X127400000Y-109740000D01*
X127400000Y-107840000D02*
X126400000Y-107840000D01*
X127400000Y-109740000D02*
X127400000Y-107840000D01*
%TO.C,R6*%
X133231619Y-108667841D02*
X133231619Y-110567841D01*
X133231619Y-110567841D02*
X134231619Y-110567841D01*
X134231619Y-108667841D02*
X133231619Y-108667841D01*
X134231619Y-110567841D02*
X134231619Y-108667841D01*
%TO.C,C8*%
X125540000Y-100107836D02*
X125540000Y-99892164D01*
X126260000Y-100107836D02*
X126260000Y-99892164D01*
%TO.C,TP1*%
X135621070Y-101800000D02*
G75*
G02*
X134778930Y-101800000I-421070J0D01*
G01*
X134778930Y-101800000D02*
G75*
G02*
X135621070Y-101800000I421070J0D01*
G01*
%TO.C,DD3*%
X126927500Y-100090000D02*
X127577500Y-100090000D01*
X126927500Y-100740000D02*
X126927500Y-100090000D01*
X126927500Y-106660000D02*
X126927500Y-107010000D01*
X127577500Y-107310000D02*
X127167500Y-107310000D01*
X134147500Y-100090000D02*
X133497500Y-100090000D01*
X134147500Y-100740000D02*
X134147500Y-100090000D01*
X134147500Y-106660000D02*
X134147500Y-107310000D01*
X134147500Y-107310000D02*
X133497500Y-107310000D01*
X126927500Y-107310000D02*
X126597500Y-107550000D01*
X126597500Y-107070000D01*
X126927500Y-107310000D01*
G36*
X126927500Y-107310000D02*
G01*
X126597500Y-107550000D01*
X126597500Y-107070000D01*
X126927500Y-107310000D01*
G37*
%TO.C,R8*%
X131231619Y-108667841D02*
X131231619Y-110567841D01*
X131231619Y-110567841D02*
X132231619Y-110567841D01*
X132231619Y-108667841D02*
X131231619Y-108667841D01*
X132231619Y-110567841D02*
X132231619Y-108667841D01*
%TO.C,R7*%
X132231619Y-108667841D02*
X132231619Y-110567841D01*
X132231619Y-110567841D02*
X133231619Y-110567841D01*
X133231619Y-108667841D02*
X132231619Y-108667841D01*
X133231619Y-110567841D02*
X133231619Y-108667841D01*
%TO.C,C9*%
X125007836Y-104140000D02*
X124792164Y-104140000D01*
X125007836Y-104860000D02*
X124792164Y-104860000D01*
%TO.C,C24*%
X137807836Y-95940000D02*
X137592164Y-95940000D01*
X137807836Y-96660000D02*
X137592164Y-96660000D01*
%TO.C,R5*%
X134231619Y-108667841D02*
X134231619Y-110567841D01*
X134231619Y-110567841D02*
X135231619Y-110567841D01*
X135231619Y-108667841D02*
X134231619Y-108667841D01*
X135231619Y-110567841D02*
X135231619Y-108667841D01*
%TO.C,L1*%
X127661252Y-95490000D02*
X127138748Y-95490000D01*
X127661252Y-97710000D02*
X127138748Y-97710000D01*
%TO.C,C21*%
X137612411Y-101950519D02*
X137396739Y-101950519D01*
X137612411Y-102670519D02*
X137396739Y-102670519D01*
D15*
%TO.C,MK2*%
X138647083Y-99232000D02*
X142647083Y-99232000D01*
X138647083Y-102232000D02*
X138647083Y-99232000D01*
X142647083Y-99232000D02*
X142647083Y-102232000D01*
X142647083Y-102232000D02*
X138647083Y-102232000D01*
D10*
X139997083Y-102732000D02*
G75*
G02*
X139797083Y-102732000I-100000J0D01*
G01*
X139797083Y-102732000D02*
G75*
G02*
X139997083Y-102732000I100000J0D01*
G01*
D12*
%TO.C,C22*%
X137607836Y-101040000D02*
X137392164Y-101040000D01*
X137607836Y-101760000D02*
X137392164Y-101760000D01*
D16*
%TO.C,MK4*%
X137610000Y-105390000D02*
X142330000Y-105390000D01*
X137610000Y-109150000D02*
X137610000Y-105390000D01*
X137610000Y-109150000D02*
X142330000Y-109150000D01*
X142330000Y-106520000D02*
X142330000Y-105390000D01*
X142330000Y-109150000D02*
X142330000Y-108020000D01*
D10*
X138200000Y-109670000D02*
G75*
G02*
X138000000Y-109670000I-100000J0D01*
G01*
X138000000Y-109670000D02*
G75*
G02*
X138200000Y-109670000I100000J0D01*
G01*
D12*
%TO.C,C25*%
X136540000Y-106307836D02*
X136540000Y-106092164D01*
X137260000Y-106307836D02*
X137260000Y-106092164D01*
%TO.C,C17*%
X126907836Y-98240000D02*
X126692164Y-98240000D01*
X126907836Y-98960000D02*
X126692164Y-98960000D01*
%TD*%
M02*
