%TF.GenerationSoftware,KiCad,Pcbnew,9.0.0*%
%TF.CreationDate,2025-08-25T21:43:05+03:00*%
%TF.ProjectId,Daredevil-mini,44617265-6465-4766-996c-2d6d696e692e,rev?*%
%TF.SameCoordinates,Original*%
%TF.FileFunction,Paste,Bot*%
%TF.FilePolarity,Positive*%
%FSLAX46Y46*%
G04 Gerber Fmt 4.6, Leading zero omitted, Abs format (unit mm)*
G04 Created by KiCad (PCBNEW 9.0.0) date 2025-08-25 21:43:05*
%MOMM*%
%LPD*%
G01*
G04 APERTURE LIST*
G04 Aperture macros list*
%AMRoundRect*
0 Rectangle with rounded corners*
0 $1 Rounding radius*
0 $2 $3 $4 $5 $6 $7 $8 $9 X,Y pos of 4 corners*
0 Add a 4 corners polygon primitive as box body*
4,1,4,$2,$3,$4,$5,$6,$7,$8,$9,$2,$3,0*
0 Add four circle primitives for the rounded corners*
1,1,$1+$1,$2,$3*
1,1,$1+$1,$4,$5*
1,1,$1+$1,$6,$7*
1,1,$1+$1,$8,$9*
0 Add four rect primitives between the rounded corners*
20,1,$1+$1,$2,$3,$4,$5,0*
20,1,$1+$1,$4,$5,$6,$7,0*
20,1,$1+$1,$6,$7,$8,$9,0*
20,1,$1+$1,$8,$9,$2,$3,0*%
G04 Aperture macros list end*
%ADD10RoundRect,0.135000X-0.135000X-0.185000X0.135000X-0.185000X0.135000X0.185000X-0.135000X0.185000X0*%
%ADD11RoundRect,0.250000X1.000000X0.250000X-1.000000X0.250000X-1.000000X-0.250000X1.000000X-0.250000X0*%
%ADD12RoundRect,0.079500X-0.079500X-0.100500X0.079500X-0.100500X0.079500X0.100500X-0.079500X0.100500X0*%
%ADD13R,0.900000X0.300000*%
%ADD14R,0.250000X1.650000*%
%ADD15RoundRect,0.147500X-0.172500X0.147500X-0.172500X-0.147500X0.172500X-0.147500X0.172500X0.147500X0*%
%ADD16RoundRect,0.135000X0.135000X0.185000X-0.135000X0.185000X-0.135000X-0.185000X0.135000X-0.185000X0*%
%ADD17R,1.400000X1.200000*%
%ADD18R,1.050000X0.650000*%
%ADD19R,0.300000X0.800000*%
%ADD20R,2.050000X1.250000*%
%ADD21RoundRect,0.140000X-0.170000X0.140000X-0.170000X-0.140000X0.170000X-0.140000X0.170000X0.140000X0*%
%ADD22RoundRect,0.250000X-0.475000X0.250000X-0.475000X-0.250000X0.475000X-0.250000X0.475000X0.250000X0*%
%ADD23RoundRect,0.079500X0.079500X0.100500X-0.079500X0.100500X-0.079500X-0.100500X0.079500X-0.100500X0*%
%ADD24RoundRect,0.135000X0.185000X-0.135000X0.185000X0.135000X-0.185000X0.135000X-0.185000X-0.135000X0*%
%ADD25RoundRect,0.250000X-0.250000X-0.475000X0.250000X-0.475000X0.250000X0.475000X-0.250000X0.475000X0*%
%ADD26RoundRect,0.079500X0.100500X-0.079500X0.100500X0.079500X-0.100500X0.079500X-0.100500X-0.079500X0*%
G04 APERTURE END LIST*
D10*
%TO.C,R2*%
X131390000Y-101200000D03*
X132410000Y-101200000D03*
%TD*%
D11*
%TO.C,J1*%
X125250000Y-99050000D03*
X125250000Y-101550000D03*
X125250000Y-103550000D03*
X125250000Y-106050000D03*
%TD*%
D12*
%TO.C,C5*%
X133555000Y-102000000D03*
X134245000Y-102000000D03*
%TD*%
D13*
%TO.C,DD2*%
X127700000Y-106550000D03*
X127700000Y-106050000D03*
X127700000Y-105550000D03*
X127700000Y-105050000D03*
X130500000Y-105050000D03*
X130500000Y-105550000D03*
X130500000Y-106050000D03*
X130500000Y-106550000D03*
D14*
X129100000Y-105800000D03*
%TD*%
D15*
%TO.C,D3*%
X132645737Y-109131661D03*
X132645737Y-110101661D03*
%TD*%
%TO.C,D4*%
X131645737Y-109116661D03*
X131645737Y-110086661D03*
%TD*%
%TO.C,D5*%
X133710000Y-96200000D03*
X133710000Y-97170000D03*
%TD*%
D16*
%TO.C,R1*%
X132410000Y-100200000D03*
X131390000Y-100200000D03*
%TD*%
D17*
%TO.C,Y1*%
X132900000Y-103250000D03*
X135100000Y-103250000D03*
X135100000Y-104950000D03*
X132900000Y-104950000D03*
%TD*%
D18*
%TO.C,SW1*%
X130358017Y-107875846D03*
X126208017Y-107875846D03*
X130358017Y-110025846D03*
X126208017Y-110025846D03*
%TD*%
D15*
%TO.C,D6*%
X132710000Y-96200000D03*
X132710000Y-97170000D03*
%TD*%
D19*
%TO.C,DD1*%
X127562500Y-97050000D03*
X128062500Y-97050000D03*
X128562500Y-97050000D03*
X129062500Y-97050000D03*
X129562500Y-97050000D03*
X129562500Y-99550000D03*
X129062500Y-99550000D03*
X128562500Y-99550000D03*
X128062500Y-99550000D03*
X127562500Y-99550000D03*
D20*
X128562500Y-98300000D03*
%TD*%
D21*
%TO.C,C4*%
X131676295Y-106245911D03*
X131676295Y-107205911D03*
%TD*%
D15*
%TO.C,D1*%
X134645737Y-109131661D03*
X134645737Y-110101661D03*
%TD*%
D22*
%TO.C,C1*%
X131200000Y-97050000D03*
X131200000Y-98950000D03*
%TD*%
D15*
%TO.C,D2*%
X133625737Y-109116661D03*
X133625737Y-110086661D03*
%TD*%
D23*
%TO.C,C6*%
X134345000Y-106200000D03*
X133655000Y-106200000D03*
%TD*%
D24*
%TO.C,R10*%
X132700000Y-99110000D03*
X132700000Y-98090000D03*
%TD*%
%TO.C,R9*%
X133710000Y-99110000D03*
X133710000Y-98090000D03*
%TD*%
D25*
%TO.C,C2*%
X127750000Y-101200000D03*
X129650000Y-101200000D03*
%TD*%
D26*
%TO.C,C3*%
X131557260Y-105449568D03*
X131557260Y-104759568D03*
%TD*%
M02*
