%TF.GenerationSoftware,KiCad,Pcbnew,9.0.0*%
%TF.CreationDate,2025-08-25T21:43:05+03:00*%
%TF.ProjectId,Daredevil-mini,44617265-6465-4766-996c-2d6d696e692e,rev?*%
%TF.SameCoordinates,Original*%
%TF.FileFunction,Copper,L2,Bot*%
%TF.FilePolarity,Positive*%
%FSLAX46Y46*%
G04 Gerber Fmt 4.6, Leading zero omitted, Abs format (unit mm)*
G04 Created by KiCad (PCBNEW 9.0.0) date 2025-08-25 21:43:05*
%MOMM*%
%LPD*%
G01*
G04 APERTURE LIST*
G04 Aperture macros list*
%AMRoundRect*
0 Rectangle with rounded corners*
0 $1 Rounding radius*
0 $2 $3 $4 $5 $6 $7 $8 $9 X,Y pos of 4 corners*
0 Add a 4 corners polygon primitive as box body*
4,1,4,$2,$3,$4,$5,$6,$7,$8,$9,$2,$3,0*
0 Add four circle primitives for the rounded corners*
1,1,$1+$1,$2,$3*
1,1,$1+$1,$4,$5*
1,1,$1+$1,$6,$7*
1,1,$1+$1,$8,$9*
0 Add four rect primitives between the rounded corners*
20,1,$1+$1,$2,$3,$4,$5,0*
20,1,$1+$1,$4,$5,$6,$7,0*
20,1,$1+$1,$6,$7,$8,$9,0*
20,1,$1+$1,$8,$9,$2,$3,0*%
G04 Aperture macros list end*
%TA.AperFunction,ComponentPad*%
%ADD10C,1.640488*%
%TD*%
%TA.AperFunction,SMDPad,CuDef*%
%ADD11RoundRect,0.135000X-0.135000X-0.185000X0.135000X-0.185000X0.135000X0.185000X-0.135000X0.185000X0*%
%TD*%
%TA.AperFunction,SMDPad,CuDef*%
%ADD12RoundRect,0.250000X1.000000X0.250000X-1.000000X0.250000X-1.000000X-0.250000X1.000000X-0.250000X0*%
%TD*%
%TA.AperFunction,ComponentPad*%
%ADD13O,3.800000X1.400000*%
%TD*%
%TA.AperFunction,SMDPad,CuDef*%
%ADD14RoundRect,0.100000X-0.130000X-0.100000X0.130000X-0.100000X0.130000X0.100000X-0.130000X0.100000X0*%
%TD*%
%TA.AperFunction,SMDPad,CuDef*%
%ADD15R,0.900000X0.300000*%
%TD*%
%TA.AperFunction,SMDPad,CuDef*%
%ADD16R,0.250000X1.650000*%
%TD*%
%TA.AperFunction,SMDPad,CuDef*%
%ADD17RoundRect,0.147500X-0.172500X0.147500X-0.172500X-0.147500X0.172500X-0.147500X0.172500X0.147500X0*%
%TD*%
%TA.AperFunction,SMDPad,CuDef*%
%ADD18RoundRect,0.135000X0.135000X0.185000X-0.135000X0.185000X-0.135000X-0.185000X0.135000X-0.185000X0*%
%TD*%
%TA.AperFunction,SMDPad,CuDef*%
%ADD19R,1.400000X1.200000*%
%TD*%
%TA.AperFunction,SMDPad,CuDef*%
%ADD20R,1.050000X0.650000*%
%TD*%
%TA.AperFunction,SMDPad,CuDef*%
%ADD21R,0.300000X0.800000*%
%TD*%
%TA.AperFunction,SMDPad,CuDef*%
%ADD22R,2.050000X1.250000*%
%TD*%
%TA.AperFunction,SMDPad,CuDef*%
%ADD23RoundRect,0.140000X-0.170000X0.140000X-0.170000X-0.140000X0.170000X-0.140000X0.170000X0.140000X0*%
%TD*%
%TA.AperFunction,SMDPad,CuDef*%
%ADD24RoundRect,0.250000X-0.475000X0.250000X-0.475000X-0.250000X0.475000X-0.250000X0.475000X0.250000X0*%
%TD*%
%TA.AperFunction,SMDPad,CuDef*%
%ADD25RoundRect,0.100000X0.130000X0.100000X-0.130000X0.100000X-0.130000X-0.100000X0.130000X-0.100000X0*%
%TD*%
%TA.AperFunction,SMDPad,CuDef*%
%ADD26RoundRect,0.135000X0.185000X-0.135000X0.185000X0.135000X-0.185000X0.135000X-0.185000X-0.135000X0*%
%TD*%
%TA.AperFunction,SMDPad,CuDef*%
%ADD27RoundRect,0.250000X-0.250000X-0.475000X0.250000X-0.475000X0.250000X0.475000X-0.250000X0.475000X0*%
%TD*%
%TA.AperFunction,SMDPad,CuDef*%
%ADD28RoundRect,0.100000X0.100000X-0.130000X0.100000X0.130000X-0.100000X0.130000X-0.100000X-0.130000X0*%
%TD*%
%TA.AperFunction,ViaPad*%
%ADD29C,0.450000*%
%TD*%
%TA.AperFunction,Conductor*%
%ADD30C,0.300000*%
%TD*%
%TA.AperFunction,Conductor*%
%ADD31C,0.127000*%
%TD*%
%TA.AperFunction,Conductor*%
%ADD32C,0.400000*%
%TD*%
%TA.AperFunction,Conductor*%
%ADD33C,0.135900*%
%TD*%
G04 APERTURE END LIST*
D10*
%TO.P,MK1,3,GND*%
%TO.N,Earth*%
X141370000Y-103770000D03*
%TD*%
D11*
%TO.P,R2,1*%
%TO.N,Net-(DD1-PS)*%
X131390000Y-101200000D03*
%TO.P,R2,2*%
%TO.N,Earth*%
X132410000Y-101200000D03*
%TD*%
D12*
%TO.P,J1,1,VBUS*%
%TO.N,+5V*%
X125250000Y-99050000D03*
%TO.P,J1,2,D-*%
%TO.N,USB-*%
X125250000Y-101550000D03*
%TO.P,J1,3,D+*%
%TO.N,USB+*%
X125250000Y-103550000D03*
%TO.P,J1,4,GND*%
%TO.N,Earth*%
X125250000Y-106050000D03*
D13*
%TO.P,J1,5,Shield*%
X123000000Y-108400000D03*
X123000000Y-96700000D03*
%TD*%
D14*
%TO.P,C5,1*%
%TO.N,Net-(DD3-XOUT)*%
X133580000Y-102000000D03*
%TO.P,C5,2*%
%TO.N,Earth*%
X134220000Y-102000000D03*
%TD*%
D15*
%TO.P,DD2,1,~{CS}*%
%TO.N,Net-(DD2-~{CS})*%
X127700000Y-106550000D03*
%TO.P,DD2,2,DO(IO1)*%
%TO.N,Net-(DD2-DO(IO1))*%
X127700000Y-106050000D03*
%TO.P,DD2,3,IO2*%
%TO.N,Net-(DD2-IO2)*%
X127700000Y-105550000D03*
%TO.P,DD2,4,GND*%
%TO.N,Earth*%
X127700000Y-105050000D03*
%TO.P,DD2,5,DI(IO0)*%
%TO.N,Net-(DD2-DI(IO0))*%
X130500000Y-105050000D03*
%TO.P,DD2,6,CLK*%
%TO.N,Net-(DD2-CLK)*%
X130500000Y-105550000D03*
%TO.P,DD2,7,IO3*%
%TO.N,Net-(DD2-IO3)*%
X130500000Y-106050000D03*
%TO.P,DD2,8,VCC*%
%TO.N,+3.3V*%
X130500000Y-106550000D03*
D16*
%TO.P,DD2,9,EP*%
%TO.N,unconnected-(DD2-EP-Pad9)*%
X129100000Y-105800000D03*
%TD*%
D17*
%TO.P,D3,1,K*%
%TO.N,LVL_LED_3*%
X132645737Y-109131661D03*
%TO.P,D3,2,A*%
%TO.N,Net-(D3-A)*%
X132645737Y-110101661D03*
%TD*%
%TO.P,D4,1,K*%
%TO.N,LVL_LED_4*%
X131645737Y-109116661D03*
%TO.P,D4,2,A*%
%TO.N,Net-(D4-A)*%
X131645737Y-110086661D03*
%TD*%
%TO.P,D5,1,K*%
%TO.N,STATUS_LED_1*%
X133710000Y-96200000D03*
%TO.P,D5,2,A*%
%TO.N,Net-(D5-A)*%
X133710000Y-97170000D03*
%TD*%
D18*
%TO.P,R1,1*%
%TO.N,+5V*%
X132410000Y-100200000D03*
%TO.P,R1,2*%
%TO.N,Net-(DD1-EN)*%
X131390000Y-100200000D03*
%TD*%
D19*
%TO.P,Y1,1,1*%
%TO.N,Net-(DD3-XOUT)*%
X132900000Y-103250000D03*
%TO.P,Y1,2,2*%
%TO.N,Earth*%
X135100000Y-103250000D03*
%TO.P,Y1,3,3*%
%TO.N,Net-(DD3-XIN)*%
X135100000Y-104950000D03*
%TO.P,Y1,4,4*%
%TO.N,Earth*%
X132900000Y-104950000D03*
%TD*%
D20*
%TO.P,SW1,1,1*%
%TO.N,Earth*%
X130358017Y-107875846D03*
X126208017Y-107875846D03*
%TO.P,SW1,2,2*%
%TO.N,Net-(R11-Pad1)*%
X130358017Y-110025846D03*
X126208017Y-110025846D03*
%TD*%
D17*
%TO.P,D6,1,K*%
%TO.N,STATUS_LED_2*%
X132710000Y-96200000D03*
%TO.P,D6,2,A*%
%TO.N,Net-(D6-A)*%
X132710000Y-97170000D03*
%TD*%
D21*
%TO.P,DD1,1,VOUT*%
%TO.N,+3.3V*%
X127562500Y-97050000D03*
%TO.P,DD1,2,LX2*%
%TO.N,Net-(DD1-LX2)*%
X128062500Y-97050000D03*
%TO.P,DD1,3,GND_1*%
%TO.N,Earth*%
X128562500Y-97050000D03*
%TO.P,DD1,4,LX1*%
%TO.N,Net-(DD1-LX1)*%
X129062500Y-97050000D03*
%TO.P,DD1,5,VIN*%
%TO.N,+5V*%
X129562500Y-97050000D03*
%TO.P,DD1,6,EN*%
%TO.N,Net-(DD1-EN)*%
X129562500Y-99550000D03*
%TO.P,DD1,7,PS*%
%TO.N,Net-(DD1-PS)*%
X129062500Y-99550000D03*
%TO.P,DD1,8,VINA*%
%TO.N,+5V*%
X128562500Y-99550000D03*
%TO.P,DD1,9,GND_2*%
%TO.N,Earth*%
X128062500Y-99550000D03*
%TO.P,DD1,10,FB*%
%TO.N,+3.3V*%
X127562500Y-99550000D03*
D22*
%TO.P,DD1,11,GND_3*%
%TO.N,Earth*%
X128562500Y-98300000D03*
%TD*%
D23*
%TO.P,C4,1*%
%TO.N,+3.3V*%
X131676295Y-106245911D03*
%TO.P,C4,2*%
%TO.N,Earth*%
X131676295Y-107205911D03*
%TD*%
D17*
%TO.P,D1,1,K*%
%TO.N,LVL_LED_1*%
X134645737Y-109131661D03*
%TO.P,D1,2,A*%
%TO.N,Net-(D1-A)*%
X134645737Y-110101661D03*
%TD*%
D24*
%TO.P,C1,1*%
%TO.N,+5V*%
X131200000Y-97050000D03*
%TO.P,C1,2*%
%TO.N,Earth*%
X131200000Y-98950000D03*
%TD*%
D17*
%TO.P,D2,1,K*%
%TO.N,LVL_LED_2*%
X133625737Y-109116661D03*
%TO.P,D2,2,A*%
%TO.N,Net-(D2-A)*%
X133625737Y-110086661D03*
%TD*%
D25*
%TO.P,C6,1*%
%TO.N,Net-(DD3-XIN)*%
X134320000Y-106200000D03*
%TO.P,C6,2*%
%TO.N,Earth*%
X133680000Y-106200000D03*
%TD*%
D26*
%TO.P,R10,1*%
%TO.N,+3.3V*%
X132700000Y-99110000D03*
%TO.P,R10,2*%
%TO.N,Net-(D6-A)*%
X132700000Y-98090000D03*
%TD*%
%TO.P,R9,1*%
%TO.N,+3.3V*%
X133710000Y-99110000D03*
%TO.P,R9,2*%
%TO.N,Net-(D5-A)*%
X133710000Y-98090000D03*
%TD*%
D27*
%TO.P,C2,1*%
%TO.N,+3.3V*%
X127750000Y-101200000D03*
%TO.P,C2,2*%
%TO.N,Earth*%
X129650000Y-101200000D03*
%TD*%
D28*
%TO.P,C3,1*%
%TO.N,+3.3V*%
X131557260Y-105424568D03*
%TO.P,C3,2*%
%TO.N,Earth*%
X131557260Y-104784568D03*
%TD*%
D29*
%TO.N,Earth*%
X130600000Y-103500000D03*
X122300000Y-103800000D03*
X131400000Y-103500000D03*
X132070000Y-108250000D03*
X138300000Y-98800000D03*
X122900000Y-103500000D03*
X130000000Y-97800000D03*
X122100000Y-101400000D03*
X133300000Y-104700000D03*
X136900000Y-110100000D03*
X129500000Y-98700000D03*
X129400000Y-102500000D03*
X142000000Y-105300000D03*
X123600000Y-101300000D03*
X128200000Y-108900000D03*
X141800000Y-102300000D03*
X140900000Y-95500000D03*
X131400000Y-102500000D03*
X128562500Y-98300000D03*
X130500000Y-104200000D03*
X136100000Y-103100000D03*
X129000000Y-109000000D03*
X135500000Y-98300000D03*
X138200000Y-109600000D03*
X131200000Y-104100000D03*
X129600000Y-103500000D03*
X141322083Y-101157000D03*
X122800000Y-101500000D03*
X139600000Y-109700000D03*
X137300000Y-109700000D03*
X129400000Y-98000000D03*
X141100000Y-109800000D03*
X130600000Y-109300000D03*
X136300000Y-97600000D03*
X140900000Y-105200000D03*
X130200000Y-102500000D03*
X135400000Y-106000000D03*
X134300000Y-107200000D03*
X136400000Y-101400000D03*
X127800000Y-98100000D03*
X140300000Y-109800000D03*
X138000000Y-95000000D03*
X130800000Y-102900000D03*
%TO.N,+3.3V*%
X127000000Y-98900000D03*
X131500000Y-105900000D03*
X127000000Y-100100000D03*
X138200000Y-101900000D03*
X139972083Y-101157000D03*
X138400000Y-96800000D03*
X127000000Y-99400000D03*
X135000000Y-96100000D03*
X137700000Y-106900000D03*
X136400000Y-108200000D03*
%TO.N,Net-(DD3-XOUT)*%
X136200000Y-103900000D03*
%TO.N,Net-(DD3-XIN)*%
X136212550Y-104499871D03*
%TO.N,+1.1V*%
X135900000Y-102000000D03*
X125400000Y-107000000D03*
%TO.N,Net-(D1-A)*%
X134731619Y-110127841D03*
%TO.N,LVL_LED_1*%
X134600000Y-108300000D03*
%TO.N,Net-(D2-A)*%
X133731619Y-110127841D03*
%TO.N,LVL_LED_2*%
X133744377Y-108364622D03*
%TO.N,Net-(D3-A)*%
X132731619Y-110127841D03*
%TO.N,LVL_LED_3*%
X132397888Y-106433228D03*
%TO.N,Net-(D4-A)*%
X131731619Y-110127841D03*
%TO.N,LVL_LED_4*%
X132782088Y-108354478D03*
%TO.N,STATUS_LED_1*%
X133700000Y-95700000D03*
%TO.N,STATUS_LED_2*%
X132700000Y-95700000D03*
%TO.N,Net-(DD1-LX1)*%
X128706250Y-95893750D03*
X129056250Y-96243750D03*
X128226626Y-95743689D03*
%TO.N,Net-(DD1-LX2)*%
X126700000Y-96600000D03*
X126700000Y-97100000D03*
X126700000Y-96100000D03*
%TO.N,Net-(DD2-IO2)*%
X128500000Y-105400000D03*
%TO.N,Net-(DD2-IO3)*%
X127800000Y-104300000D03*
%TO.N,Net-(DD2-~{CS})*%
X127400000Y-106800000D03*
%TO.N,Net-(DD2-DO(IO1))*%
X128500000Y-106000000D03*
%TO.N,Net-(DD2-DI(IO0))*%
X128500000Y-103200000D03*
%TO.N,Net-(DD2-CLK)*%
X128022835Y-103742912D03*
%TO.N,CLK1*%
X135200000Y-99400000D03*
X141322083Y-100307000D03*
%TO.N,SPH0645_WS*%
X140200000Y-108000000D03*
X139600000Y-98900000D03*
%TO.N,DAT1*%
X135600000Y-99900000D03*
X139972083Y-100307000D03*
%TO.N,USB+*%
X122200000Y-102838500D03*
%TO.N,USB-*%
X122200000Y-102261500D03*
%TO.N,Net-(R11-Pad1)*%
X126900000Y-110000000D03*
%TD*%
D30*
%TO.N,Earth*%
X133300000Y-104700000D02*
X133150000Y-104700000D01*
X133150000Y-104700000D02*
X132900000Y-104950000D01*
D31*
%TO.N,+5V*%
X132116500Y-97966500D02*
X131200000Y-97050000D01*
X127310198Y-102116500D02*
X127058500Y-101864802D01*
X128562500Y-101743802D02*
X128189802Y-102116500D01*
X128562500Y-99550000D02*
X128562500Y-101743802D01*
X127058500Y-100858500D02*
X125250000Y-99050000D01*
X132116500Y-99906500D02*
X132116500Y-97966500D01*
X128189802Y-102116500D02*
X127310198Y-102116500D01*
X132410000Y-100200000D02*
X132116500Y-99906500D01*
X127058500Y-101864802D02*
X127058500Y-100858500D01*
D32*
%TO.N,+3.3V*%
X135000000Y-96100000D02*
X135400000Y-96100000D01*
D30*
X138200000Y-101900000D02*
X136726000Y-100426000D01*
X131500000Y-105900000D02*
X131500000Y-105481828D01*
D32*
X132700000Y-99110000D02*
X133710000Y-99110000D01*
D30*
X138943000Y-101157000D02*
X138200000Y-101900000D01*
D32*
X137700000Y-96100000D02*
X138400000Y-96800000D01*
D30*
X136726000Y-100426000D02*
X135382123Y-100426000D01*
X131500000Y-105481828D02*
X131557260Y-105424568D01*
D32*
X135400000Y-97420000D02*
X133710000Y-99110000D01*
X137700000Y-102400000D02*
X137700000Y-106900000D01*
X136400000Y-108200000D02*
X137700000Y-106900000D01*
D30*
X134066123Y-99110000D02*
X133710000Y-99110000D01*
X139972083Y-101157000D02*
X138943000Y-101157000D01*
X135382123Y-100426000D02*
X134066123Y-99110000D01*
D32*
X135400000Y-96100000D02*
X137700000Y-96100000D01*
X135400000Y-96100000D02*
X135400000Y-97420000D01*
X138200000Y-101900000D02*
X137700000Y-102400000D01*
D31*
%TO.N,Net-(DD3-XOUT)*%
X136058500Y-104041500D02*
X136200000Y-103900000D01*
X132900000Y-103250000D02*
X133691500Y-104041500D01*
X133580000Y-102570000D02*
X132900000Y-103250000D01*
X133580000Y-102000000D02*
X133580000Y-102570000D01*
X133691500Y-104041500D02*
X136058500Y-104041500D01*
%TO.N,Net-(DD3-XIN)*%
X135550129Y-104499871D02*
X136212550Y-104499871D01*
X134320000Y-106200000D02*
X134320000Y-105730000D01*
X134320000Y-105730000D02*
X135100000Y-104950000D01*
X135100000Y-104950000D02*
X135550129Y-104499871D01*
D30*
%TO.N,+1.1V*%
X135700000Y-107600000D02*
X136738550Y-106561450D01*
X125450832Y-110674661D02*
X134998573Y-110674661D01*
X125400000Y-107000000D02*
X125400000Y-110623829D01*
X136738550Y-102838550D02*
X135900000Y-102000000D01*
X135700000Y-109973234D02*
X135700000Y-107600000D01*
X136738550Y-106561450D02*
X136738550Y-102838550D01*
X134998573Y-110674661D02*
X135700000Y-109973234D01*
X125400000Y-110623829D02*
X125450832Y-110674661D01*
D31*
%TO.N,LVL_LED_1*%
X134600000Y-109085924D02*
X134645737Y-109131661D01*
X134600000Y-108300000D02*
X134600000Y-109085924D01*
%TO.N,LVL_LED_2*%
X133744377Y-108364622D02*
X133600000Y-108508999D01*
X133600000Y-109090924D02*
X133625737Y-109116661D01*
X133600000Y-108508999D02*
X133600000Y-109090924D01*
%TO.N,LVL_LED_3*%
X132700000Y-106735340D02*
X132700000Y-107650843D01*
X132397888Y-106433228D02*
X132700000Y-106735340D01*
X133221588Y-108555810D02*
X132645737Y-109131661D01*
X132700000Y-107650843D02*
X133221588Y-108172431D01*
X133221588Y-108172431D02*
X133221588Y-108555810D01*
%TO.N,LVL_LED_4*%
X131824886Y-109116661D02*
X131645737Y-109116661D01*
X132587069Y-108354478D02*
X131824886Y-109116661D01*
X132782088Y-108354478D02*
X132587069Y-108354478D01*
%TO.N,Net-(D5-A)*%
X133710000Y-97170000D02*
X133710000Y-98090000D01*
%TO.N,STATUS_LED_1*%
X133700000Y-95700000D02*
X133700000Y-96190000D01*
X133700000Y-96190000D02*
X133710000Y-96200000D01*
%TO.N,Net-(D6-A)*%
X132710000Y-98080000D02*
X132700000Y-98090000D01*
X132710000Y-97170000D02*
X132710000Y-98080000D01*
%TO.N,STATUS_LED_2*%
X132700000Y-95700000D02*
X132700000Y-96190000D01*
X132700000Y-96190000D02*
X132710000Y-96200000D01*
%TO.N,Net-(DD1-EN)*%
X129912500Y-99900000D02*
X130500000Y-99900000D01*
X130500000Y-99900000D02*
X130800000Y-100200000D01*
X130800000Y-100200000D02*
X131390000Y-100200000D01*
X129562500Y-99550000D02*
X129912500Y-99900000D01*
%TO.N,Net-(DD1-PS)*%
X131390000Y-101200000D02*
X130473500Y-100283500D01*
X129269000Y-100283500D02*
X129062500Y-100077000D01*
X129062500Y-100077000D02*
X129062500Y-99550000D01*
X130473500Y-100283500D02*
X129269000Y-100283500D01*
D32*
%TO.N,Net-(DD1-LX1)*%
X129062500Y-96250000D02*
X129056250Y-96243750D01*
X129056250Y-96243750D02*
X128706250Y-95893750D01*
X128282937Y-95800000D02*
X128226626Y-95743689D01*
X129062500Y-97050000D02*
X129062500Y-96250000D01*
X128706250Y-95893750D02*
X128612500Y-95800000D01*
X128612500Y-95800000D02*
X128282937Y-95800000D01*
%TO.N,Net-(DD1-LX2)*%
X127700000Y-96100000D02*
X126700000Y-96100000D01*
X128062500Y-96462500D02*
X127700000Y-96100000D01*
X128062500Y-97050000D02*
X128062500Y-96462500D01*
X126700000Y-96100000D02*
X126700000Y-97100000D01*
D31*
%TO.N,Net-(DD2-IO2)*%
X127850000Y-105400000D02*
X127700000Y-105550000D01*
X128500000Y-105400000D02*
X127850000Y-105400000D01*
%TO.N,Net-(DD2-IO3)*%
X129033000Y-104400000D02*
X129416500Y-104783500D01*
X127900000Y-104400000D02*
X129033000Y-104400000D01*
X129923000Y-106050000D02*
X130500000Y-106050000D01*
X127800000Y-104300000D02*
X127900000Y-104400000D01*
X129416500Y-105543500D02*
X129923000Y-106050000D01*
X129416500Y-104783500D02*
X129416500Y-105543500D01*
%TO.N,Net-(DD2-~{CS})*%
X127400000Y-106800000D02*
X127450000Y-106800000D01*
X127450000Y-106800000D02*
X127700000Y-106550000D01*
%TO.N,Net-(DD2-DO(IO1))*%
X128500000Y-106000000D02*
X127750000Y-106000000D01*
X127750000Y-106000000D02*
X127700000Y-106050000D01*
%TO.N,Net-(DD2-DI(IO0))*%
X128650000Y-103200000D02*
X128500000Y-103200000D01*
X130500000Y-105050000D02*
X128650000Y-103200000D01*
%TO.N,Net-(DD2-CLK)*%
X128022835Y-103742912D02*
X128079920Y-103799997D01*
X129858500Y-105485500D02*
X129923000Y-105550000D01*
X128799997Y-103799997D02*
X129858500Y-104858500D01*
X129858500Y-104858500D02*
X129858500Y-105485500D01*
X128079920Y-103799997D02*
X128799997Y-103799997D01*
X129923000Y-105550000D02*
X130500000Y-105550000D01*
%TO.N,CLK1*%
X135200000Y-99400000D02*
X140415083Y-99400000D01*
X140415083Y-99400000D02*
X141322083Y-100307000D01*
%TO.N,SPH0645_WS*%
X141761583Y-101339047D02*
X141000630Y-102100000D01*
X141000630Y-102100000D02*
X141000000Y-102100000D01*
X141000000Y-102100000D02*
X140000000Y-103100000D01*
X140000000Y-103100000D02*
X140000000Y-105700000D01*
X141761583Y-100124953D02*
X141761583Y-100300000D01*
X140000000Y-107800000D02*
X140200000Y-108000000D01*
X139600000Y-98900000D02*
X140536630Y-98900000D01*
X140000000Y-105700000D02*
X140000000Y-107800000D01*
X141761583Y-100300000D02*
X141761583Y-101339047D01*
X140536630Y-98900000D02*
X141761583Y-100124953D01*
%TO.N,DAT1*%
X139972083Y-100307000D02*
X139565083Y-99900000D01*
X139565083Y-99900000D02*
X135600000Y-99900000D01*
D33*
%TO.N,USB+*%
X124381450Y-102681450D02*
X122357050Y-102681450D01*
X122357050Y-102681450D02*
X122200000Y-102838500D01*
X125250000Y-103550000D02*
X124381450Y-102681450D01*
%TO.N,USB-*%
X125250000Y-101550000D02*
X124381450Y-102418550D01*
X122357050Y-102418550D02*
X122200000Y-102261500D01*
X124381450Y-102418550D02*
X122357050Y-102418550D01*
D32*
%TO.N,Net-(R11-Pad1)*%
X126900000Y-110000000D02*
X126233863Y-110000000D01*
X126208017Y-110025846D02*
X130358017Y-110025846D01*
X126233863Y-110000000D02*
X126208017Y-110025846D01*
%TD*%
%TA.AperFunction,Conductor*%
%TO.N,Earth*%
G36*
X125905922Y-94518306D02*
G01*
X125924228Y-94562500D01*
X125905922Y-94606694D01*
X124924615Y-95588000D01*
X124924613Y-95588002D01*
X124895893Y-95630985D01*
X124895891Y-95630990D01*
X124877585Y-95675182D01*
X124877585Y-95675183D01*
X124869758Y-95714535D01*
X124867500Y-95725888D01*
X124867500Y-96474088D01*
X124867892Y-96482080D01*
X124868138Y-96487081D01*
X124869338Y-96499268D01*
X124869339Y-96499272D01*
X124871245Y-96512124D01*
X124871247Y-96512134D01*
X124893799Y-96625509D01*
X124895000Y-96637702D01*
X124895000Y-96762296D01*
X124893799Y-96774489D01*
X124871247Y-96887863D01*
X124871245Y-96887873D01*
X124869339Y-96900725D01*
X124869338Y-96900729D01*
X124868138Y-96912916D01*
X124867500Y-96925917D01*
X124867500Y-97119228D01*
X124849194Y-97163422D01*
X124663422Y-97349194D01*
X124619228Y-97367500D01*
X124425909Y-97367500D01*
X124425074Y-97367536D01*
X124414208Y-97368017D01*
X124403234Y-97368989D01*
X124391637Y-97370534D01*
X124391600Y-97370541D01*
X124353586Y-97383514D01*
X124320378Y-97400847D01*
X124287999Y-97424616D01*
X124287998Y-97424616D01*
X123824614Y-97888000D01*
X123795890Y-97930990D01*
X123777585Y-97975183D01*
X123767500Y-98025886D01*
X123767500Y-99374112D01*
X123777585Y-99424816D01*
X123777585Y-99424817D01*
X123782839Y-99437500D01*
X123795815Y-99468827D01*
X123795891Y-99469009D01*
X123795893Y-99469014D01*
X123824613Y-99511997D01*
X123824614Y-99511998D01*
X123988002Y-99675386D01*
X124030988Y-99704108D01*
X124075182Y-99722414D01*
X124125888Y-99732500D01*
X125636497Y-99732500D01*
X125680691Y-99750806D01*
X126849194Y-100919309D01*
X126867500Y-100963503D01*
X126867500Y-101826810D01*
X126867500Y-101902794D01*
X126873361Y-101916944D01*
X126891621Y-101961029D01*
X126896578Y-101972995D01*
X127148276Y-102224693D01*
X127202005Y-102278422D01*
X127272206Y-102307500D01*
X127272208Y-102307500D01*
X128227792Y-102307500D01*
X128227794Y-102307500D01*
X128297995Y-102278422D01*
X128724422Y-101851995D01*
X128753500Y-101781794D01*
X128753500Y-101705810D01*
X128753500Y-100144322D01*
X128771806Y-100100128D01*
X128816000Y-100081822D01*
X128860194Y-100100128D01*
X128873740Y-100120401D01*
X128900578Y-100185193D01*
X129107078Y-100391693D01*
X129160807Y-100445422D01*
X129231008Y-100474500D01*
X130368497Y-100474500D01*
X130412691Y-100492806D01*
X130974194Y-101054309D01*
X130992500Y-101098503D01*
X130992500Y-101410856D01*
X131007729Y-101487422D01*
X131007730Y-101487424D01*
X131065747Y-101574252D01*
X131152575Y-101632269D01*
X131152577Y-101632270D01*
X131229144Y-101647500D01*
X131550856Y-101647500D01*
X131627423Y-101632270D01*
X131714252Y-101574252D01*
X131772270Y-101487423D01*
X131787500Y-101410856D01*
X131787500Y-100989144D01*
X131772270Y-100912577D01*
X131772269Y-100912575D01*
X131714252Y-100825747D01*
X131627424Y-100767730D01*
X131627422Y-100767729D01*
X131595092Y-100761299D01*
X131555318Y-100734723D01*
X131545986Y-100687807D01*
X131572562Y-100648033D01*
X131595092Y-100638701D01*
X131597538Y-100638214D01*
X131627423Y-100632270D01*
X131714252Y-100574252D01*
X131772270Y-100487423D01*
X131787500Y-100410856D01*
X131787500Y-99989144D01*
X131772270Y-99912577D01*
X131761955Y-99897139D01*
X131714252Y-99825747D01*
X131627424Y-99767730D01*
X131627422Y-99767729D01*
X131550856Y-99752500D01*
X131229144Y-99752500D01*
X131152577Y-99767729D01*
X131152575Y-99767730D01*
X131065747Y-99825747D01*
X131007730Y-99912575D01*
X131007729Y-99912577D01*
X130998557Y-99958693D01*
X130988428Y-99973851D01*
X130981452Y-99990694D01*
X130975537Y-99993143D01*
X130971981Y-99998467D01*
X130937258Y-100009000D01*
X130905003Y-100009000D01*
X130860809Y-99990694D01*
X130608194Y-99738079D01*
X130608193Y-99738078D01*
X130594726Y-99732500D01*
X130565748Y-99720497D01*
X130537992Y-99709000D01*
X130537991Y-99709000D01*
X130017503Y-99709000D01*
X129973309Y-99690694D01*
X129858306Y-99575691D01*
X129840000Y-99531497D01*
X129840000Y-99137442D01*
X129835585Y-99115250D01*
X129832602Y-99100252D01*
X129832117Y-99099526D01*
X129804422Y-99058077D01*
X129762248Y-99029898D01*
X129725058Y-99022500D01*
X129399942Y-99022500D01*
X129389888Y-99024500D01*
X129362751Y-99029898D01*
X129362750Y-99029898D01*
X129347223Y-99040274D01*
X129300307Y-99049606D01*
X129277777Y-99040274D01*
X129262248Y-99029898D01*
X129225058Y-99022500D01*
X128899942Y-99022500D01*
X128889888Y-99024500D01*
X128862751Y-99029898D01*
X128862750Y-99029898D01*
X128847223Y-99040274D01*
X128800307Y-99049606D01*
X128777777Y-99040274D01*
X128762248Y-99029898D01*
X128725058Y-99022500D01*
X128399942Y-99022500D01*
X128389888Y-99024500D01*
X128362751Y-99029898D01*
X128362750Y-99029898D01*
X128320577Y-99058077D01*
X128292398Y-99100250D01*
X128292398Y-99100251D01*
X128286369Y-99130562D01*
X128285000Y-99137442D01*
X128285000Y-99962558D01*
X128287256Y-99973898D01*
X128292398Y-99999748D01*
X128292398Y-99999749D01*
X128320577Y-100041922D01*
X128343723Y-100057387D01*
X128370299Y-100097160D01*
X128371500Y-100109354D01*
X128371500Y-100310715D01*
X128369139Y-100316413D01*
X128370388Y-100322454D01*
X128360252Y-100337868D01*
X128353194Y-100354909D01*
X128347495Y-100357269D01*
X128344107Y-100362423D01*
X128326372Y-100366019D01*
X128309000Y-100373215D01*
X128297261Y-100372103D01*
X128297052Y-100372063D01*
X128274112Y-100367500D01*
X128273190Y-100367500D01*
X128269425Y-100366780D01*
X128259441Y-100360215D01*
X128236970Y-100349586D01*
X127949718Y-100062334D01*
X127932090Y-100027320D01*
X127929002Y-100006525D01*
X127926783Y-99991583D01*
X127925031Y-99985816D01*
X127923535Y-99979846D01*
X127918701Y-99955543D01*
X127917500Y-99943350D01*
X127917500Y-99162500D01*
X127907414Y-99111794D01*
X127889108Y-99067600D01*
X127889105Y-99067594D01*
X127889101Y-99067586D01*
X127875535Y-99042742D01*
X127875534Y-99042741D01*
X127875533Y-99042739D01*
X127817400Y-98995892D01*
X127817399Y-98995891D01*
X127796564Y-98987261D01*
X127773206Y-98977586D01*
X127773202Y-98977585D01*
X127722500Y-98967500D01*
X127669068Y-98967500D01*
X127640275Y-98960473D01*
X127637215Y-98958884D01*
X127621513Y-98948393D01*
X127599183Y-98939143D01*
X127599011Y-98939054D01*
X127576541Y-98929764D01*
X127576499Y-98929747D01*
X127571076Y-98927500D01*
X127537255Y-98893671D01*
X127532500Y-98869760D01*
X127532500Y-97742500D01*
X127550806Y-97698306D01*
X127595000Y-97680000D01*
X127725726Y-97680000D01*
X127725740Y-97680000D01*
X127738726Y-97679362D01*
X127750921Y-97678161D01*
X127811551Y-97656467D01*
X127851324Y-97629890D01*
X127873061Y-97611722D01*
X127873419Y-97611036D01*
X127874011Y-97610542D01*
X127876924Y-97606927D01*
X127877642Y-97607506D01*
X127910121Y-97580357D01*
X127928803Y-97577500D01*
X128225057Y-97577500D01*
X128225058Y-97577500D01*
X128262248Y-97570102D01*
X128304422Y-97541922D01*
X128332602Y-97499748D01*
X128340000Y-97462558D01*
X128340000Y-97241102D01*
X128348373Y-97209852D01*
X128367681Y-97176410D01*
X128388029Y-97100473D01*
X128389999Y-97093121D01*
X128390000Y-97093115D01*
X128390000Y-96419384D01*
X128389999Y-96419378D01*
X128370174Y-96345394D01*
X128367681Y-96336090D01*
X128324565Y-96261410D01*
X128297349Y-96234194D01*
X128279043Y-96190000D01*
X128297349Y-96145806D01*
X128341543Y-96127500D01*
X128383075Y-96127500D01*
X128427269Y-96145806D01*
X128475688Y-96194225D01*
X128561312Y-96243660D01*
X128588429Y-96250925D01*
X128616446Y-96267101D01*
X128682897Y-96333552D01*
X128699073Y-96361569D01*
X128706339Y-96388686D01*
X128706340Y-96388689D01*
X128710731Y-96396294D01*
X128726626Y-96423824D01*
X128735000Y-96455074D01*
X128735000Y-97093121D01*
X128757318Y-97176407D01*
X128757318Y-97176409D01*
X128776627Y-97209852D01*
X128785000Y-97241102D01*
X128785000Y-97462557D01*
X128792398Y-97499748D01*
X128792398Y-97499749D01*
X128820577Y-97541922D01*
X128843534Y-97557261D01*
X128862752Y-97570102D01*
X128899942Y-97577500D01*
X128899943Y-97577500D01*
X129225057Y-97577500D01*
X129225058Y-97577500D01*
X129262248Y-97570102D01*
X129262253Y-97570098D01*
X129267935Y-97567746D01*
X129269063Y-97570469D01*
X129305473Y-97563206D01*
X129332530Y-97575847D01*
X129353195Y-97592500D01*
X129367600Y-97604108D01*
X129411794Y-97622414D01*
X129462500Y-97632500D01*
X129751863Y-97632500D01*
X129751869Y-97632500D01*
X129786164Y-97627985D01*
X129817411Y-97619612D01*
X129849366Y-97606375D01*
X129899086Y-97577668D01*
X129914146Y-97571431D01*
X129948249Y-97562293D01*
X129960061Y-97559129D01*
X129976235Y-97557000D01*
X130023767Y-97557000D01*
X130039935Y-97559128D01*
X130085851Y-97571430D01*
X130100917Y-97577672D01*
X130150615Y-97606365D01*
X130150620Y-97606367D01*
X130150633Y-97606375D01*
X130182589Y-97619612D01*
X130182595Y-97619613D01*
X130182596Y-97619614D01*
X130213824Y-97627982D01*
X130213828Y-97627982D01*
X130213837Y-97627985D01*
X130248131Y-97632500D01*
X130531155Y-97632500D01*
X130558604Y-97638850D01*
X130615796Y-97666809D01*
X130689173Y-97677500D01*
X131531496Y-97677499D01*
X131575690Y-97695805D01*
X131907194Y-98027309D01*
X131925500Y-98071503D01*
X131925500Y-99868508D01*
X131925500Y-99944492D01*
X131932983Y-99962557D01*
X131954577Y-100014691D01*
X131954579Y-100014694D01*
X131994194Y-100054309D01*
X132012500Y-100098503D01*
X132012500Y-100410856D01*
X132027729Y-100487422D01*
X132027730Y-100487424D01*
X132085747Y-100574252D01*
X132172575Y-100632269D01*
X132172577Y-100632270D01*
X132249144Y-100647500D01*
X132570856Y-100647500D01*
X132647423Y-100632270D01*
X132734252Y-100574252D01*
X132792270Y-100487423D01*
X132807500Y-100410856D01*
X132807500Y-99989144D01*
X132792270Y-99912577D01*
X132781955Y-99897139D01*
X132734252Y-99825747D01*
X132647424Y-99767730D01*
X132647422Y-99767729D01*
X132570856Y-99752500D01*
X132370000Y-99752500D01*
X132325806Y-99734194D01*
X132307500Y-99690000D01*
X132307500Y-99538989D01*
X132325806Y-99494795D01*
X132370000Y-99476489D01*
X132404724Y-99487023D01*
X132412574Y-99492269D01*
X132412577Y-99492270D01*
X132489144Y-99507500D01*
X132910856Y-99507500D01*
X132987423Y-99492270D01*
X133022235Y-99469009D01*
X133053628Y-99448033D01*
X133088351Y-99437500D01*
X133321649Y-99437500D01*
X133356372Y-99448033D01*
X133422575Y-99492269D01*
X133422577Y-99492270D01*
X133499144Y-99507500D01*
X133920856Y-99507500D01*
X133997423Y-99492270D01*
X133997430Y-99492265D01*
X134000214Y-99491112D01*
X134003247Y-99491111D01*
X134003461Y-99491069D01*
X134003469Y-99491111D01*
X134048050Y-99491105D01*
X134068335Y-99504657D01*
X135211734Y-100648056D01*
X135275012Y-100684589D01*
X135345589Y-100703500D01*
X135418657Y-100703500D01*
X136585167Y-100703500D01*
X136629361Y-100721806D01*
X137728006Y-101820451D01*
X137746312Y-101864645D01*
X137728006Y-101908839D01*
X137437939Y-102198905D01*
X137437936Y-102198909D01*
X137437935Y-102198910D01*
X137425126Y-102221095D01*
X137394818Y-102273590D01*
X137394818Y-102273592D01*
X137372500Y-102356878D01*
X137372500Y-106699498D01*
X137367742Y-106723416D01*
X137366171Y-106727207D01*
X137350090Y-106755062D01*
X137341764Y-106786130D01*
X137340195Y-106789920D01*
X137335838Y-106794276D01*
X137326647Y-106810196D01*
X136310196Y-107826647D01*
X136282180Y-107842823D01*
X136255061Y-107850089D01*
X136255055Y-107850092D01*
X136169441Y-107899522D01*
X136169432Y-107899529D01*
X136099529Y-107969432D01*
X136099524Y-107969438D01*
X136094126Y-107978789D01*
X136056175Y-108007909D01*
X136008749Y-108001664D01*
X135979629Y-107963713D01*
X135977500Y-107947538D01*
X135977500Y-107740831D01*
X135995805Y-107696638D01*
X136903792Y-106788650D01*
X136903797Y-106788647D01*
X136908937Y-106783506D01*
X136908939Y-106783506D01*
X136960606Y-106731839D01*
X136997139Y-106668561D01*
X137016050Y-106597984D01*
X137016050Y-102880128D01*
X137016051Y-102880115D01*
X137016051Y-102802016D01*
X137016050Y-102802010D01*
X136997139Y-102731440D01*
X136997138Y-102731438D01*
X136989670Y-102718503D01*
X136960606Y-102668161D01*
X136293806Y-102001361D01*
X136275500Y-101957167D01*
X136275500Y-101950566D01*
X136275498Y-101950558D01*
X136272034Y-101937632D01*
X136249910Y-101855062D01*
X136200475Y-101769438D01*
X136200473Y-101769436D01*
X136200470Y-101769432D01*
X136130567Y-101699529D01*
X136130563Y-101699526D01*
X136130562Y-101699525D01*
X136083753Y-101672500D01*
X136044937Y-101650089D01*
X136044933Y-101650088D01*
X135949441Y-101624501D01*
X135949436Y-101624500D01*
X135949435Y-101624500D01*
X135850565Y-101624500D01*
X135850564Y-101624500D01*
X135850558Y-101624501D01*
X135755066Y-101650088D01*
X135755062Y-101650089D01*
X135669436Y-101699526D01*
X135669432Y-101699529D01*
X135599529Y-101769432D01*
X135599526Y-101769436D01*
X135550089Y-101855062D01*
X135550088Y-101855066D01*
X135524501Y-101950558D01*
X135524500Y-101950566D01*
X135524500Y-102049433D01*
X135524501Y-102049441D01*
X135550088Y-102144933D01*
X135550089Y-102144937D01*
X135562717Y-102166809D01*
X135594724Y-102222247D01*
X135599526Y-102230563D01*
X135599529Y-102230567D01*
X135669432Y-102300470D01*
X135669436Y-102300473D01*
X135669438Y-102300475D01*
X135755062Y-102349910D01*
X135850565Y-102375500D01*
X135857167Y-102375500D01*
X135901361Y-102393806D01*
X136442744Y-102935189D01*
X136461050Y-102979383D01*
X136461050Y-103508874D01*
X136442744Y-103553068D01*
X136398550Y-103571374D01*
X136367300Y-103563001D01*
X136350096Y-103553068D01*
X136344937Y-103550089D01*
X136344933Y-103550088D01*
X136249441Y-103524501D01*
X136249436Y-103524500D01*
X136249435Y-103524500D01*
X136150565Y-103524500D01*
X136150564Y-103524500D01*
X136150558Y-103524501D01*
X136055066Y-103550088D01*
X136055062Y-103550089D01*
X135969436Y-103599526D01*
X135969432Y-103599529D01*
X135899529Y-103669432D01*
X135899526Y-103669436D01*
X135850089Y-103755062D01*
X135850088Y-103755065D01*
X135836930Y-103804176D01*
X135807810Y-103842126D01*
X135776560Y-103850500D01*
X133796503Y-103850500D01*
X133752309Y-103832194D01*
X133745806Y-103825691D01*
X133727500Y-103781497D01*
X133727500Y-102718503D01*
X133741303Y-102685180D01*
X133738503Y-102683309D01*
X133741917Y-102678197D01*
X133741922Y-102678193D01*
X133771000Y-102607992D01*
X133771000Y-102532008D01*
X133771000Y-102366259D01*
X133789306Y-102322065D01*
X133798772Y-102314295D01*
X133874018Y-102264018D01*
X133924300Y-102188766D01*
X133937500Y-102122406D01*
X133937500Y-101877594D01*
X133924300Y-101811234D01*
X133874018Y-101735982D01*
X133828863Y-101705810D01*
X133798767Y-101685700D01*
X133798765Y-101685699D01*
X133732406Y-101672500D01*
X133427594Y-101672500D01*
X133361234Y-101685699D01*
X133361232Y-101685700D01*
X133285982Y-101735982D01*
X133235700Y-101811232D01*
X133235699Y-101811234D01*
X133222500Y-101877593D01*
X133222500Y-102122406D01*
X133235699Y-102188765D01*
X133235700Y-102188767D01*
X133258071Y-102222247D01*
X133285982Y-102264018D01*
X133361223Y-102314293D01*
X133364779Y-102319615D01*
X133370694Y-102322065D01*
X133377670Y-102338907D01*
X133387799Y-102354066D01*
X133389000Y-102366259D01*
X133389000Y-102460000D01*
X133370694Y-102504194D01*
X133326500Y-102522500D01*
X132187442Y-102522500D01*
X132168847Y-102526199D01*
X132150251Y-102529898D01*
X132150250Y-102529898D01*
X132108077Y-102558077D01*
X132079898Y-102600250D01*
X132079898Y-102600251D01*
X132072500Y-102637442D01*
X132072500Y-103862557D01*
X132079898Y-103899748D01*
X132079898Y-103899749D01*
X132108077Y-103941922D01*
X132119419Y-103949500D01*
X132150252Y-103970102D01*
X132187442Y-103977500D01*
X133331497Y-103977500D01*
X133375691Y-103995806D01*
X133529578Y-104149693D01*
X133583307Y-104203422D01*
X133653508Y-104232500D01*
X134217218Y-104232500D01*
X134261412Y-104250806D01*
X134279718Y-104295000D01*
X134278517Y-104307193D01*
X134272500Y-104337440D01*
X134272500Y-105481497D01*
X134254194Y-105525691D01*
X134158079Y-105621805D01*
X134158077Y-105621808D01*
X134129000Y-105692008D01*
X134129000Y-105833741D01*
X134110694Y-105877935D01*
X134101227Y-105885704D01*
X134025982Y-105935982D01*
X133975700Y-106011232D01*
X133975699Y-106011234D01*
X133962500Y-106077593D01*
X133962500Y-106322406D01*
X133975699Y-106388765D01*
X133975700Y-106388767D01*
X133990274Y-106410578D01*
X134025982Y-106464018D01*
X134067758Y-106491932D01*
X134101232Y-106514299D01*
X134101234Y-106514300D01*
X134167594Y-106527500D01*
X134472406Y-106527500D01*
X134538766Y-106514300D01*
X134614018Y-106464018D01*
X134664300Y-106388766D01*
X134677500Y-106322406D01*
X134677500Y-106077594D01*
X134664300Y-106011234D01*
X134614018Y-105935982D01*
X134539532Y-105886212D01*
X134512957Y-105846439D01*
X134522289Y-105799523D01*
X134530057Y-105790057D01*
X134624309Y-105695806D01*
X134668503Y-105677500D01*
X135812557Y-105677500D01*
X135812558Y-105677500D01*
X135849748Y-105670102D01*
X135891922Y-105641922D01*
X135920102Y-105599748D01*
X135927500Y-105562558D01*
X135927500Y-104877140D01*
X135945806Y-104832946D01*
X135990000Y-104814640D01*
X136021250Y-104823014D01*
X136067606Y-104849778D01*
X136067608Y-104849779D01*
X136067612Y-104849781D01*
X136163115Y-104875371D01*
X136163116Y-104875371D01*
X136261984Y-104875371D01*
X136261985Y-104875371D01*
X136357488Y-104849781D01*
X136367300Y-104844115D01*
X136414724Y-104837871D01*
X136452676Y-104866990D01*
X136461050Y-104898242D01*
X136461050Y-106420617D01*
X136442744Y-106464811D01*
X135477943Y-107429611D01*
X135441411Y-107492888D01*
X135441410Y-107492890D01*
X135422499Y-107563460D01*
X135422499Y-107641565D01*
X135422500Y-107641578D01*
X135422500Y-109832401D01*
X135404194Y-109876595D01*
X135203797Y-110076991D01*
X135188723Y-110083234D01*
X135175779Y-110093167D01*
X135167406Y-110092064D01*
X135159603Y-110095297D01*
X135144530Y-110089053D01*
X135128353Y-110086924D01*
X135123211Y-110080222D01*
X135115409Y-110076991D01*
X135099233Y-110048973D01*
X135095367Y-110034545D01*
X135093237Y-110018369D01*
X135093237Y-109927073D01*
X135077282Y-109846861D01*
X135077281Y-109846859D01*
X135016501Y-109755896D01*
X134925538Y-109695116D01*
X134925536Y-109695115D01*
X134845325Y-109679161D01*
X134842269Y-109678860D01*
X134800082Y-109656310D01*
X134786196Y-109610535D01*
X134808746Y-109568348D01*
X134842269Y-109554462D01*
X134845315Y-109554161D01*
X134845325Y-109554161D01*
X134925537Y-109538206D01*
X135016501Y-109477425D01*
X135077282Y-109386461D01*
X135093237Y-109306249D01*
X135093237Y-108957073D01*
X135077282Y-108876861D01*
X135077281Y-108876859D01*
X135016501Y-108785896D01*
X134925538Y-108725116D01*
X134925536Y-108725115D01*
X134856407Y-108711365D01*
X134816633Y-108684789D01*
X134807301Y-108637873D01*
X134828341Y-108604047D01*
X134827666Y-108603372D01*
X134900470Y-108530567D01*
X134900475Y-108530562D01*
X134949910Y-108444938D01*
X134975500Y-108349435D01*
X134975500Y-108250565D01*
X134949910Y-108155062D01*
X134900475Y-108069438D01*
X134900473Y-108069436D01*
X134900470Y-108069432D01*
X134830567Y-107999529D01*
X134830563Y-107999526D01*
X134830562Y-107999525D01*
X134778450Y-107969438D01*
X134744937Y-107950089D01*
X134744933Y-107950088D01*
X134649441Y-107924501D01*
X134649436Y-107924500D01*
X134649435Y-107924500D01*
X134550565Y-107924500D01*
X134550564Y-107924500D01*
X134550558Y-107924501D01*
X134455066Y-107950088D01*
X134455062Y-107950089D01*
X134369436Y-107999526D01*
X134369432Y-107999529D01*
X134299529Y-108069432D01*
X134299526Y-108069436D01*
X134250089Y-108155062D01*
X134250089Y-108155064D01*
X134223900Y-108252800D01*
X134194779Y-108290750D01*
X134147353Y-108296993D01*
X134109403Y-108267872D01*
X134103162Y-108252806D01*
X134094287Y-108219684D01*
X134044852Y-108134060D01*
X134044850Y-108134058D01*
X134044847Y-108134054D01*
X133974944Y-108064151D01*
X133974940Y-108064148D01*
X133974939Y-108064147D01*
X133932127Y-108039429D01*
X133889314Y-108014711D01*
X133889310Y-108014710D01*
X133793818Y-107989123D01*
X133793813Y-107989122D01*
X133793812Y-107989122D01*
X133694942Y-107989122D01*
X133694941Y-107989122D01*
X133694935Y-107989123D01*
X133599443Y-108014710D01*
X133599439Y-108014711D01*
X133513813Y-108064148D01*
X133513809Y-108064151D01*
X133487788Y-108090172D01*
X133443594Y-108108477D01*
X133399400Y-108090170D01*
X133385852Y-108069893D01*
X133383510Y-108064238D01*
X133329781Y-108010509D01*
X132909306Y-107590034D01*
X132891000Y-107545840D01*
X132891000Y-106697350D01*
X132891000Y-106697348D01*
X132861922Y-106627147D01*
X132808193Y-106573418D01*
X132787080Y-106552305D01*
X132768774Y-106508111D01*
X132770904Y-106491932D01*
X132773388Y-106482663D01*
X132773388Y-106383793D01*
X132747798Y-106288290D01*
X132698363Y-106202666D01*
X132698361Y-106202664D01*
X132698358Y-106202660D01*
X132628455Y-106132757D01*
X132628451Y-106132754D01*
X132628450Y-106132753D01*
X132542828Y-106083319D01*
X132542825Y-106083317D01*
X132542821Y-106083316D01*
X132447329Y-106057729D01*
X132447324Y-106057728D01*
X132447323Y-106057728D01*
X132348453Y-106057728D01*
X132348452Y-106057728D01*
X132348446Y-106057729D01*
X132252954Y-106083316D01*
X132252946Y-106083319D01*
X132226249Y-106098733D01*
X132178823Y-106104976D01*
X132140873Y-106075855D01*
X132132500Y-106044606D01*
X132132500Y-105525888D01*
X132122414Y-105475182D01*
X132104108Y-105430988D01*
X132075386Y-105388002D01*
X131832363Y-105144979D01*
X131824589Y-105135506D01*
X131821278Y-105130550D01*
X131821275Y-105130547D01*
X131746027Y-105080268D01*
X131746025Y-105080267D01*
X131679666Y-105067068D01*
X131434854Y-105067068D01*
X131434851Y-105067068D01*
X131433527Y-105067199D01*
X131427399Y-105067500D01*
X131325888Y-105067500D01*
X131275183Y-105077585D01*
X131275182Y-105077585D01*
X131230990Y-105095891D01*
X131230985Y-105095893D01*
X131188002Y-105124613D01*
X131187998Y-105124616D01*
X131184190Y-105128425D01*
X131139995Y-105146727D01*
X131095802Y-105128417D01*
X131077500Y-105084227D01*
X131077500Y-104887442D01*
X131075545Y-104877615D01*
X131070102Y-104850252D01*
X131069788Y-104849782D01*
X131041922Y-104808077D01*
X130999748Y-104779898D01*
X130962558Y-104772500D01*
X130962557Y-104772500D01*
X130518503Y-104772500D01*
X130474309Y-104754194D01*
X128889106Y-103168991D01*
X128872930Y-103140973D01*
X128849911Y-103055065D01*
X128849910Y-103055062D01*
X128813390Y-102991808D01*
X128800475Y-102969438D01*
X128800473Y-102969436D01*
X128800470Y-102969432D01*
X128730567Y-102899529D01*
X128730563Y-102899526D01*
X128730562Y-102899525D01*
X128687750Y-102874807D01*
X128644937Y-102850089D01*
X128644933Y-102850088D01*
X128549441Y-102824501D01*
X128549436Y-102824500D01*
X128549435Y-102824500D01*
X128450565Y-102824500D01*
X128450564Y-102824500D01*
X128450558Y-102824501D01*
X128355066Y-102850088D01*
X128355062Y-102850089D01*
X128269436Y-102899526D01*
X128269432Y-102899529D01*
X128199529Y-102969432D01*
X128199526Y-102969436D01*
X128150089Y-103055062D01*
X128150088Y-103055066D01*
X128124501Y-103150558D01*
X128124500Y-103150566D01*
X128124500Y-103249433D01*
X128124501Y-103249441D01*
X128135030Y-103288736D01*
X128128787Y-103336162D01*
X128090836Y-103365282D01*
X128074660Y-103367412D01*
X128072270Y-103367412D01*
X127973400Y-103367412D01*
X127973399Y-103367412D01*
X127973393Y-103367413D01*
X127877901Y-103393000D01*
X127877897Y-103393001D01*
X127792271Y-103442438D01*
X127792267Y-103442441D01*
X127722364Y-103512344D01*
X127722361Y-103512348D01*
X127672924Y-103597974D01*
X127672923Y-103597978D01*
X127647336Y-103693470D01*
X127647335Y-103693478D01*
X127647335Y-103792345D01*
X127647336Y-103792353D01*
X127672561Y-103886496D01*
X127666317Y-103933922D01*
X127643441Y-103956798D01*
X127569441Y-103999522D01*
X127569432Y-103999529D01*
X127499529Y-104069432D01*
X127499526Y-104069436D01*
X127450089Y-104155062D01*
X127450088Y-104155066D01*
X127424501Y-104250558D01*
X127424500Y-104250566D01*
X127424500Y-104349433D01*
X127424501Y-104349441D01*
X127450088Y-104444933D01*
X127450089Y-104444937D01*
X127499526Y-104530563D01*
X127499529Y-104530567D01*
X127569432Y-104600470D01*
X127569436Y-104600473D01*
X127569438Y-104600475D01*
X127655062Y-104649910D01*
X127750565Y-104675500D01*
X127750566Y-104675500D01*
X127849434Y-104675500D01*
X127849435Y-104675500D01*
X127944938Y-104649910D01*
X128030562Y-104600475D01*
X128030562Y-104600474D01*
X128032470Y-104599373D01*
X128063720Y-104591000D01*
X128927997Y-104591000D01*
X128972191Y-104609306D01*
X129103691Y-104740806D01*
X129121997Y-104785000D01*
X129103691Y-104829194D01*
X129059497Y-104847500D01*
X128962442Y-104847500D01*
X128948618Y-104850250D01*
X128925251Y-104854898D01*
X128925250Y-104854898D01*
X128883077Y-104883077D01*
X128854898Y-104925250D01*
X128854898Y-104925251D01*
X128847500Y-104962442D01*
X128847500Y-105065574D01*
X128829194Y-105109768D01*
X128785000Y-105128074D01*
X128740806Y-105109768D01*
X128730567Y-105099529D01*
X128730563Y-105099526D01*
X128730562Y-105099525D01*
X128671757Y-105065574D01*
X128644937Y-105050089D01*
X128644933Y-105050088D01*
X128549441Y-105024501D01*
X128549436Y-105024500D01*
X128549435Y-105024500D01*
X128450565Y-105024500D01*
X128450564Y-105024500D01*
X128450558Y-105024501D01*
X128355066Y-105050088D01*
X128355062Y-105050089D01*
X128269436Y-105099526D01*
X128269432Y-105099529D01*
X128199529Y-105169432D01*
X128199524Y-105169438D01*
X128194727Y-105177749D01*
X128156778Y-105206870D01*
X128140600Y-105209000D01*
X127812008Y-105209000D01*
X127741808Y-105238077D01*
X127741805Y-105238079D01*
X127725691Y-105254194D01*
X127681497Y-105272500D01*
X127237442Y-105272500D01*
X127218847Y-105276199D01*
X127200251Y-105279898D01*
X127200250Y-105279898D01*
X127158077Y-105308077D01*
X127129898Y-105350250D01*
X127129898Y-105350251D01*
X127122500Y-105387442D01*
X127122500Y-105712557D01*
X127129898Y-105749748D01*
X127129898Y-105749749D01*
X127140274Y-105765277D01*
X127149606Y-105812193D01*
X127140274Y-105834723D01*
X127129898Y-105850250D01*
X127129898Y-105850251D01*
X127128693Y-105856309D01*
X127122500Y-105887442D01*
X127122500Y-106212558D01*
X127128158Y-106241000D01*
X127129898Y-106249748D01*
X127129898Y-106249749D01*
X127140274Y-106265277D01*
X127149606Y-106312193D01*
X127140274Y-106334723D01*
X127129898Y-106350250D01*
X127129898Y-106350251D01*
X127122500Y-106387442D01*
X127122500Y-106520574D01*
X127104194Y-106564768D01*
X127099529Y-106569432D01*
X127099526Y-106569436D01*
X127050089Y-106655062D01*
X127050088Y-106655066D01*
X127024501Y-106750558D01*
X127024500Y-106750566D01*
X127024500Y-106849433D01*
X127024501Y-106849441D01*
X127050088Y-106944933D01*
X127050089Y-106944937D01*
X127099526Y-107030563D01*
X127099529Y-107030567D01*
X127169432Y-107100470D01*
X127169436Y-107100473D01*
X127169438Y-107100475D01*
X127255062Y-107149910D01*
X127350565Y-107175500D01*
X127350566Y-107175500D01*
X127449434Y-107175500D01*
X127449435Y-107175500D01*
X127544938Y-107149910D01*
X127630562Y-107100475D01*
X127700475Y-107030562D01*
X127749910Y-106944938D01*
X127761373Y-106902158D01*
X127768966Y-106873823D01*
X127798087Y-106835873D01*
X127829336Y-106827500D01*
X128162557Y-106827500D01*
X128162558Y-106827500D01*
X128199748Y-106820102D01*
X128241922Y-106791922D01*
X128270102Y-106749748D01*
X128277500Y-106712558D01*
X128277500Y-106410578D01*
X128295806Y-106366384D01*
X128340000Y-106348078D01*
X128356171Y-106350207D01*
X128416544Y-106366384D01*
X128450560Y-106375499D01*
X128450563Y-106375499D01*
X128450565Y-106375500D01*
X128450566Y-106375500D01*
X128549434Y-106375500D01*
X128549435Y-106375500D01*
X128644938Y-106349910D01*
X128730562Y-106300475D01*
X128731037Y-106300000D01*
X128740806Y-106290232D01*
X128785000Y-106271926D01*
X128829194Y-106290232D01*
X128847500Y-106334426D01*
X128847500Y-106637558D01*
X128853666Y-106668556D01*
X128854898Y-106674748D01*
X128854898Y-106674749D01*
X128883077Y-106716922D01*
X128908185Y-106733698D01*
X128925252Y-106745102D01*
X128962442Y-106752500D01*
X128962443Y-106752500D01*
X129237557Y-106752500D01*
X129237558Y-106752500D01*
X129274748Y-106745102D01*
X129316922Y-106716922D01*
X129345102Y-106674748D01*
X129352500Y-106637558D01*
X129352500Y-105900503D01*
X129370806Y-105856309D01*
X129415000Y-105838003D01*
X129459194Y-105856309D01*
X129814807Y-106211922D01*
X129855683Y-106228853D01*
X129889507Y-106262676D01*
X129889508Y-106310512D01*
X129879480Y-106334723D01*
X129877585Y-106339297D01*
X129867500Y-106389999D01*
X129867500Y-106674112D01*
X129877585Y-106724816D01*
X129877585Y-106724817D01*
X129895891Y-106769009D01*
X129895893Y-106769014D01*
X129922429Y-106808728D01*
X129924614Y-106811998D01*
X129988002Y-106875386D01*
X130030988Y-106904108D01*
X130075182Y-106922414D01*
X130125888Y-106932500D01*
X131464189Y-106932500D01*
X131465804Y-106932500D01*
X131468068Y-106932387D01*
X131468571Y-106932481D01*
X131474276Y-106932400D01*
X131486426Y-106931116D01*
X131487780Y-106931032D01*
X131487990Y-106931104D01*
X131491662Y-106930911D01*
X131578300Y-106930911D01*
X131578370Y-106930911D01*
X131580249Y-106930898D01*
X131580672Y-106930892D01*
X131630366Y-106920456D01*
X131673674Y-106902156D01*
X131715793Y-106873797D01*
X131949426Y-106640162D01*
X131958885Y-106632399D01*
X131990288Y-106611416D01*
X132037204Y-106602085D01*
X132076977Y-106628661D01*
X132079128Y-106632120D01*
X132097413Y-106663790D01*
X132097414Y-106663791D01*
X132097417Y-106663795D01*
X132167320Y-106733698D01*
X132167324Y-106733701D01*
X132167326Y-106733703D01*
X132252950Y-106783138D01*
X132348453Y-106808728D01*
X132348454Y-106808728D01*
X132446500Y-106808728D01*
X132490694Y-106827034D01*
X132509000Y-106871228D01*
X132509000Y-107612851D01*
X132509000Y-107688835D01*
X132513430Y-107699529D01*
X132538077Y-107759034D01*
X132538079Y-107759037D01*
X132676112Y-107897070D01*
X132694418Y-107941264D01*
X132676112Y-107985458D01*
X132648099Y-108001633D01*
X132637153Y-108004566D01*
X132637150Y-108004567D01*
X132551524Y-108054004D01*
X132551520Y-108054007D01*
X132481617Y-108123910D01*
X132481610Y-108123919D01*
X132432180Y-108209533D01*
X132432177Y-108209540D01*
X132425635Y-108233955D01*
X132409459Y-108261971D01*
X131979001Y-108692429D01*
X131934807Y-108710735D01*
X131922614Y-108709534D01*
X131845325Y-108694161D01*
X131446149Y-108694161D01*
X131365937Y-108710115D01*
X131365935Y-108710116D01*
X131274972Y-108770896D01*
X131214192Y-108861859D01*
X131214191Y-108861861D01*
X131198237Y-108942072D01*
X131198237Y-109291249D01*
X131214191Y-109371460D01*
X131214192Y-109371462D01*
X131274972Y-109462425D01*
X131365935Y-109523205D01*
X131365937Y-109523206D01*
X131446149Y-109539161D01*
X131446158Y-109539161D01*
X131449205Y-109539462D01*
X131491392Y-109562012D01*
X131505278Y-109607787D01*
X131482728Y-109649974D01*
X131449205Y-109663860D01*
X131446148Y-109664161D01*
X131365937Y-109680115D01*
X131365935Y-109680116D01*
X131274972Y-109740896D01*
X131214192Y-109831859D01*
X131214191Y-109831861D01*
X131198237Y-109912072D01*
X131198237Y-110261249D01*
X131210414Y-110322468D01*
X131201082Y-110369384D01*
X131161308Y-110395960D01*
X131149115Y-110397161D01*
X131073017Y-110397161D01*
X131028823Y-110378855D01*
X131010517Y-110334661D01*
X131010517Y-109688288D01*
X131003119Y-109651098D01*
X131003118Y-109651096D01*
X130974939Y-109608923D01*
X130932765Y-109580744D01*
X130914004Y-109577012D01*
X130895575Y-109573346D01*
X129820459Y-109573346D01*
X129802030Y-109577012D01*
X129783268Y-109580744D01*
X129783267Y-109580744D01*
X129741094Y-109608923D01*
X129712915Y-109651096D01*
X129710560Y-109656784D01*
X129708306Y-109655850D01*
X129686940Y-109687818D01*
X129652224Y-109698346D01*
X127145267Y-109698346D01*
X127114017Y-109689973D01*
X127069310Y-109664161D01*
X127044937Y-109650089D01*
X127044933Y-109650088D01*
X126949441Y-109624501D01*
X126949436Y-109624500D01*
X126949435Y-109624500D01*
X126866404Y-109624500D01*
X126831575Y-109610073D01*
X126830058Y-109612344D01*
X126782765Y-109580744D01*
X126764004Y-109577012D01*
X126745575Y-109573346D01*
X126745574Y-109573346D01*
X125740000Y-109573346D01*
X125695806Y-109555040D01*
X125677500Y-109510846D01*
X125677500Y-107279425D01*
X125695806Y-107235231D01*
X125700472Y-107230565D01*
X125700475Y-107230562D01*
X125749910Y-107144938D01*
X125775500Y-107049435D01*
X125775500Y-106950565D01*
X125749910Y-106855062D01*
X125700475Y-106769438D01*
X125700473Y-106769436D01*
X125700470Y-106769432D01*
X125630567Y-106699529D01*
X125630563Y-106699526D01*
X125630562Y-106699525D01*
X125576889Y-106668537D01*
X125544937Y-106650089D01*
X125544933Y-106650088D01*
X125449441Y-106624501D01*
X125449436Y-106624500D01*
X125449435Y-106624500D01*
X125350565Y-106624500D01*
X125350564Y-106624500D01*
X125350558Y-106624501D01*
X125255066Y-106650088D01*
X125255062Y-106650089D01*
X125169436Y-106699526D01*
X125169432Y-106699529D01*
X125099529Y-106769432D01*
X125099526Y-106769436D01*
X125050089Y-106855062D01*
X125050088Y-106855066D01*
X125024501Y-106950558D01*
X125024500Y-106950566D01*
X125024500Y-107049433D01*
X125024501Y-107049441D01*
X125050088Y-107144933D01*
X125050089Y-107144937D01*
X125052961Y-107149911D01*
X125086726Y-107208394D01*
X125099526Y-107230563D01*
X125099527Y-107230565D01*
X125104191Y-107235228D01*
X125122500Y-107279421D01*
X125122500Y-110587291D01*
X125122499Y-110587295D01*
X125122499Y-110637499D01*
X125122499Y-110637500D01*
X125104193Y-110681694D01*
X125104192Y-110681694D01*
X125104192Y-110681695D01*
X125078304Y-110692417D01*
X125059999Y-110700000D01*
X121425888Y-110700000D01*
X121381694Y-110681694D01*
X121072647Y-110372647D01*
X121066295Y-110365214D01*
X120512454Y-109603681D01*
X120500500Y-109566920D01*
X120500500Y-104716232D01*
X122149500Y-104716232D01*
X122149500Y-104883767D01*
X122182183Y-105048080D01*
X122246295Y-105202860D01*
X122246296Y-105202862D01*
X122246297Y-105202863D01*
X122339374Y-105342162D01*
X122457838Y-105460626D01*
X122597137Y-105553703D01*
X122597138Y-105553703D01*
X122597139Y-105553704D01*
X122631841Y-105568078D01*
X122751918Y-105617816D01*
X122916233Y-105650500D01*
X123083767Y-105650500D01*
X123248082Y-105617816D01*
X123402863Y-105553703D01*
X123542162Y-105460626D01*
X123660626Y-105342162D01*
X123753703Y-105202863D01*
X123817816Y-105048082D01*
X123850500Y-104883767D01*
X123850500Y-104716233D01*
X123817816Y-104551918D01*
X123753703Y-104397137D01*
X123660626Y-104257838D01*
X123542162Y-104139374D01*
X123402863Y-104046297D01*
X123402862Y-104046296D01*
X123402860Y-104046295D01*
X123248080Y-103982183D01*
X123083767Y-103949500D01*
X122916233Y-103949500D01*
X122751919Y-103982183D01*
X122597139Y-104046295D01*
X122597135Y-104046298D01*
X122457838Y-104139373D01*
X122339373Y-104257838D01*
X122246298Y-104397135D01*
X122246295Y-104397139D01*
X122182183Y-104551919D01*
X122149500Y-104716232D01*
X120500500Y-104716232D01*
X120500500Y-102212066D01*
X121824500Y-102212066D01*
X121824500Y-102310933D01*
X121824501Y-102310941D01*
X121850088Y-102406433D01*
X121850089Y-102406437D01*
X121850090Y-102406438D01*
X121898845Y-102490885D01*
X121899526Y-102492063D01*
X121899529Y-102492067D01*
X121913268Y-102505806D01*
X121931574Y-102550000D01*
X121913268Y-102594194D01*
X121899529Y-102607932D01*
X121899526Y-102607936D01*
X121850089Y-102693562D01*
X121850088Y-102693566D01*
X121824501Y-102789058D01*
X121824500Y-102789066D01*
X121824500Y-102887933D01*
X121824501Y-102887941D01*
X121850088Y-102983433D01*
X121850089Y-102983437D01*
X121854922Y-102991807D01*
X121895452Y-103062008D01*
X121899526Y-103069063D01*
X121899529Y-103069067D01*
X121969432Y-103138970D01*
X121969436Y-103138973D01*
X121969438Y-103138975D01*
X122055062Y-103188410D01*
X122150565Y-103214000D01*
X122150566Y-103214000D01*
X122249434Y-103214000D01*
X122249435Y-103214000D01*
X122344938Y-103188410D01*
X122430562Y-103138975D01*
X122500475Y-103069062D01*
X122549910Y-102983438D01*
X122566045Y-102923223D01*
X122595165Y-102885273D01*
X122626415Y-102876900D01*
X123988854Y-102876900D01*
X124033048Y-102895206D01*
X124051354Y-102939400D01*
X124033048Y-102983594D01*
X124029727Y-102986406D01*
X123938525Y-103077608D01*
X123883190Y-103190798D01*
X123872500Y-103264173D01*
X123872500Y-103835825D01*
X123883190Y-103909201D01*
X123883191Y-103909204D01*
X123938524Y-104022390D01*
X124027610Y-104111476D01*
X124140796Y-104166809D01*
X124214173Y-104177500D01*
X126285826Y-104177499D01*
X126359204Y-104166809D01*
X126472390Y-104111476D01*
X126561476Y-104022390D01*
X126616809Y-103909204D01*
X126627500Y-103835827D01*
X126627499Y-103264174D01*
X126616809Y-103190796D01*
X126561476Y-103077610D01*
X126472390Y-102988524D01*
X126359204Y-102933191D01*
X126359202Y-102933190D01*
X126359201Y-102933190D01*
X126290789Y-102923223D01*
X126285827Y-102922500D01*
X126285826Y-102922500D01*
X124924796Y-102922500D01*
X124880602Y-102904194D01*
X124570601Y-102594193D01*
X124552295Y-102549999D01*
X124570599Y-102505808D01*
X124880602Y-102195804D01*
X124924796Y-102177499D01*
X126285826Y-102177499D01*
X126359204Y-102166809D01*
X126472390Y-102111476D01*
X126561476Y-102022390D01*
X126616809Y-101909204D01*
X126627500Y-101835827D01*
X126627499Y-101264174D01*
X126616809Y-101190796D01*
X126561476Y-101077610D01*
X126472390Y-100988524D01*
X126359204Y-100933191D01*
X126359202Y-100933190D01*
X126359201Y-100933190D01*
X126300913Y-100924698D01*
X126285827Y-100922500D01*
X126285826Y-100922500D01*
X124214174Y-100922500D01*
X124140798Y-100933190D01*
X124140797Y-100933190D01*
X124140796Y-100933191D01*
X124131747Y-100937615D01*
X124027608Y-100988525D01*
X123938525Y-101077608D01*
X123883190Y-101190798D01*
X123872500Y-101264173D01*
X123872500Y-101835825D01*
X123883190Y-101909201D01*
X123883191Y-101909204D01*
X123938524Y-102022390D01*
X123938525Y-102022391D01*
X124031272Y-102115138D01*
X124029592Y-102116817D01*
X124050501Y-102150312D01*
X124039720Y-102196917D01*
X123999142Y-102222247D01*
X123988854Y-102223100D01*
X122626415Y-102223100D01*
X122582221Y-102204794D01*
X122566045Y-102176777D01*
X122555637Y-102137935D01*
X122549910Y-102116562D01*
X122500475Y-102030938D01*
X122500473Y-102030936D01*
X122500470Y-102030932D01*
X122430567Y-101961029D01*
X122430563Y-101961026D01*
X122430562Y-101961025D01*
X122381086Y-101932460D01*
X122344937Y-101911589D01*
X122344933Y-101911588D01*
X122249441Y-101886001D01*
X122249436Y-101886000D01*
X122249435Y-101886000D01*
X122150565Y-101886000D01*
X122150564Y-101886000D01*
X122150558Y-101886001D01*
X122055066Y-101911588D01*
X122055062Y-101911589D01*
X121969436Y-101961026D01*
X121969432Y-101961029D01*
X121899529Y-102030932D01*
X121899526Y-102030936D01*
X121850089Y-102116562D01*
X121850088Y-102116566D01*
X121824501Y-102212058D01*
X121824500Y-102212066D01*
X120500500Y-102212066D01*
X120500500Y-100216232D01*
X122149500Y-100216232D01*
X122149500Y-100383767D01*
X122182183Y-100548080D01*
X122246295Y-100702860D01*
X122246296Y-100702862D01*
X122246297Y-100702863D01*
X122289639Y-100767729D01*
X122315939Y-100807090D01*
X122339374Y-100842162D01*
X122457838Y-100960626D01*
X122597137Y-101053703D01*
X122751918Y-101117816D01*
X122916233Y-101150500D01*
X123083767Y-101150500D01*
X123248082Y-101117816D01*
X123402863Y-101053703D01*
X123542162Y-100960626D01*
X123660626Y-100842162D01*
X123753703Y-100702863D01*
X123817816Y-100548082D01*
X123850500Y-100383767D01*
X123850500Y-100216233D01*
X123817816Y-100051918D01*
X123753703Y-99897137D01*
X123660626Y-99757838D01*
X123542162Y-99639374D01*
X123512993Y-99619884D01*
X123402864Y-99546298D01*
X123402860Y-99546295D01*
X123248080Y-99482183D01*
X123083767Y-99449500D01*
X122916233Y-99449500D01*
X122751919Y-99482183D01*
X122597139Y-99546295D01*
X122597135Y-99546298D01*
X122457838Y-99639373D01*
X122339373Y-99757838D01*
X122246298Y-99897135D01*
X122246295Y-99897139D01*
X122182183Y-100051919D01*
X122149500Y-100216232D01*
X120500500Y-100216232D01*
X120500500Y-95678690D01*
X120511938Y-95642648D01*
X121119873Y-94781406D01*
X121126719Y-94773280D01*
X121381694Y-94518306D01*
X121425888Y-94500000D01*
X125861728Y-94500000D01*
X125905922Y-94518306D01*
G37*
%TD.AperFunction*%
%TA.AperFunction,Conductor*%
G36*
X140818306Y-94518306D02*
G01*
X142481194Y-96181194D01*
X142499500Y-96225388D01*
X142499500Y-109045437D01*
X142484922Y-109085558D01*
X142334882Y-109264771D01*
X142331154Y-109268844D01*
X140918306Y-110681694D01*
X140874112Y-110700000D01*
X135516566Y-110700000D01*
X135472372Y-110681694D01*
X135454066Y-110637500D01*
X135472372Y-110593306D01*
X135482224Y-110583454D01*
X135865242Y-110200434D01*
X135865247Y-110200431D01*
X135870387Y-110195290D01*
X135870389Y-110195290D01*
X135922056Y-110143623D01*
X135958589Y-110080345D01*
X135964760Y-110057314D01*
X135977501Y-110009768D01*
X135977501Y-109936700D01*
X135977501Y-109932876D01*
X135977500Y-109932858D01*
X135977500Y-108452461D01*
X135995806Y-108408267D01*
X136040000Y-108389961D01*
X136084194Y-108408267D01*
X136094127Y-108421212D01*
X136099524Y-108430561D01*
X136099529Y-108430567D01*
X136169432Y-108500470D01*
X136169436Y-108500473D01*
X136169438Y-108500475D01*
X136255062Y-108549910D01*
X136350565Y-108575500D01*
X136350566Y-108575500D01*
X136449434Y-108575500D01*
X136449435Y-108575500D01*
X136544938Y-108549910D01*
X136630562Y-108500475D01*
X136700475Y-108430562D01*
X136749910Y-108344938D01*
X136757176Y-108317817D01*
X136773350Y-108289803D01*
X137789803Y-107273350D01*
X137817817Y-107257176D01*
X137844938Y-107249910D01*
X137930562Y-107200475D01*
X138000475Y-107130562D01*
X138049910Y-107044938D01*
X138075500Y-106949435D01*
X138075500Y-106850565D01*
X138049910Y-106755062D01*
X138037579Y-106733703D01*
X138035872Y-106730746D01*
X138027500Y-106699498D01*
X138027500Y-102561542D01*
X138045805Y-102517349D01*
X138289803Y-102273350D01*
X138317817Y-102257176D01*
X138344938Y-102249910D01*
X138430562Y-102200475D01*
X138500475Y-102130562D01*
X138549910Y-102044938D01*
X138575500Y-101949435D01*
X138575500Y-101942832D01*
X138593806Y-101898638D01*
X139039638Y-101452806D01*
X139083832Y-101434500D01*
X139692657Y-101434500D01*
X139736851Y-101452806D01*
X139741515Y-101457470D01*
X139741519Y-101457473D01*
X139741521Y-101457475D01*
X139827145Y-101506910D01*
X139922648Y-101532500D01*
X139922649Y-101532500D01*
X140021517Y-101532500D01*
X140021518Y-101532500D01*
X140117021Y-101506910D01*
X140202645Y-101457475D01*
X140272558Y-101387562D01*
X140321993Y-101301938D01*
X140347583Y-101206435D01*
X140347583Y-101107565D01*
X140321993Y-101012062D01*
X140272558Y-100926438D01*
X140272556Y-100926436D01*
X140272553Y-100926432D01*
X140202650Y-100856529D01*
X140202646Y-100856526D01*
X140202645Y-100856525D01*
X140149336Y-100825747D01*
X140117020Y-100807089D01*
X140117017Y-100807088D01*
X140062087Y-100792370D01*
X140024136Y-100763250D01*
X140017893Y-100715824D01*
X140047013Y-100677873D01*
X140062087Y-100671630D01*
X140117017Y-100656911D01*
X140117015Y-100656911D01*
X140117021Y-100656910D01*
X140202645Y-100607475D01*
X140272558Y-100537562D01*
X140321993Y-100451938D01*
X140347583Y-100356435D01*
X140347583Y-100257565D01*
X140321993Y-100162062D01*
X140272558Y-100076438D01*
X140272556Y-100076436D01*
X140272553Y-100076432D01*
X140202650Y-100006529D01*
X140202646Y-100006526D01*
X140202645Y-100006525D01*
X140146438Y-99974074D01*
X140117020Y-99957089D01*
X140117016Y-99957088D01*
X140021524Y-99931501D01*
X140021519Y-99931500D01*
X140021518Y-99931500D01*
X139922648Y-99931500D01*
X139922647Y-99931500D01*
X139922638Y-99931501D01*
X139913371Y-99933984D01*
X139865945Y-99927737D01*
X139853005Y-99917807D01*
X139673277Y-99738079D01*
X139673276Y-99738078D01*
X139659809Y-99732500D01*
X139630831Y-99720497D01*
X139608488Y-99711242D01*
X139574664Y-99677418D01*
X139574663Y-99629583D01*
X139608488Y-99595758D01*
X139632406Y-99591000D01*
X140310080Y-99591000D01*
X140354274Y-99609306D01*
X140932890Y-100187922D01*
X140951196Y-100232116D01*
X140949067Y-100248288D01*
X140946584Y-100257555D01*
X140946583Y-100257566D01*
X140946583Y-100356433D01*
X140946584Y-100356441D01*
X140972171Y-100451933D01*
X140972172Y-100451937D01*
X141021609Y-100537563D01*
X141021612Y-100537567D01*
X141091515Y-100607470D01*
X141091519Y-100607473D01*
X141091521Y-100607475D01*
X141177145Y-100656910D01*
X141272648Y-100682500D01*
X141272649Y-100682500D01*
X141371517Y-100682500D01*
X141371518Y-100682500D01*
X141467021Y-100656910D01*
X141476833Y-100651244D01*
X141524257Y-100645000D01*
X141562209Y-100674119D01*
X141570583Y-100705371D01*
X141570583Y-101234043D01*
X141552277Y-101278237D01*
X140898053Y-101932460D01*
X140894536Y-101935347D01*
X139891807Y-102938078D01*
X139838079Y-102991805D01*
X139838077Y-102991808D01*
X139809000Y-103062008D01*
X139809000Y-107837993D01*
X139828608Y-107885333D01*
X139831236Y-107925424D01*
X139824500Y-107950563D01*
X139824500Y-108049433D01*
X139824501Y-108049441D01*
X139850088Y-108144933D01*
X139850089Y-108144937D01*
X139855935Y-108155062D01*
X139893243Y-108219682D01*
X139899526Y-108230563D01*
X139899529Y-108230567D01*
X139969432Y-108300470D01*
X139969436Y-108300473D01*
X139969438Y-108300475D01*
X140055062Y-108349910D01*
X140150565Y-108375500D01*
X140150566Y-108375500D01*
X140249434Y-108375500D01*
X140249435Y-108375500D01*
X140344938Y-108349910D01*
X140430562Y-108300475D01*
X140500475Y-108230562D01*
X140549910Y-108144938D01*
X140575500Y-108049435D01*
X140575500Y-107950565D01*
X140549910Y-107855062D01*
X140500475Y-107769438D01*
X140500473Y-107769436D01*
X140500470Y-107769432D01*
X140430567Y-107699529D01*
X140430563Y-107699526D01*
X140430562Y-107699525D01*
X140377227Y-107668732D01*
X140344937Y-107650089D01*
X140344933Y-107650088D01*
X140249441Y-107624501D01*
X140249436Y-107624500D01*
X140249435Y-107624500D01*
X140249433Y-107624500D01*
X140245376Y-107623966D01*
X140245729Y-107621281D01*
X140209306Y-107606194D01*
X140191000Y-107562000D01*
X140191000Y-107208393D01*
X140634500Y-107208393D01*
X140634500Y-107331606D01*
X140658536Y-107452450D01*
X140658537Y-107452453D01*
X140705687Y-107566283D01*
X140705688Y-107566285D01*
X140705689Y-107566286D01*
X140721557Y-107590034D01*
X140755997Y-107641578D01*
X140774142Y-107668733D01*
X140861267Y-107755858D01*
X140963714Y-107824311D01*
X140963715Y-107824311D01*
X140963716Y-107824312D01*
X141020631Y-107847887D01*
X141077548Y-107871463D01*
X141198394Y-107895500D01*
X141198395Y-107895500D01*
X141321605Y-107895500D01*
X141321606Y-107895500D01*
X141442452Y-107871463D01*
X141556286Y-107824311D01*
X141658733Y-107755858D01*
X141745858Y-107668733D01*
X141814311Y-107566286D01*
X141861463Y-107452452D01*
X141885500Y-107331606D01*
X141885500Y-107208394D01*
X141861463Y-107087548D01*
X141814311Y-106973714D01*
X141745858Y-106871267D01*
X141658733Y-106784142D01*
X141657781Y-106783506D01*
X141580456Y-106731839D01*
X141556286Y-106715689D01*
X141556285Y-106715688D01*
X141556283Y-106715687D01*
X141442453Y-106668537D01*
X141442450Y-106668536D01*
X141321606Y-106644500D01*
X141198394Y-106644500D01*
X141198393Y-106644500D01*
X141077549Y-106668536D01*
X141077546Y-106668537D01*
X140963716Y-106715687D01*
X140963712Y-106715690D01*
X140861267Y-106784141D01*
X140774141Y-106871267D01*
X140705690Y-106973712D01*
X140705687Y-106973716D01*
X140658537Y-107087546D01*
X140658536Y-107087549D01*
X140634500Y-107208393D01*
X140191000Y-107208393D01*
X140191000Y-103205002D01*
X140209305Y-103160809D01*
X141102569Y-102267544D01*
X141106079Y-102264665D01*
X141108821Y-102261922D01*
X141108823Y-102261922D01*
X141923505Y-101447240D01*
X141952583Y-101377039D01*
X141952583Y-101301055D01*
X141952583Y-100262008D01*
X141952583Y-100086961D01*
X141923505Y-100016760D01*
X141869776Y-99963031D01*
X140644823Y-98738078D01*
X140632510Y-98732978D01*
X140619843Y-98727731D01*
X140574622Y-98709000D01*
X140574621Y-98709000D01*
X139959400Y-98709000D01*
X139915206Y-98690694D01*
X139905273Y-98677749D01*
X139900475Y-98669438D01*
X139900470Y-98669432D01*
X139830567Y-98599529D01*
X139830563Y-98599526D01*
X139830562Y-98599525D01*
X139787750Y-98574807D01*
X139744937Y-98550089D01*
X139744933Y-98550088D01*
X139649441Y-98524501D01*
X139649436Y-98524500D01*
X139649435Y-98524500D01*
X139550565Y-98524500D01*
X139550564Y-98524500D01*
X139550558Y-98524501D01*
X139455066Y-98550088D01*
X139455062Y-98550089D01*
X139369436Y-98599526D01*
X139369432Y-98599529D01*
X139299529Y-98669432D01*
X139299526Y-98669436D01*
X139250089Y-98755062D01*
X139250088Y-98755066D01*
X139224501Y-98850558D01*
X139224500Y-98850566D01*
X139224500Y-98949433D01*
X139224501Y-98949441D01*
X139250088Y-99044933D01*
X139250089Y-99044937D01*
X139264656Y-99070167D01*
X139288689Y-99111794D01*
X139290685Y-99115250D01*
X139296928Y-99162676D01*
X139267808Y-99200627D01*
X139236558Y-99209000D01*
X135559400Y-99209000D01*
X135515206Y-99190694D01*
X135505273Y-99177749D01*
X135500475Y-99169438D01*
X135500470Y-99169432D01*
X135430567Y-99099529D01*
X135430563Y-99099526D01*
X135430562Y-99099525D01*
X135387750Y-99074807D01*
X135344937Y-99050089D01*
X135344933Y-99050088D01*
X135249441Y-99024501D01*
X135249436Y-99024500D01*
X135249435Y-99024500D01*
X135150565Y-99024500D01*
X135150564Y-99024500D01*
X135150558Y-99024501D01*
X135055066Y-99050088D01*
X135055062Y-99050089D01*
X134969436Y-99099526D01*
X134969432Y-99099529D01*
X134899529Y-99169432D01*
X134899526Y-99169436D01*
X134850089Y-99255062D01*
X134850089Y-99255064D01*
X134826024Y-99344875D01*
X134796904Y-99382825D01*
X134749477Y-99389068D01*
X134721460Y-99372892D01*
X134360055Y-99011487D01*
X134341749Y-98967293D01*
X134360055Y-98923099D01*
X134955732Y-98327422D01*
X135662065Y-97621090D01*
X135705181Y-97546410D01*
X135727500Y-97463116D01*
X135727500Y-97386993D01*
X140879500Y-97386993D01*
X140879500Y-97518774D01*
X140879501Y-97518782D01*
X140913606Y-97646066D01*
X140913607Y-97646069D01*
X140979501Y-97760199D01*
X140979504Y-97760203D01*
X141072680Y-97853379D01*
X141072684Y-97853382D01*
X141072686Y-97853384D01*
X141170824Y-97910044D01*
X141186814Y-97919276D01*
X141186817Y-97919277D01*
X141236443Y-97932574D01*
X141314108Y-97953384D01*
X141314109Y-97953384D01*
X141445891Y-97953384D01*
X141445892Y-97953384D01*
X141573186Y-97919276D01*
X141687314Y-97853384D01*
X141780500Y-97760198D01*
X141846392Y-97646070D01*
X141880500Y-97518776D01*
X141880500Y-97386992D01*
X141846392Y-97259698D01*
X141780500Y-97145570D01*
X141780498Y-97145568D01*
X141780495Y-97145564D01*
X141687319Y-97052388D01*
X141687315Y-97052385D01*
X141687314Y-97052384D01*
X141630250Y-97019438D01*
X141573185Y-96986491D01*
X141573182Y-96986490D01*
X141445898Y-96952385D01*
X141445893Y-96952384D01*
X141445892Y-96952384D01*
X141314108Y-96952384D01*
X141314107Y-96952384D01*
X141314101Y-96952385D01*
X141186817Y-96986490D01*
X141186814Y-96986491D01*
X141072684Y-97052385D01*
X141072680Y-97052388D01*
X140979504Y-97145564D01*
X140979501Y-97145568D01*
X140913607Y-97259698D01*
X140913606Y-97259701D01*
X140879501Y-97386985D01*
X140879500Y-97386993D01*
X135727500Y-97386993D01*
X135727500Y-97376884D01*
X135727500Y-96490000D01*
X135745806Y-96445806D01*
X135790000Y-96427500D01*
X137538457Y-96427500D01*
X137582651Y-96445806D01*
X138026647Y-96889802D01*
X138042823Y-96917819D01*
X138050089Y-96944935D01*
X138050089Y-96944937D01*
X138099526Y-97030563D01*
X138099529Y-97030567D01*
X138169432Y-97100470D01*
X138169436Y-97100473D01*
X138169438Y-97100475D01*
X138255062Y-97149910D01*
X138350565Y-97175500D01*
X138350566Y-97175500D01*
X138449434Y-97175500D01*
X138449435Y-97175500D01*
X138544938Y-97149910D01*
X138630562Y-97100475D01*
X138700475Y-97030562D01*
X138749910Y-96944938D01*
X138775500Y-96849435D01*
X138775500Y-96750565D01*
X138749910Y-96655062D01*
X138700475Y-96569438D01*
X138700473Y-96569436D01*
X138700470Y-96569432D01*
X138630567Y-96499529D01*
X138630563Y-96499526D01*
X138630562Y-96499525D01*
X138544938Y-96450090D01*
X138544937Y-96450089D01*
X138544936Y-96450089D01*
X138517819Y-96442823D01*
X138489802Y-96426647D01*
X137901094Y-95837939D01*
X137901090Y-95837935D01*
X137826410Y-95794819D01*
X137826409Y-95794818D01*
X137826408Y-95794818D01*
X137743121Y-95772500D01*
X137743116Y-95772500D01*
X135443116Y-95772500D01*
X135200499Y-95772500D01*
X135169249Y-95764126D01*
X135157711Y-95757465D01*
X135144939Y-95750090D01*
X135144933Y-95750088D01*
X135049441Y-95724501D01*
X135049436Y-95724500D01*
X135049435Y-95724500D01*
X134950565Y-95724500D01*
X134950564Y-95724500D01*
X134950558Y-95724501D01*
X134855066Y-95750088D01*
X134855062Y-95750089D01*
X134769436Y-95799526D01*
X134769432Y-95799529D01*
X134699529Y-95869432D01*
X134699526Y-95869436D01*
X134650089Y-95955062D01*
X134650088Y-95955066D01*
X134624501Y-96050558D01*
X134624500Y-96050566D01*
X134624500Y-96149433D01*
X134624501Y-96149441D01*
X134650088Y-96244933D01*
X134650089Y-96244937D01*
X134699526Y-96330563D01*
X134699529Y-96330567D01*
X134769432Y-96400470D01*
X134769436Y-96400473D01*
X134769438Y-96400475D01*
X134855062Y-96449910D01*
X134950565Y-96475500D01*
X134950566Y-96475500D01*
X135010000Y-96475500D01*
X135054194Y-96493806D01*
X135072500Y-96538000D01*
X135072500Y-97258457D01*
X135054194Y-97302651D01*
X134264194Y-98092651D01*
X134220000Y-98110957D01*
X134175806Y-98092651D01*
X134157500Y-98048457D01*
X134157500Y-97929144D01*
X134142270Y-97852577D01*
X134110198Y-97804578D01*
X134084252Y-97765747D01*
X133997423Y-97707730D01*
X133972025Y-97702678D01*
X133932252Y-97676102D01*
X133922920Y-97629185D01*
X133949496Y-97589412D01*
X133972025Y-97580080D01*
X133989800Y-97576545D01*
X134080764Y-97515764D01*
X134141545Y-97424800D01*
X134157500Y-97344588D01*
X134157500Y-96995412D01*
X134141545Y-96915200D01*
X134131873Y-96900725D01*
X134080764Y-96824235D01*
X133989801Y-96763455D01*
X133989799Y-96763454D01*
X133909588Y-96747500D01*
X133906532Y-96747199D01*
X133864345Y-96724649D01*
X133850459Y-96678874D01*
X133873009Y-96636687D01*
X133906532Y-96622801D01*
X133909578Y-96622500D01*
X133909588Y-96622500D01*
X133989800Y-96606545D01*
X134080764Y-96545764D01*
X134141545Y-96454800D01*
X134157500Y-96374588D01*
X134157500Y-96025412D01*
X134141545Y-95945200D01*
X134080764Y-95854236D01*
X134080762Y-95854234D01*
X134080761Y-95854233D01*
X134079980Y-95853452D01*
X134079557Y-95852431D01*
X134077344Y-95849119D01*
X134078002Y-95848678D01*
X134061674Y-95809258D01*
X134063802Y-95793088D01*
X134075500Y-95749435D01*
X134075500Y-95650565D01*
X134049910Y-95555062D01*
X134000475Y-95469438D01*
X134000473Y-95469436D01*
X134000470Y-95469432D01*
X133930567Y-95399529D01*
X133930563Y-95399526D01*
X133930562Y-95399525D01*
X133887750Y-95374807D01*
X133844937Y-95350089D01*
X133844933Y-95350088D01*
X133749441Y-95324501D01*
X133749436Y-95324500D01*
X133749435Y-95324500D01*
X133650565Y-95324500D01*
X133650564Y-95324500D01*
X133650558Y-95324501D01*
X133555066Y-95350088D01*
X133555062Y-95350089D01*
X133469436Y-95399526D01*
X133469432Y-95399529D01*
X133399529Y-95469432D01*
X133399526Y-95469436D01*
X133350089Y-95555062D01*
X133350088Y-95555066D01*
X133324501Y-95650558D01*
X133324500Y-95650566D01*
X133324500Y-95749433D01*
X133324501Y-95749441D01*
X133341431Y-95812626D01*
X133335187Y-95860052D01*
X133333028Y-95863525D01*
X133278455Y-95945198D01*
X133278454Y-95945200D01*
X133271299Y-95981175D01*
X133244723Y-96020949D01*
X133197807Y-96030281D01*
X133158033Y-96003705D01*
X133148701Y-95981175D01*
X133141545Y-95945201D01*
X133141545Y-95945200D01*
X133080764Y-95854236D01*
X133080762Y-95854234D01*
X133080761Y-95854233D01*
X133079980Y-95853452D01*
X133079557Y-95852431D01*
X133077344Y-95849119D01*
X133078002Y-95848678D01*
X133061674Y-95809258D01*
X133063802Y-95793088D01*
X133075500Y-95749435D01*
X133075500Y-95650565D01*
X133049910Y-95555062D01*
X133000475Y-95469438D01*
X133000473Y-95469436D01*
X133000470Y-95469432D01*
X132930567Y-95399529D01*
X132930563Y-95399526D01*
X132930562Y-95399525D01*
X132887750Y-95374807D01*
X132844937Y-95350089D01*
X132844933Y-95350088D01*
X132749441Y-95324501D01*
X132749436Y-95324500D01*
X132749435Y-95324500D01*
X132650565Y-95324500D01*
X132650564Y-95324500D01*
X132650558Y-95324501D01*
X132555066Y-95350088D01*
X132555062Y-95350089D01*
X132469436Y-95399526D01*
X132469432Y-95399529D01*
X132399529Y-95469432D01*
X132399526Y-95469436D01*
X132350089Y-95555062D01*
X132350088Y-95555066D01*
X132324501Y-95650558D01*
X132324500Y-95650566D01*
X132324500Y-95749433D01*
X132324501Y-95749441D01*
X132341431Y-95812626D01*
X132335187Y-95860052D01*
X132333028Y-95863525D01*
X132278455Y-95945198D01*
X132278454Y-95945200D01*
X132262500Y-96025411D01*
X132262500Y-96374588D01*
X132278454Y-96454799D01*
X132278455Y-96454801D01*
X132339235Y-96545764D01*
X132430198Y-96606544D01*
X132430200Y-96606545D01*
X132510412Y-96622500D01*
X132510421Y-96622500D01*
X132513468Y-96622801D01*
X132555655Y-96645351D01*
X132569541Y-96691126D01*
X132546991Y-96733313D01*
X132513468Y-96747199D01*
X132510411Y-96747500D01*
X132430200Y-96763454D01*
X132430198Y-96763455D01*
X132339235Y-96824235D01*
X132278455Y-96915198D01*
X132278454Y-96915200D01*
X132262500Y-96995411D01*
X132262500Y-97344588D01*
X132278454Y-97424799D01*
X132278455Y-97424801D01*
X132339235Y-97515764D01*
X132420556Y-97570101D01*
X132430200Y-97576545D01*
X132442973Y-97579085D01*
X132482746Y-97605659D01*
X132492080Y-97652575D01*
X132465505Y-97692350D01*
X132442974Y-97701683D01*
X132412577Y-97707729D01*
X132325746Y-97765749D01*
X132325742Y-97765753D01*
X132312025Y-97786282D01*
X132272251Y-97812857D01*
X132225335Y-97803522D01*
X132215866Y-97795751D01*
X132047943Y-97627828D01*
X132029637Y-97583634D01*
X132047942Y-97539441D01*
X132075386Y-97511998D01*
X132104108Y-97469012D01*
X132122414Y-97424818D01*
X132132500Y-97374112D01*
X132132500Y-95225888D01*
X132122414Y-95175182D01*
X132104108Y-95130988D01*
X132075386Y-95088002D01*
X131594078Y-94606694D01*
X131575772Y-94562500D01*
X131594078Y-94518306D01*
X131638272Y-94500000D01*
X140774112Y-94500000D01*
X140818306Y-94518306D01*
G37*
%TD.AperFunction*%
%TD*%
%TA.AperFunction,Conductor*%
%TO.N,+3.3V*%
G36*
X131718306Y-105218306D02*
G01*
X131981694Y-105481694D01*
X132000000Y-105525888D01*
X132000000Y-106376318D01*
X131981694Y-106420512D01*
X131622101Y-106780105D01*
X131578793Y-106798405D01*
X131578370Y-106798411D01*
X131479947Y-106798411D01*
X131472395Y-106799913D01*
X131466690Y-106799994D01*
X131466526Y-106799928D01*
X131465804Y-106800000D01*
X130125888Y-106800000D01*
X130081694Y-106781694D01*
X130018306Y-106718306D01*
X130000000Y-106674112D01*
X130000000Y-106390000D01*
X130018306Y-106345806D01*
X130062500Y-106327500D01*
X130962557Y-106327500D01*
X130962558Y-106327500D01*
X130999748Y-106320102D01*
X131041922Y-106291922D01*
X131070102Y-106249748D01*
X131071332Y-106243563D01*
X131088436Y-106211563D01*
X131100000Y-106200000D01*
X131100000Y-105425888D01*
X131118306Y-105381694D01*
X131281694Y-105218306D01*
X131325888Y-105200000D01*
X131674112Y-105200000D01*
X131718306Y-105218306D01*
G37*
%TD.AperFunction*%
%TD*%
%TA.AperFunction,Conductor*%
%TO.N,+3.3V*%
G36*
X127655151Y-96518306D02*
G01*
X127716694Y-96579849D01*
X127735000Y-96624043D01*
X127735000Y-97093121D01*
X127757318Y-97176407D01*
X127757318Y-97176409D01*
X127776627Y-97209852D01*
X127785000Y-97241102D01*
X127785000Y-97462558D01*
X127787038Y-97472806D01*
X127777708Y-97519722D01*
X127737935Y-97546299D01*
X127725740Y-97547500D01*
X127524942Y-97547500D01*
X127506347Y-97551199D01*
X127487751Y-97554898D01*
X127487750Y-97554898D01*
X127440459Y-97586498D01*
X127439354Y-97584844D01*
X127402767Y-97600000D01*
X127400000Y-97600000D01*
X127400000Y-98900000D01*
X127404757Y-98911485D01*
X127400604Y-98913205D01*
X127409436Y-98934527D01*
X127409699Y-98934502D01*
X127409784Y-98935367D01*
X127410000Y-98935888D01*
X127410000Y-98937557D01*
X127417398Y-98974748D01*
X127417398Y-98974749D01*
X127445577Y-99016922D01*
X127473757Y-99035750D01*
X127487752Y-99045102D01*
X127524942Y-99052500D01*
X127526612Y-99052500D01*
X127527132Y-99052715D01*
X127527998Y-99052801D01*
X127527972Y-99053063D01*
X127570806Y-99070806D01*
X127600000Y-99100000D01*
X127722500Y-99100000D01*
X127766694Y-99118306D01*
X127785000Y-99162500D01*
X127785000Y-99962557D01*
X127792398Y-99999748D01*
X127794754Y-100005436D01*
X127792765Y-100006259D01*
X127800000Y-100030084D01*
X127800000Y-100100000D01*
X128200000Y-100500000D01*
X128274112Y-100500000D01*
X128318306Y-100518306D01*
X128353194Y-100553194D01*
X128371500Y-100597388D01*
X128371500Y-101537500D01*
X128353194Y-101581694D01*
X128309000Y-101600000D01*
X127312000Y-101600000D01*
X127267806Y-101581694D01*
X127249500Y-101537500D01*
X127249500Y-100820510D01*
X127249500Y-100820508D01*
X127220422Y-100750307D01*
X127218306Y-100748191D01*
X127217161Y-100745428D01*
X127217003Y-100745191D01*
X127217050Y-100745159D01*
X127200000Y-100703997D01*
X127200000Y-100700000D01*
X126718306Y-100218306D01*
X126700000Y-100174112D01*
X126700000Y-99491361D01*
X126704758Y-99467443D01*
X126722414Y-99424817D01*
X126722414Y-99424816D01*
X126732500Y-99374112D01*
X126732500Y-97527995D01*
X126750806Y-97483801D01*
X126778823Y-97467625D01*
X126844938Y-97449910D01*
X126930562Y-97400475D01*
X127000475Y-97330562D01*
X127049910Y-97244938D01*
X127075500Y-97149435D01*
X127075500Y-97050565D01*
X127049910Y-96955062D01*
X127043997Y-96944821D01*
X127035872Y-96930746D01*
X127027500Y-96899498D01*
X127027500Y-96800499D01*
X127035869Y-96769257D01*
X127036334Y-96768452D01*
X127038758Y-96764252D01*
X127048683Y-96751316D01*
X127281694Y-96518306D01*
X127325888Y-96500000D01*
X127610957Y-96500000D01*
X127655151Y-96518306D01*
G37*
%TD.AperFunction*%
%TD*%
%TA.AperFunction,Conductor*%
%TO.N,+5V*%
G36*
X131318306Y-94518306D02*
G01*
X131981694Y-95181694D01*
X132000000Y-95225888D01*
X132000000Y-97374112D01*
X131981694Y-97418306D01*
X131918306Y-97481694D01*
X131874112Y-97500000D01*
X130248131Y-97500000D01*
X130216883Y-97491627D01*
X130166533Y-97462558D01*
X130144937Y-97450089D01*
X130144933Y-97450088D01*
X130049441Y-97424501D01*
X130049436Y-97424500D01*
X130049435Y-97424500D01*
X129950565Y-97424500D01*
X129950564Y-97424500D01*
X129950558Y-97424501D01*
X129855066Y-97450088D01*
X129855062Y-97450089D01*
X129813300Y-97474200D01*
X129783116Y-97491627D01*
X129751869Y-97500000D01*
X129462500Y-97500000D01*
X129418306Y-97481694D01*
X129400000Y-97437500D01*
X129400000Y-96415990D01*
X129404759Y-96392069D01*
X129406156Y-96388694D01*
X129406160Y-96388688D01*
X129431750Y-96293185D01*
X129431750Y-96194315D01*
X129406160Y-96098812D01*
X129356725Y-96013188D01*
X129356723Y-96013186D01*
X129356720Y-96013182D01*
X129286817Y-95943279D01*
X129286813Y-95943276D01*
X129286812Y-95943275D01*
X129201188Y-95893840D01*
X129201187Y-95893839D01*
X129201186Y-95893839D01*
X129174069Y-95886573D01*
X129146052Y-95870397D01*
X129079601Y-95803946D01*
X129063425Y-95775929D01*
X129056160Y-95748812D01*
X129006725Y-95663188D01*
X129006723Y-95663186D01*
X129006720Y-95663182D01*
X128936817Y-95593279D01*
X128936808Y-95593272D01*
X128851194Y-95543842D01*
X128851186Y-95543839D01*
X128808060Y-95532283D01*
X128792988Y-95526040D01*
X128738912Y-95494820D01*
X128738907Y-95494818D01*
X128655621Y-95472500D01*
X128655616Y-95472500D01*
X128512363Y-95472500D01*
X128468169Y-95454194D01*
X128457193Y-95443218D01*
X128457189Y-95443215D01*
X128457188Y-95443214D01*
X128414376Y-95418496D01*
X128371563Y-95393778D01*
X128371559Y-95393777D01*
X128276067Y-95368190D01*
X128276062Y-95368189D01*
X128276061Y-95368189D01*
X128177191Y-95368189D01*
X128177190Y-95368189D01*
X128177184Y-95368190D01*
X128081692Y-95393777D01*
X128081688Y-95393778D01*
X127996062Y-95443215D01*
X127985084Y-95454194D01*
X127957583Y-95481694D01*
X127913391Y-95500000D01*
X126700000Y-95500000D01*
X126400000Y-95800000D01*
X126400000Y-95851868D01*
X126391627Y-95883118D01*
X126350089Y-95955062D01*
X126350088Y-95955066D01*
X126324501Y-96050558D01*
X126324500Y-96050566D01*
X126324500Y-96149433D01*
X126324501Y-96149441D01*
X126350088Y-96244933D01*
X126350090Y-96244939D01*
X126356049Y-96255260D01*
X126364126Y-96269249D01*
X126372500Y-96300499D01*
X126372500Y-96399498D01*
X126364128Y-96430746D01*
X126350090Y-96455061D01*
X126350088Y-96455066D01*
X126324501Y-96550558D01*
X126324500Y-96550566D01*
X126324500Y-96649433D01*
X126324501Y-96649441D01*
X126350088Y-96744933D01*
X126350090Y-96744939D01*
X126351569Y-96747500D01*
X126364126Y-96769249D01*
X126372500Y-96800499D01*
X126372500Y-96899498D01*
X126364128Y-96930746D01*
X126350090Y-96955061D01*
X126350088Y-96955066D01*
X126324501Y-97050558D01*
X126324500Y-97050566D01*
X126324500Y-97149433D01*
X126324501Y-97149441D01*
X126350088Y-97244933D01*
X126350089Y-97244937D01*
X126399526Y-97330563D01*
X126399529Y-97330567D01*
X126469432Y-97400470D01*
X126469436Y-97400473D01*
X126469438Y-97400475D01*
X126535749Y-97438759D01*
X126548691Y-97448691D01*
X126581694Y-97481694D01*
X126600000Y-97525888D01*
X126600000Y-99374112D01*
X126581694Y-99418306D01*
X126418306Y-99581694D01*
X126374112Y-99600000D01*
X124125888Y-99600000D01*
X124081694Y-99581694D01*
X123918306Y-99418306D01*
X123900000Y-99374112D01*
X123900000Y-98025887D01*
X123918305Y-97981694D01*
X124381691Y-97518308D01*
X124414894Y-97500978D01*
X124414922Y-97500973D01*
X124425909Y-97500000D01*
X124700000Y-97500000D01*
X125000000Y-97200000D01*
X125000000Y-96925910D01*
X125001201Y-96913717D01*
X125004029Y-96899498D01*
X125027500Y-96781502D01*
X125027500Y-96618498D01*
X125001201Y-96486281D01*
X125000000Y-96474088D01*
X125000000Y-95725888D01*
X125018306Y-95681694D01*
X126181694Y-94518306D01*
X126225888Y-94500000D01*
X131274112Y-94500000D01*
X131318306Y-94518306D01*
G37*
%TD.AperFunction*%
%TD*%
M02*
