M48
; DRILL file {KiCad 9.0.0} date 2025-08-25T21:43:12+0300
; FORMAT={-:-/ absolute / inch / decimal}
; #@! TF.CreationDate,2025-08-25T21:43:12+03:00
; #@! TF.GenerationSoftware,Kicad,Pcbnew,9.0.0
; #@! TF.FileFunction,Plated,1,2,PTH
FMAT,2
INCH
; #@! TA.AperFunction,Plated,PTH,ViaDrill
T1C0.0098
; #@! TA.AperFunction,Plated,PTH,ComponentDrill
T2C0.0315
; #@! TA.AperFunction,Plated,PTH,ComponentDrill
T3C0.0354
%
G90
G05
T1
X4.8071Y-3.9921
X4.811Y-4.026
X4.811Y-4.0488
X4.815Y-4.0866
X4.8346Y-3.9961
X4.8386Y-4.0748
X4.8661Y-3.9882
X4.937Y-4.2126
X4.9882Y-3.7835
X4.9882Y-3.8031
X4.9882Y-3.8228
X4.9961Y-4.3307
X5.0Y-3.8937
X5.0Y-3.9134
X5.0Y-3.9409
X5.0157Y-4.2047
X5.0315Y-3.8622
X5.0315Y-4.1063
X5.0403Y-4.0844
X5.0472Y-4.2874
X5.0483Y-3.7694
X5.0591Y-4.063
X5.0591Y-4.1496
X5.0591Y-4.1732
X5.0615Y-3.8701
X5.0672Y-3.7753
X5.0787Y-4.2913
X5.081Y-3.7891
X5.0945Y-3.8583
X5.0945Y-4.0354
X5.0984Y-3.8858
X5.1024Y-4.0748
X5.1181Y-3.8504
X5.126Y-4.0354
X5.1378Y-4.1024
X5.1417Y-4.0748
X5.1417Y-4.3031
X5.1496Y-4.0512
X5.1654Y-4.0984
X5.1732Y-4.0354
X5.1732Y-4.0748
X5.1772Y-4.1693
X5.1863Y-4.3357
X5.1996Y-4.2618
X5.2125Y-4.1903
X5.2244Y-3.7677
X5.2257Y-4.3357
X5.2276Y-4.2659
X5.248Y-4.122
X5.2638Y-3.7677
X5.265Y-4.3357
X5.2655Y-4.2663
X5.2874Y-4.2205
X5.2992Y-4.2638
X5.3044Y-4.3357
X5.315Y-3.7835
X5.3228Y-3.9134
X5.3307Y-4.1732
X5.3346Y-3.8701
X5.3386Y-3.9331
X5.3504Y-4.0157
X5.3583Y-4.0591
X5.3622Y-4.0906
X5.3627Y-4.1142
X5.3661Y-3.8425
X5.3701Y-3.9921
X5.3701Y-4.2598
X5.3898Y-4.3346
X5.4055Y-4.3189
X5.4213Y-4.2087
X5.4331Y-3.7402
X5.4409Y-4.0118
X5.4409Y-4.315
X5.4449Y-3.8898
X5.4488Y-3.811
X5.4961Y-3.8937
X5.4961Y-4.3189
X5.5107Y-3.9491
X5.5107Y-3.9826
X5.5197Y-4.252
X5.5236Y-4.3228
X5.5472Y-3.7598
X5.5472Y-4.1417
X5.5551Y-4.3228
X5.5639Y-3.9491
X5.5639Y-3.9826
X5.5827Y-4.0276
X5.5906Y-4.1457
T2
X5.5657Y-4.0854
T3
G00X4.874Y-3.8071
M15
G01X4.811Y-3.8071
M16
G05
G00X4.874Y-4.2677
M15
G01X4.811Y-4.2677
M16
G05
M30
