%TF.GenerationSoftware,KiCad,Pcbnew,9.0.0*%
%TF.CreationDate,2025-08-25T21:43:05+03:00*%
%TF.ProjectId,Daredevil-mini,44617265-6465-4766-996c-2d6d696e692e,rev?*%
%TF.SameCoordinates,Original*%
%TF.FileFunction,Soldermask,Top*%
%TF.FilePolarity,Negative*%
%FSLAX46Y46*%
G04 Gerber Fmt 4.6, Leading zero omitted, Abs format (unit mm)*
G04 Created by KiCad (PCBNEW 9.0.0) date 2025-08-25 21:43:05*
%MOMM*%
%LPD*%
G01*
G04 APERTURE LIST*
G04 Aperture macros list*
%AMRoundRect*
0 Rectangle with rounded corners*
0 $1 Rounding radius*
0 $2 $3 $4 $5 $6 $7 $8 $9 X,Y pos of 4 corners*
0 Add a 4 corners polygon primitive as box body*
4,1,4,$2,$3,$4,$5,$6,$7,$8,$9,$2,$3,0*
0 Add four circle primitives for the rounded corners*
1,1,$1+$1,$2,$3*
1,1,$1+$1,$4,$5*
1,1,$1+$1,$6,$7*
1,1,$1+$1,$8,$9*
0 Add four rect primitives between the rounded corners*
20,1,$1+$1,$2,$3,$4,$5,0*
20,1,$1+$1,$4,$5,$6,$7,0*
20,1,$1+$1,$6,$7,$8,$9,0*
20,1,$1+$1,$8,$9,$2,$3,0*%
%AMFreePoly0*
4,1,64,0.235711,1.439036,0.382774,1.378120,0.515127,1.289684,0.627684,1.177127,0.716120,1.044774,0.777036,0.897711,0.808090,0.741590,0.808090,0.582410,0.777036,0.426289,0.716120,0.279226,0.627684,0.146873,0.515127,0.034316,0.382774,-0.054120,0.235711,-0.115036,0.079590,-0.146090,0.031746,-0.146090,0.029264,-0.147118,-0.029264,-0.147118,-0.031746,-0.146090,-0.079590,-0.146090,
-0.235711,-0.115036,-0.382774,-0.054120,-0.515127,0.034316,-0.627684,0.146873,-0.716120,0.279226,-0.777036,0.426289,-0.808090,0.582410,-0.808090,0.729406,-0.512000,0.729406,-0.512000,0.594594,-0.477108,0.464375,-0.409702,0.347625,-0.314375,0.252298,-0.197625,0.184892,-0.067406,0.150000,0.067406,0.150000,0.197625,0.184892,0.314375,0.252298,0.409702,0.347625,0.477108,0.464375,
0.512000,0.594594,0.512000,0.729406,0.477108,0.859625,0.409702,0.976375,0.314375,1.071702,0.197625,1.139108,0.067406,1.174000,-0.067406,1.174000,-0.197625,1.139108,-0.314375,1.071702,-0.409702,0.976375,-0.477108,0.859625,-0.512000,0.729406,-0.808090,0.729406,-0.808090,0.741590,-0.777036,0.897711,-0.716120,1.044774,-0.627684,1.177127,-0.515127,1.289684,-0.382774,1.378120,
-0.235711,1.439036,-0.079590,1.470090,0.079590,1.470090,0.235711,1.439036,0.235711,1.439036,$1*%
%AMFreePoly1*
4,1,58,2.459954,0.232520,2.497008,0.181520,2.502000,0.150000,2.502000,-3.650000,2.482520,-3.709954,2.431520,-3.747008,2.400000,-3.752000,-0.400000,-3.752000,-0.459954,-3.732520,-0.497008,-3.681520,-0.502000,-3.650000,-0.502000,-0.326250,0.052000,-0.326250,0.052000,-3.173750,0.052809,-3.179413,0.053340,-3.182600,0.055330,-3.186580,0.058746,-3.191253,0.063419,-3.194669,0.067399,-3.196659,
0.070587,-3.197191,0.076250,-3.198000,1.923750,-3.198000,1.929413,-3.197191,1.932600,-3.196659,1.936580,-3.194669,1.941253,-3.191253,1.944669,-3.186580,1.946659,-3.182600,1.947191,-3.179413,1.948000,-3.173750,1.948000,-0.326250,1.947191,-0.320587,1.946659,-0.317399,1.944669,-0.313419,1.941253,-0.308746,1.936580,-0.305330,1.932600,-0.303340,1.929413,-0.302809,1.923750,-0.302000,
0.076250,-0.302000,0.070587,-0.302809,0.067399,-0.303340,0.063419,-0.305330,0.058746,-0.308746,0.055330,-0.313419,0.053340,-0.317399,0.052809,-0.320587,0.052000,-0.326250,-0.502000,-0.326250,-0.502000,-0.150000,-0.482520,-0.090046,-0.472125,-0.077875,-0.172125,0.222125,-0.115956,0.250744,-0.100000,0.252000,2.400000,0.252000,2.459954,0.232520,2.459954,0.232520,$1*%
G04 Aperture macros list end*
%ADD10C,0.000000*%
%ADD11C,0.880000*%
%ADD12RoundRect,0.100000X-0.130000X-0.100000X0.130000X-0.100000X0.130000X0.100000X-0.130000X0.100000X0*%
%ADD13C,0.500000*%
%ADD14RoundRect,0.130500X0.130500X-0.169500X0.130500X0.169500X-0.130500X0.169500X-0.130500X-0.169500X0*%
%ADD15FreePoly0,180.000000*%
%ADD16RoundRect,0.100000X-0.100000X0.130000X-0.100000X-0.130000X0.100000X-0.130000X0.100000X0.130000X0*%
%ADD17RoundRect,0.100000X0.100000X-0.130000X0.100000X0.130000X-0.100000X0.130000X-0.100000X-0.130000X0*%
%ADD18R,0.530000X0.730000*%
%ADD19C,1.640488*%
%ADD20RoundRect,0.135000X0.185000X-0.135000X0.185000X0.135000X-0.185000X0.135000X-0.185000X-0.135000X0*%
%ADD21RoundRect,0.135000X-0.185000X0.135000X-0.185000X-0.135000X0.185000X-0.135000X0.185000X0.135000X0*%
%ADD22RoundRect,0.140000X0.170000X-0.140000X0.170000X0.140000X-0.170000X0.140000X-0.170000X-0.140000X0*%
%ADD23C,0.600000*%
%ADD24RoundRect,0.100000X0.130000X0.100000X-0.130000X0.100000X-0.130000X-0.100000X0.130000X-0.100000X0*%
%ADD25RoundRect,0.050000X0.050000X-0.387500X0.050000X0.387500X-0.050000X0.387500X-0.050000X-0.387500X0*%
%ADD26RoundRect,0.050000X0.387500X-0.050000X0.387500X0.050000X-0.387500X0.050000X-0.387500X-0.050000X0*%
%ADD27R,3.200000X3.200000*%
%ADD28RoundRect,0.140000X0.140000X0.170000X-0.140000X0.170000X-0.140000X-0.170000X0.140000X-0.170000X0*%
%ADD29RoundRect,0.250000X0.375000X0.850000X-0.375000X0.850000X-0.375000X-0.850000X0.375000X-0.850000X0*%
%ADD30RoundRect,0.102000X0.475000X-0.225000X0.475000X0.225000X-0.475000X0.225000X-0.475000X-0.225000X0*%
%ADD31FreePoly1,90.000000*%
%ADD32C,0.750000*%
%ADD33RoundRect,0.102000X0.200000X0.300000X-0.200000X0.300000X-0.200000X-0.300000X0.200000X-0.300000X0*%
%ADD34C,1.200000*%
%ADD35O,3.800000X1.400000*%
G04 APERTURE END LIST*
D10*
%TO.C,MK2*%
G36*
X142547083Y-102132000D02*
G01*
X139047083Y-102132000D01*
X138747083Y-101832000D01*
X138747083Y-99800000D01*
X139097083Y-99800000D01*
X139097083Y-99807000D01*
X139097083Y-101657000D01*
X139097083Y-101664000D01*
X139098083Y-101670000D01*
X139099083Y-101677000D01*
X139100083Y-101683000D01*
X139101083Y-101689000D01*
X139103083Y-101696000D01*
X139105083Y-101702000D01*
X139108083Y-101708000D01*
X139111083Y-101714000D01*
X139114083Y-101720000D01*
X139117083Y-101725000D01*
X139121083Y-101730000D01*
X139125083Y-101736000D01*
X139129083Y-101741000D01*
X139134083Y-101745000D01*
X139138083Y-101750000D01*
X139143083Y-101754000D01*
X139149083Y-101758000D01*
X139154083Y-101762000D01*
X139159083Y-101765000D01*
X139165083Y-101768000D01*
X139171083Y-101771000D01*
X139177083Y-101774000D01*
X139183083Y-101776000D01*
X139190083Y-101778000D01*
X139196083Y-101779000D01*
X139202083Y-101780000D01*
X139209083Y-101781000D01*
X139215083Y-101782000D01*
X139222083Y-101782000D01*
X142072083Y-101782000D01*
X142079083Y-101782000D01*
X142085083Y-101781000D01*
X142092083Y-101780000D01*
X142098083Y-101779000D01*
X142104083Y-101778000D01*
X142111083Y-101776000D01*
X142117083Y-101774000D01*
X142123083Y-101771000D01*
X142129083Y-101768000D01*
X142135083Y-101765000D01*
X142140083Y-101762000D01*
X142145083Y-101758000D01*
X142151083Y-101754000D01*
X142156083Y-101750000D01*
X142160083Y-101745000D01*
X142165083Y-101741000D01*
X142169083Y-101736000D01*
X142173083Y-101730000D01*
X142177083Y-101725000D01*
X142180083Y-101720000D01*
X142183083Y-101714000D01*
X142186083Y-101708000D01*
X142189083Y-101702000D01*
X142191083Y-101696000D01*
X142193083Y-101689000D01*
X142194083Y-101683000D01*
X142195083Y-101677000D01*
X142196083Y-101670000D01*
X142197083Y-101664000D01*
X142197083Y-101657000D01*
X142197083Y-100732000D01*
X142197083Y-99807000D01*
X142197083Y-99800000D01*
X142196083Y-99794000D01*
X142195083Y-99787000D01*
X142194083Y-99781000D01*
X142193083Y-99775000D01*
X142191083Y-99768000D01*
X142189083Y-99762000D01*
X142186083Y-99756000D01*
X142183083Y-99750000D01*
X142180083Y-99744000D01*
X142177083Y-99739000D01*
X142173083Y-99734000D01*
X142169083Y-99728000D01*
X142165083Y-99723000D01*
X142160083Y-99719000D01*
X142156083Y-99714000D01*
X142151083Y-99710000D01*
X142145083Y-99706000D01*
X142140083Y-99702000D01*
X142135083Y-99699000D01*
X142129083Y-99696000D01*
X142123083Y-99693000D01*
X142117083Y-99690000D01*
X142111083Y-99688000D01*
X142104083Y-99686000D01*
X142098083Y-99685000D01*
X142092083Y-99684000D01*
X142085083Y-99683000D01*
X142079083Y-99682000D01*
X142072083Y-99682000D01*
X139222083Y-99682000D01*
X139215083Y-99682000D01*
X139209083Y-99683000D01*
X139202083Y-99684000D01*
X139196083Y-99685000D01*
X139190083Y-99686000D01*
X139183083Y-99688000D01*
X139177083Y-99690000D01*
X139171083Y-99693000D01*
X139165083Y-99696000D01*
X139159083Y-99699000D01*
X139154083Y-99702000D01*
X139149083Y-99706000D01*
X139143083Y-99710000D01*
X139138083Y-99714000D01*
X139134083Y-99719000D01*
X139129083Y-99723000D01*
X139125083Y-99728000D01*
X139121083Y-99734000D01*
X139117083Y-99739000D01*
X139114083Y-99744000D01*
X139111083Y-99750000D01*
X139108083Y-99756000D01*
X139105083Y-99762000D01*
X139103083Y-99768000D01*
X139101083Y-99775000D01*
X139100083Y-99781000D01*
X139099083Y-99787000D01*
X139098083Y-99794000D01*
X139097083Y-99800000D01*
X138747083Y-99800000D01*
X138747083Y-99332000D01*
X142547083Y-99332000D01*
X142547083Y-100732000D01*
X142547083Y-102132000D01*
G37*
D11*
%TO.C,MK4*%
X141700000Y-107270000D02*
G75*
G02*
X140820000Y-107270000I-440000J0D01*
G01*
X140820000Y-107270000D02*
G75*
G02*
X141700000Y-107270000I440000J0D01*
G01*
%TD*%
D12*
%TO.C,C7*%
X135060000Y-102700000D03*
X135700000Y-102700000D03*
%TD*%
D13*
%TO.C,MK3*%
X141380000Y-97452884D03*
D14*
X139306000Y-98352884D03*
X140128000Y-98352884D03*
D15*
X141380000Y-96790884D03*
D14*
X140128000Y-96552884D03*
X139306000Y-96552884D03*
X139306000Y-97452884D03*
%TD*%
D16*
%TO.C,C16*%
X127900000Y-108280000D03*
X127900000Y-108920000D03*
%TD*%
D17*
%TO.C,C15*%
X131500000Y-99120000D03*
X131500000Y-98480000D03*
%TD*%
D18*
%TO.C,MK1*%
X139290500Y-104608000D03*
X140112500Y-104608000D03*
D19*
X141370000Y-103770000D03*
D18*
X140112500Y-102932000D03*
X139290500Y-102932000D03*
%TD*%
D20*
%TO.C,R11*%
X126900000Y-109300000D03*
X126900000Y-108280000D03*
%TD*%
D21*
%TO.C,R6*%
X133731619Y-109107841D03*
X133731619Y-110127841D03*
%TD*%
D22*
%TO.C,C8*%
X125900000Y-100480000D03*
X125900000Y-99520000D03*
%TD*%
D12*
%TO.C,C10*%
X135100000Y-103400000D03*
X135740000Y-103400000D03*
%TD*%
D23*
%TO.C,TP1*%
X135200000Y-101800000D03*
%TD*%
D12*
%TO.C,C11*%
X131430000Y-108250000D03*
X132070000Y-108250000D03*
%TD*%
D17*
%TO.C,C13*%
X128900000Y-99120000D03*
X128900000Y-98480000D03*
%TD*%
D12*
%TO.C,R4*%
X124480000Y-101700000D03*
X125120000Y-101700000D03*
%TD*%
D24*
%TO.C,C18*%
X137955784Y-103128783D03*
X137315784Y-103128783D03*
%TD*%
D25*
%TO.C,DD3*%
X127937500Y-107137500D03*
X128337500Y-107137500D03*
X128737500Y-107137500D03*
X129137500Y-107137500D03*
X129537500Y-107137500D03*
X129937500Y-107137500D03*
X130337500Y-107137500D03*
X130737500Y-107137500D03*
X131137500Y-107137500D03*
X131537500Y-107137500D03*
X131937500Y-107137500D03*
X132337500Y-107137500D03*
X132737500Y-107137500D03*
X133137500Y-107137500D03*
D26*
X133975000Y-106300000D03*
X133975000Y-105900000D03*
X133975000Y-105500000D03*
X133975000Y-105100000D03*
X133975000Y-104700000D03*
X133975000Y-104300000D03*
X133975000Y-103900000D03*
X133975000Y-103500000D03*
X133975000Y-103100000D03*
X133975000Y-102700000D03*
X133975000Y-102300000D03*
X133975000Y-101900000D03*
X133975000Y-101500000D03*
X133975000Y-101100000D03*
D25*
X133137500Y-100262500D03*
X132737500Y-100262500D03*
X132337500Y-100262500D03*
X131937500Y-100262500D03*
X131537500Y-100262500D03*
X131137500Y-100262500D03*
X130737500Y-100262500D03*
X130337500Y-100262500D03*
X129937500Y-100262500D03*
X129537500Y-100262500D03*
X129137500Y-100262500D03*
X128737500Y-100262500D03*
X128337500Y-100262500D03*
X127937500Y-100262500D03*
D26*
X127100000Y-101100000D03*
X127100000Y-101500000D03*
X127100000Y-101900000D03*
X127100000Y-102300000D03*
X127100000Y-102700000D03*
X127100000Y-103100000D03*
X127100000Y-103500000D03*
X127100000Y-103900000D03*
X127100000Y-104300000D03*
X127100000Y-104700000D03*
X127100000Y-105100000D03*
X127100000Y-105500000D03*
X127100000Y-105900000D03*
X127100000Y-106300000D03*
D27*
X130537500Y-103700000D03*
%TD*%
D24*
%TO.C,C14*%
X125320000Y-103600000D03*
X124680000Y-103600000D03*
%TD*%
D21*
%TO.C,R8*%
X131731619Y-109107841D03*
X131731619Y-110127841D03*
%TD*%
%TO.C,R7*%
X132731619Y-109107841D03*
X132731619Y-110127841D03*
%TD*%
D28*
%TO.C,C9*%
X125380000Y-104500000D03*
X124420000Y-104500000D03*
%TD*%
%TO.C,C24*%
X138180000Y-96300000D03*
X137220000Y-96300000D03*
%TD*%
D12*
%TO.C,R3*%
X124480000Y-102400000D03*
X125120000Y-102400000D03*
%TD*%
D21*
%TO.C,R5*%
X134731619Y-109107841D03*
X134731619Y-110127841D03*
%TD*%
D29*
%TO.C,L1*%
X128475000Y-96600000D03*
X126325000Y-96600000D03*
%TD*%
D24*
%TO.C,C20*%
X137920000Y-97200000D03*
X137280000Y-97200000D03*
%TD*%
D28*
%TO.C,C21*%
X137984575Y-102310519D03*
X137024575Y-102310519D03*
%TD*%
D30*
%TO.C,MK2*%
X139972083Y-101157000D03*
X141322083Y-101157000D03*
X141322083Y-100307000D03*
X139972083Y-100307000D03*
D31*
X138897083Y-101732000D03*
%TD*%
D28*
%TO.C,C22*%
X137980000Y-101400000D03*
X137020000Y-101400000D03*
%TD*%
D24*
%TO.C,C19*%
X137719608Y-100564255D03*
X137079608Y-100564255D03*
%TD*%
D32*
%TO.C,MK4*%
X141260000Y-107270000D03*
D33*
X138100000Y-108600000D03*
X139150000Y-108600000D03*
X140200000Y-108600000D03*
X141250000Y-108600000D03*
X141250000Y-105940000D03*
X140200000Y-105940000D03*
X139150000Y-105940000D03*
X138100000Y-105940000D03*
%TD*%
D22*
%TO.C,C25*%
X136900000Y-106680000D03*
X136900000Y-105720000D03*
%TD*%
D28*
%TO.C,C17*%
X127280000Y-98600000D03*
X126320000Y-98600000D03*
%TD*%
D17*
%TO.C,C23*%
X136010000Y-106720000D03*
X136010000Y-106080000D03*
%TD*%
%TO.C,C12*%
X128100000Y-99120000D03*
X128100000Y-98480000D03*
%TD*%
D34*
%TO.C,J1*%
X123000000Y-104800000D03*
X123000000Y-100300000D03*
D35*
X123000000Y-108400000D03*
X123000000Y-96700000D03*
%TD*%
M02*
