%TF.GenerationSoftware,KiCad,Pcbnew,9.0.0*%
%TF.CreationDate,2025-08-25T21:43:05+03:00*%
%TF.ProjectId,Daredevil-mini,44617265-6465-4766-996c-2d6d696e692e,rev?*%
%TF.SameCoordinates,Original*%
%TF.FileFunction,Copper,L1,Top*%
%TF.FilePolarity,Positive*%
%FSLAX46Y46*%
G04 Gerber Fmt 4.6, Leading zero omitted, Abs format (unit mm)*
G04 Created by KiCad (PCBNEW 9.0.0) date 2025-08-25 21:43:05*
%MOMM*%
%LPD*%
G01*
G04 APERTURE LIST*
G04 Aperture macros list*
%AMRoundRect*
0 Rectangle with rounded corners*
0 $1 Rounding radius*
0 $2 $3 $4 $5 $6 $7 $8 $9 X,Y pos of 4 corners*
0 Add a 4 corners polygon primitive as box body*
4,1,4,$2,$3,$4,$5,$6,$7,$8,$9,$2,$3,0*
0 Add four circle primitives for the rounded corners*
1,1,$1+$1,$2,$3*
1,1,$1+$1,$4,$5*
1,1,$1+$1,$6,$7*
1,1,$1+$1,$8,$9*
0 Add four rect primitives between the rounded corners*
20,1,$1+$1,$2,$3,$4,$5,0*
20,1,$1+$1,$4,$5,$6,$7,0*
20,1,$1+$1,$6,$7,$8,$9,0*
20,1,$1+$1,$8,$9,$2,$3,0*%
%AMFreePoly0*
4,1,64,0.235711,1.439036,0.382774,1.378120,0.515127,1.289684,0.627684,1.177127,0.716120,1.044774,0.777036,0.897711,0.808090,0.741590,0.808090,0.582410,0.777036,0.426289,0.716120,0.279226,0.627684,0.146873,0.515127,0.034316,0.382774,-0.054120,0.235711,-0.115036,0.079590,-0.146090,0.031746,-0.146090,0.029264,-0.147118,-0.029264,-0.147118,-0.031746,-0.146090,-0.079590,-0.146090,
-0.235711,-0.115036,-0.382774,-0.054120,-0.515127,0.034316,-0.627684,0.146873,-0.716120,0.279226,-0.777036,0.426289,-0.808090,0.582410,-0.808090,0.729406,-0.512000,0.729406,-0.512000,0.594594,-0.477108,0.464375,-0.409702,0.347625,-0.314375,0.252298,-0.197625,0.184892,-0.067406,0.150000,0.067406,0.150000,0.197625,0.184892,0.314375,0.252298,0.409702,0.347625,0.477108,0.464375,
0.512000,0.594594,0.512000,0.729406,0.477108,0.859625,0.409702,0.976375,0.314375,1.071702,0.197625,1.139108,0.067406,1.174000,-0.067406,1.174000,-0.197625,1.139108,-0.314375,1.071702,-0.409702,0.976375,-0.477108,0.859625,-0.512000,0.729406,-0.808090,0.729406,-0.808090,0.741590,-0.777036,0.897711,-0.716120,1.044774,-0.627684,1.177127,-0.515127,1.289684,-0.382774,1.378120,
-0.235711,1.439036,-0.079590,1.470090,0.079590,1.470090,0.235711,1.439036,0.235711,1.439036,$1*%
%AMFreePoly1*
4,1,101,2.400000,-3.650000,-0.400000,-3.650000,-0.400000,-0.318000,-0.050000,-0.318000,-0.050000,-3.182000,-0.049000,-3.188000,-0.048000,-3.195000,-0.046000,-3.207000,-0.044000,-3.214000,-0.042000,-3.220000,-0.033000,-3.238000,-0.030000,-3.243000,-0.026000,-3.248000,-0.022000,-3.254000,-0.018000,-3.259000,-0.013000,-3.263000,-0.009000,-3.268000,-0.004000,-3.272000,0.002000,-3.276000,0.007000,-3.280000,
0.012000,-3.283000,0.030000,-3.292000,0.036000,-3.294000,0.043000,-3.296000,0.055000,-3.298000,0.062000,-3.299000,0.068000,-3.300000,1.932000,-3.300000,1.938000,-3.299000,1.945000,-3.298000,1.957000,-3.296000,1.964000,-3.294000,1.970000,-3.292000,1.988000,-3.283000,1.993000,-3.280000,1.998000,-3.276000,2.004000,-3.272000,2.009000,-3.268000,2.013000,-3.263000,2.018000,-3.259000,
2.022000,-3.254000,2.026000,-3.248000,2.030000,-3.243000,2.033000,-3.238000,2.042000,-3.220000,2.044000,-3.214000,2.046000,-3.207000,2.048000,-3.195000,2.049000,-3.188000,2.050000,-3.182000,2.050000,-0.318000,2.049000,-0.312000,2.048000,-0.305000,2.046000,-0.293000,2.044000,-0.286000,2.042000,-0.280000,2.033000,-0.262000,2.030000,-0.257000,2.026000,-0.252000,2.022000,-0.246000,
2.018000,-0.241000,2.013000,-0.237000,2.009000,-0.232000,2.004000,-0.228000,1.998000,-0.224000,1.993000,-0.220000,1.988000,-0.217000,1.970000,-0.208000,1.964000,-0.206000,1.957000,-0.204000,1.945000,-0.202000,1.938000,-0.201000,1.932000,-0.200000,0.068000,-0.200000,0.062000,-0.201000,0.055000,-0.202000,0.043000,-0.204000,0.036000,-0.206000,0.030000,-0.208000,0.012000,-0.217000,
0.007000,-0.220000,0.002000,-0.224000,-0.004000,-0.228000,-0.009000,-0.232000,-0.013000,-0.237000,-0.018000,-0.241000,-0.022000,-0.246000,-0.026000,-0.252000,-0.030000,-0.257000,-0.033000,-0.262000,-0.042000,-0.280000,-0.044000,-0.286000,-0.046000,-0.293000,-0.048000,-0.305000,-0.049000,-0.312000,-0.050000,-0.318000,-0.400000,-0.318000,-0.400000,-0.150000,-0.100000,0.150000,2.400000,0.150000,
2.400000,-3.650000,2.400000,-3.650000,$1*%
%AMFreePoly2*
4,1,369,0.672119,0.783999,0.672365,0.783987,0.713365,0.780987,0.713742,0.780945,0.753742,0.774945,0.753862,0.774925,0.793862,0.767925,0.794213,0.767851,0.834213,0.757851,0.834357,0.757812,0.873357,0.746812,0.873729,0.746692,0.911729,0.732692,0.911836,0.732651,0.949836,0.717651,0.950187,0.717496,0.987187,0.699496,0.987334,0.699422,1.023334,0.680422,1.023716,0.680198,
1.057716,0.658198,1.057802,0.658141,1.091802,0.635141,1.092078,0.634940,1.124078,0.609940,1.124213,0.609831,1.155213,0.583831,1.155412,0.583655,1.185412,0.555655,1.185655,0.555412,1.213655,0.525412,1.213831,0.525213,1.239831,0.494213,1.239940,0.494078,1.264940,0.462078,1.265141,0.461802,1.288141,0.427802,1.288198,0.427716,1.310198,0.393716,1.310422,0.393334,
1.329422,0.357334,1.329496,0.357187,1.347496,0.320187,1.347651,0.319836,1.362651,0.281836,1.362692,0.281729,1.376692,0.243729,1.376812,0.243357,1.387812,0.204357,1.387851,0.204213,1.397851,0.164213,1.397925,0.163862,1.404925,0.123862,1.404945,0.123742,1.410945,0.083742,1.410987,0.083365,1.413987,0.042365,1.413998,0.042128,1.414998,0.003128,1.415000,0.003000,
1.415000,0.002500,1.413861,-0.000250,1.415000,-0.003000,1.414998,-0.003128,1.413998,-0.042128,1.413987,-0.042365,1.410987,-0.083365,1.410945,-0.083742,1.404945,-0.123742,1.404925,-0.123862,1.397925,-0.163862,1.397851,-0.164213,1.387851,-0.204213,1.387812,-0.204357,1.376812,-0.243357,1.376692,-0.243729,1.362692,-0.281729,1.362651,-0.281836,1.347651,-0.319836,1.347496,-0.320187,
1.329496,-0.357187,1.329422,-0.357334,1.310422,-0.393334,1.310198,-0.393716,1.288198,-0.427716,1.288141,-0.427802,1.265141,-0.461802,1.264940,-0.462078,1.239940,-0.494078,1.239831,-0.494213,1.213831,-0.525213,1.213655,-0.525412,1.185655,-0.555412,1.185412,-0.555655,1.155412,-0.583655,1.155213,-0.583831,1.124213,-0.609831,1.124078,-0.609940,1.092078,-0.634940,1.091802,-0.635141,
1.057802,-0.658141,1.057716,-0.658198,1.023716,-0.680198,1.023334,-0.680422,0.987334,-0.699422,0.987187,-0.699496,0.950187,-0.717496,0.949836,-0.717651,0.911836,-0.732651,0.911729,-0.732692,0.873729,-0.746692,0.873357,-0.746812,0.834357,-0.757812,0.834213,-0.757851,0.794213,-0.767851,0.793862,-0.767925,0.753862,-0.774925,0.753742,-0.774945,0.713742,-0.780945,0.713365,-0.780987,
0.672365,-0.783987,0.672119,-0.783999,0.630119,-0.784999,0.629878,-0.784999,0.588878,-0.783999,0.588635,-0.783987,0.547635,-0.780987,0.547258,-0.780945,0.507258,-0.774945,0.507138,-0.774925,0.467138,-0.767925,0.466787,-0.767851,0.426787,-0.757851,0.426643,-0.757812,0.387643,-0.746812,0.387311,-0.746706,0.348311,-0.732706,0.348121,-0.732634,0.311121,-0.717634,0.310813,-0.717496,
0.273813,-0.699496,0.273572,-0.699371,0.237572,-0.679371,0.237428,-0.679287,0.202428,-0.658287,0.202141,-0.658102,0.169141,-0.635102,0.168981,-0.634985,0.135981,-0.609985,0.135787,-0.609831,0.104787,-0.583831,0.104588,-0.583655,0.074588,-0.555655,0.074345,-0.555412,0.046345,-0.525412,0.046169,-0.525213,0.020169,-0.494213,0.020015,-0.494019,-0.004985,-0.461019,-0.005102,-0.460859,
-0.028102,-0.427859,-0.028287,-0.427572,-0.049287,-0.392572,-0.049371,-0.392428,-0.069371,-0.356428,-0.069496,-0.356187,-0.087496,-0.319187,-0.087634,-0.318879,-0.102634,-0.281879,-0.102706,-0.281689,-0.116706,-0.242689,-0.116812,-0.242357,-0.127812,-0.203357,-0.127851,-0.203213,-0.137851,-0.163213,-0.137925,-0.162862,-0.144925,-0.122862,-0.144945,-0.122742,-0.150945,-0.082742,-0.150987,-0.082365,
-0.153987,-0.041365,-0.153999,-0.041122,-0.154999,-0.000122,-0.154999,0.000000,0.155004,0.000000,0.155992,-0.024702,0.157976,-0.049510,0.160951,-0.074303,0.164901,-0.098990,0.170829,-0.122702,0.177745,-0.146414,0.186682,-0.170244,0.195587,-0.193003,0.206459,-0.215734,0.218319,-0.237479,0.231161,-0.258224,0.246039,-0.279052,0.260909,-0.298879,0.276686,-0.317614,0.312385,-0.353313,
0.331120,-0.369090,0.350948,-0.383961,0.371776,-0.398838,0.392520,-0.411680,0.414265,-0.423540,0.436997,-0.434412,0.459756,-0.443318,0.483586,-0.452254,0.507298,-0.459170,0.531009,-0.465098,0.555697,-0.469048,0.580490,-0.472023,0.605298,-0.474007,0.630007,-0.474996,0.655698,-0.474008,0.680510,-0.472023,0.705303,-0.469048,0.729990,-0.465098,0.753702,-0.459170,0.777414,-0.452254,
0.801244,-0.443318,0.824003,-0.434412,0.846734,-0.423540,0.868479,-0.411680,0.889291,-0.398796,0.910052,-0.384956,0.929793,-0.369163,0.948679,-0.353259,0.966463,-0.336463,0.983259,-0.318679,0.999163,-0.299793,1.014956,-0.280052,1.028796,-0.259291,1.041680,-0.238479,1.053540,-0.216734,1.064412,-0.194003,1.073318,-0.171244,1.082254,-0.147414,1.089170,-0.123702,1.095098,-0.099990,
1.099048,-0.075303,1.102023,-0.050510,1.104009,-0.025685,1.105005,-0.002783,1.106262,-0.000082,1.105005,0.002783,1.104009,0.025685,1.102023,0.050510,1.099048,0.075303,1.095098,0.099990,1.089170,0.123702,1.082254,0.147414,1.073318,0.171244,1.064412,0.194003,1.053540,0.216734,1.041680,0.238479,1.028796,0.259291,1.014956,0.280052,0.999163,0.299793,0.983259,0.318679,
0.966463,0.336463,0.948679,0.353259,0.929793,0.369163,0.910052,0.384956,0.889291,0.398796,0.868479,0.411680,0.846734,0.423540,0.824003,0.434412,0.801244,0.443318,0.777414,0.452254,0.753702,0.459170,0.729990,0.465098,0.705303,0.469048,0.680510,0.472023,0.655698,0.474008,0.630007,0.474996,0.605298,0.474007,0.580490,0.472023,0.555697,0.469048,0.531009,0.465098,
0.507298,0.459170,0.483586,0.452254,0.459756,0.443318,0.436997,0.434412,0.414265,0.423540,0.392520,0.411680,0.371779,0.398840,0.350948,0.383961,0.331120,0.369090,0.312385,0.353313,0.276686,0.317614,0.260909,0.298879,0.246039,0.279052,0.231161,0.258224,0.218319,0.237479,0.206459,0.215734,0.195587,0.193003,0.186681,0.170244,0.186682,0.170244,0.177745,0.146414,
0.170829,0.122702,0.164901,0.098990,0.160951,0.074303,0.157976,0.049510,0.155992,0.024702,0.155004,0.000000,-0.154999,0.000000,-0.154999,0.000122,-0.153999,0.041122,-0.153987,0.041365,-0.150987,0.082365,-0.150945,0.082742,-0.144945,0.122742,-0.144925,0.122862,-0.137925,0.162862,-0.137851,0.163213,-0.127851,0.203213,-0.127812,0.203357,-0.116812,0.242357,-0.116706,0.242689,
-0.102706,0.281689,-0.102634,0.281879,-0.087634,0.318879,-0.087496,0.319187,-0.069496,0.356187,-0.069371,0.356428,-0.049371,0.392428,-0.049287,0.392572,-0.028287,0.427572,-0.028102,0.427859,-0.005102,0.460859,-0.004985,0.461019,0.020015,0.494019,0.020169,0.494213,0.046169,0.525213,0.046345,0.525412,0.074345,0.555412,0.074588,0.555655,0.104588,0.583655,0.104787,0.583831,
0.135787,0.609831,0.135981,0.609985,0.168981,0.634985,0.169141,0.635102,0.202141,0.658102,0.202428,0.658287,0.237428,0.679287,0.237572,0.679371,0.273572,0.699371,0.273813,0.699496,0.310813,0.717496,0.311121,0.717634,0.348121,0.732634,0.348311,0.732706,0.387311,0.746706,0.387643,0.746812,0.426643,0.757812,0.426787,0.757851,0.466787,0.767851,0.467138,0.767925,
0.507138,0.774925,0.507258,0.774945,0.547258,0.780945,0.547635,0.780987,0.588635,0.783987,0.588878,0.783999,0.629878,0.784999,0.630119,0.784999,0.672119,0.783999,0.672119,0.783999,$1*%
G04 Aperture macros list end*
%TA.AperFunction,SMDPad,CuDef*%
%ADD10RoundRect,0.100000X-0.130000X-0.100000X0.130000X-0.100000X0.130000X0.100000X-0.130000X0.100000X0*%
%TD*%
%TA.AperFunction,SMDPad,CuDef*%
%ADD11RoundRect,0.130500X0.130500X-0.169500X0.130500X0.169500X-0.130500X0.169500X-0.130500X-0.169500X0*%
%TD*%
%TA.AperFunction,SMDPad,CuDef*%
%ADD12FreePoly0,180.000000*%
%TD*%
%TA.AperFunction,SMDPad,CuDef*%
%ADD13RoundRect,0.100000X-0.100000X0.130000X-0.100000X-0.130000X0.100000X-0.130000X0.100000X0.130000X0*%
%TD*%
%TA.AperFunction,SMDPad,CuDef*%
%ADD14RoundRect,0.100000X0.100000X-0.130000X0.100000X0.130000X-0.100000X0.130000X-0.100000X-0.130000X0*%
%TD*%
%TA.AperFunction,SMDPad,CuDef*%
%ADD15R,0.530000X0.730000*%
%TD*%
%TA.AperFunction,ComponentPad*%
%ADD16C,1.640488*%
%TD*%
%TA.AperFunction,SMDPad,CuDef*%
%ADD17RoundRect,0.135000X0.185000X-0.135000X0.185000X0.135000X-0.185000X0.135000X-0.185000X-0.135000X0*%
%TD*%
%TA.AperFunction,SMDPad,CuDef*%
%ADD18RoundRect,0.135000X-0.185000X0.135000X-0.185000X-0.135000X0.185000X-0.135000X0.185000X0.135000X0*%
%TD*%
%TA.AperFunction,SMDPad,CuDef*%
%ADD19RoundRect,0.140000X0.170000X-0.140000X0.170000X0.140000X-0.170000X0.140000X-0.170000X-0.140000X0*%
%TD*%
%TA.AperFunction,SMDPad,CuDef*%
%ADD20C,0.600000*%
%TD*%
%TA.AperFunction,SMDPad,CuDef*%
%ADD21RoundRect,0.100000X0.130000X0.100000X-0.130000X0.100000X-0.130000X-0.100000X0.130000X-0.100000X0*%
%TD*%
%TA.AperFunction,SMDPad,CuDef*%
%ADD22RoundRect,0.050000X0.050000X-0.387500X0.050000X0.387500X-0.050000X0.387500X-0.050000X-0.387500X0*%
%TD*%
%TA.AperFunction,SMDPad,CuDef*%
%ADD23RoundRect,0.050000X0.387500X-0.050000X0.387500X0.050000X-0.387500X0.050000X-0.387500X-0.050000X0*%
%TD*%
%TA.AperFunction,HeatsinkPad*%
%ADD24R,3.200000X3.200000*%
%TD*%
%TA.AperFunction,SMDPad,CuDef*%
%ADD25RoundRect,0.140000X0.140000X0.170000X-0.140000X0.170000X-0.140000X-0.170000X0.140000X-0.170000X0*%
%TD*%
%TA.AperFunction,SMDPad,CuDef*%
%ADD26RoundRect,0.250000X0.375000X0.850000X-0.375000X0.850000X-0.375000X-0.850000X0.375000X-0.850000X0*%
%TD*%
%TA.AperFunction,SMDPad,CuDef*%
%ADD27R,0.950000X0.450000*%
%TD*%
%TA.AperFunction,SMDPad,CuDef*%
%ADD28FreePoly1,90.000000*%
%TD*%
%TA.AperFunction,SMDPad,CuDef*%
%ADD29R,0.400000X0.600000*%
%TD*%
%TA.AperFunction,SMDPad,CuDef*%
%ADD30FreePoly2,180.000000*%
%TD*%
%TA.AperFunction,ComponentPad*%
%ADD31O,3.800000X1.400000*%
%TD*%
%TA.AperFunction,ViaPad*%
%ADD32C,0.450000*%
%TD*%
%TA.AperFunction,Conductor*%
%ADD33C,0.300000*%
%TD*%
%TA.AperFunction,Conductor*%
%ADD34C,0.400000*%
%TD*%
%TA.AperFunction,Conductor*%
%ADD35C,0.127000*%
%TD*%
%TA.AperFunction,Conductor*%
%ADD36C,0.135900*%
%TD*%
G04 APERTURE END LIST*
D10*
%TO.P,C7,1*%
%TO.N,+1.1V*%
X135060000Y-102700000D03*
%TO.P,C7,2*%
%TO.N,Earth*%
X135700000Y-102700000D03*
%TD*%
D11*
%TO.P,MK3,1,WS*%
%TO.N,SPH0645_WS*%
X139306000Y-98352884D03*
%TO.P,MK3,2,SEL*%
%TO.N,Earth*%
X140128000Y-98352884D03*
D12*
%TO.P,MK3,3,GND*%
X141380000Y-96790884D03*
D11*
%TO.P,MK3,4,BCLK*%
%TO.N,CLK3*%
X140128000Y-96552884D03*
%TO.P,MK3,5,VDD*%
%TO.N,+3.3V*%
X139306000Y-96552884D03*
%TO.P,MK3,6,DATA*%
%TO.N,DAT3*%
X139306000Y-97452884D03*
%TD*%
D13*
%TO.P,C16,1*%
%TO.N,+3.3V*%
X127900000Y-108280000D03*
%TO.P,C16,2*%
%TO.N,Earth*%
X127900000Y-108920000D03*
%TD*%
D14*
%TO.P,C15,1*%
%TO.N,+3.3V*%
X131500000Y-99120000D03*
%TO.P,C15,2*%
%TO.N,Earth*%
X131500000Y-98480000D03*
%TD*%
D15*
%TO.P,MK1,1,DOUT*%
%TO.N,DAT4*%
X139290500Y-104608000D03*
%TO.P,MK1,2,L/R*%
%TO.N,Earth*%
X140112500Y-104608000D03*
D16*
%TO.P,MK1,3,GND*%
X141370000Y-103770000D03*
D15*
%TO.P,MK1,4,CLK*%
%TO.N,CLK4*%
X140112500Y-102932000D03*
%TO.P,MK1,5,VDD*%
%TO.N,+3.3V*%
X139290500Y-102932000D03*
%TD*%
D17*
%TO.P,R11,1*%
%TO.N,Net-(R11-Pad1)*%
X126900000Y-109300000D03*
%TO.P,R11,2*%
%TO.N,Net-(DD2-~{CS})*%
X126900000Y-108280000D03*
%TD*%
D18*
%TO.P,R6,1*%
%TO.N,+3.3V*%
X133731619Y-109107841D03*
%TO.P,R6,2*%
%TO.N,Net-(D2-A)*%
X133731619Y-110127841D03*
%TD*%
D19*
%TO.P,C8,1*%
%TO.N,+1.1V*%
X125900000Y-100480000D03*
%TO.P,C8,2*%
%TO.N,Earth*%
X125900000Y-99520000D03*
%TD*%
D10*
%TO.P,C10,1*%
%TO.N,+3.3V*%
X135100000Y-103400000D03*
%TO.P,C10,2*%
%TO.N,Earth*%
X135740000Y-103400000D03*
%TD*%
D20*
%TO.P,TP1,1,1*%
%TO.N,Net-(DD3-RUN)*%
X135200000Y-101800000D03*
%TD*%
D10*
%TO.P,C11,1*%
%TO.N,+3.3V*%
X131430000Y-108250000D03*
%TO.P,C11,2*%
%TO.N,Earth*%
X132070000Y-108250000D03*
%TD*%
D14*
%TO.P,C13,1*%
%TO.N,+3.3V*%
X128900000Y-99120000D03*
%TO.P,C13,2*%
%TO.N,Earth*%
X128900000Y-98480000D03*
%TD*%
D10*
%TO.P,R4,1*%
%TO.N,USB-*%
X124480000Y-101700000D03*
%TO.P,R4,2*%
%TO.N,USB-_*%
X125120000Y-101700000D03*
%TD*%
D21*
%TO.P,C18,1*%
%TO.N,+3.3V*%
X137955784Y-103128783D03*
%TO.P,C18,2*%
%TO.N,Earth*%
X137315784Y-103128783D03*
%TD*%
D22*
%TO.P,DD3,1,IOVDD*%
%TO.N,+3.3V*%
X127937500Y-107137500D03*
%TO.P,DD3,2,GPIO0*%
%TO.N,unconnected-(DD3-GPIO0-Pad2)*%
X128337500Y-107137500D03*
%TO.P,DD3,3,GPIO1*%
%TO.N,unconnected-(DD3-GPIO1-Pad3)*%
X128737500Y-107137500D03*
%TO.P,DD3,4,GPIO2*%
%TO.N,unconnected-(DD3-GPIO2-Pad4)*%
X129137500Y-107137500D03*
%TO.P,DD3,5,GPIO3*%
%TO.N,unconnected-(DD3-GPIO3-Pad5)*%
X129537500Y-107137500D03*
%TO.P,DD3,6,GPIO4*%
%TO.N,unconnected-(DD3-GPIO4-Pad6)*%
X129937500Y-107137500D03*
%TO.P,DD3,7,GPIO5*%
%TO.N,unconnected-(DD3-GPIO5-Pad7)*%
X130337500Y-107137500D03*
%TO.P,DD3,8,GPIO6*%
%TO.N,unconnected-(DD3-GPIO6-Pad8)*%
X130737500Y-107137500D03*
%TO.P,DD3,9,GPIO7*%
%TO.N,unconnected-(DD3-GPIO7-Pad9)*%
X131137500Y-107137500D03*
%TO.P,DD3,10,IOVDD*%
%TO.N,+3.3V*%
X131537500Y-107137500D03*
%TO.P,DD3,11,GPIO8*%
%TO.N,LVL_LED_4*%
X131937500Y-107137500D03*
%TO.P,DD3,12,GPIO9*%
%TO.N,LVL_LED_3*%
X132337500Y-107137500D03*
%TO.P,DD3,13,GPIO10*%
%TO.N,LVL_LED_2*%
X132737500Y-107137500D03*
%TO.P,DD3,14,GPIO11*%
%TO.N,LVL_LED_1*%
X133137500Y-107137500D03*
D23*
%TO.P,DD3,15,GPIO12*%
%TO.N,CLK2*%
X133975000Y-106300000D03*
%TO.P,DD3,16,GPIO13*%
%TO.N,DAT2*%
X133975000Y-105900000D03*
%TO.P,DD3,17,GPIO14*%
%TO.N,DAT4*%
X133975000Y-105500000D03*
%TO.P,DD3,18,GPIO15*%
%TO.N,CLK4*%
X133975000Y-105100000D03*
%TO.P,DD3,19,TESTEN*%
%TO.N,Earth*%
X133975000Y-104700000D03*
%TO.P,DD3,20,XIN*%
%TO.N,Net-(DD3-XIN)*%
X133975000Y-104300000D03*
%TO.P,DD3,21,XOUT*%
%TO.N,Net-(DD3-XOUT)*%
X133975000Y-103900000D03*
%TO.P,DD3,22,IOVDD*%
%TO.N,+3.3V*%
X133975000Y-103500000D03*
%TO.P,DD3,23,DVDD*%
%TO.N,+1.1V*%
X133975000Y-103100000D03*
%TO.P,DD3,24,SWCLK*%
%TO.N,unconnected-(DD3-SWCLK-Pad24)*%
X133975000Y-102700000D03*
%TO.P,DD3,25,SWD*%
%TO.N,unconnected-(DD3-SWD-Pad25)*%
X133975000Y-102300000D03*
%TO.P,DD3,26,RUN*%
%TO.N,Net-(DD3-RUN)*%
X133975000Y-101900000D03*
%TO.P,DD3,27,GPIO16*%
%TO.N,unconnected-(DD3-GPIO16-Pad27)*%
X133975000Y-101500000D03*
%TO.P,DD3,28,GPIO17*%
%TO.N,SPH0645_WS*%
X133975000Y-101100000D03*
D22*
%TO.P,DD3,29,GPIO18*%
%TO.N,DAT1*%
X133137500Y-100262500D03*
%TO.P,DD3,30,GPIO19*%
%TO.N,CLK1*%
X132737500Y-100262500D03*
%TO.P,DD3,31,GPIO20*%
%TO.N,DAT3*%
X132337500Y-100262500D03*
%TO.P,DD3,32,GPIO21*%
%TO.N,CLK3*%
X131937500Y-100262500D03*
%TO.P,DD3,33,IOVDD*%
%TO.N,+3.3V*%
X131537500Y-100262500D03*
%TO.P,DD3,34,GPIO22*%
%TO.N,unconnected-(DD3-GPIO22-Pad34)*%
X131137500Y-100262500D03*
%TO.P,DD3,35,GPIO23*%
%TO.N,unconnected-(DD3-GPIO23-Pad35)*%
X130737500Y-100262500D03*
%TO.P,DD3,36,GPIO24*%
%TO.N,STATUS_LED_1*%
X130337500Y-100262500D03*
%TO.P,DD3,37,GPIO25*%
%TO.N,STATUS_LED_2*%
X129937500Y-100262500D03*
%TO.P,DD3,38,GPIO26_ADC0*%
%TO.N,unconnected-(DD3-GPIO26_ADC0-Pad38)*%
X129537500Y-100262500D03*
%TO.P,DD3,39,GPIO27_ADC1*%
%TO.N,unconnected-(DD3-GPIO27_ADC1-Pad39)*%
X129137500Y-100262500D03*
%TO.P,DD3,40,GPIO28_ADC2*%
%TO.N,unconnected-(DD3-GPIO28_ADC2-Pad40)*%
X128737500Y-100262500D03*
%TO.P,DD3,41,GPIO29_ADC3*%
%TO.N,unconnected-(DD3-GPIO29_ADC3-Pad41)*%
X128337500Y-100262500D03*
%TO.P,DD3,42,IOVDD*%
%TO.N,+3.3V*%
X127937500Y-100262500D03*
D23*
%TO.P,DD3,43,ADC_AVDD*%
X127100000Y-101100000D03*
%TO.P,DD3,44,VREG_IN*%
X127100000Y-101500000D03*
%TO.P,DD3,45,VREG_VOUT*%
%TO.N,+1.1V*%
X127100000Y-101900000D03*
%TO.P,DD3,46,USB_DM*%
%TO.N,USB-_*%
X127100000Y-102300000D03*
%TO.P,DD3,47,USB_DP*%
%TO.N,USB+_*%
X127100000Y-102700000D03*
%TO.P,DD3,48,USB_VDD*%
%TO.N,+3.3V*%
X127100000Y-103100000D03*
%TO.P,DD3,49,IOVDD*%
X127100000Y-103500000D03*
%TO.P,DD3,50,DVDD*%
%TO.N,+1.1V*%
X127100000Y-103900000D03*
%TO.P,DD3,51,QSPI_SD3*%
%TO.N,Net-(DD2-IO3)*%
X127100000Y-104300000D03*
%TO.P,DD3,52,QSPI_SCLK*%
%TO.N,Net-(DD2-CLK)*%
X127100000Y-104700000D03*
%TO.P,DD3,53,QSPI_SD0*%
%TO.N,Net-(DD2-DI(IO0))*%
X127100000Y-105100000D03*
%TO.P,DD3,54,QSPI_SD2*%
%TO.N,Net-(DD2-IO2)*%
X127100000Y-105500000D03*
%TO.P,DD3,55,QSPI_SD1*%
%TO.N,Net-(DD2-DO(IO1))*%
X127100000Y-105900000D03*
%TO.P,DD3,56,QSPI_SS*%
%TO.N,Net-(DD2-~{CS})*%
X127100000Y-106300000D03*
D24*
%TO.P,DD3,57,GND*%
%TO.N,Earth*%
X130537500Y-103700000D03*
%TD*%
D21*
%TO.P,C14,1*%
%TO.N,+3.3V*%
X125320000Y-103600000D03*
%TO.P,C14,2*%
%TO.N,Earth*%
X124680000Y-103600000D03*
%TD*%
D18*
%TO.P,R8,1*%
%TO.N,+3.3V*%
X131731619Y-109107841D03*
%TO.P,R8,2*%
%TO.N,Net-(D4-A)*%
X131731619Y-110127841D03*
%TD*%
%TO.P,R7,1*%
%TO.N,+3.3V*%
X132731619Y-109107841D03*
%TO.P,R7,2*%
%TO.N,Net-(D3-A)*%
X132731619Y-110127841D03*
%TD*%
D25*
%TO.P,C9,1*%
%TO.N,+1.1V*%
X125380000Y-104500000D03*
%TO.P,C9,2*%
%TO.N,Earth*%
X124420000Y-104500000D03*
%TD*%
%TO.P,C24,1*%
%TO.N,+3.3V*%
X138180000Y-96300000D03*
%TO.P,C24,2*%
%TO.N,Earth*%
X137220000Y-96300000D03*
%TD*%
D10*
%TO.P,R3,1*%
%TO.N,USB+*%
X124480000Y-102400000D03*
%TO.P,R3,2*%
%TO.N,USB+_*%
X125120000Y-102400000D03*
%TD*%
D18*
%TO.P,R5,1*%
%TO.N,+3.3V*%
X134731619Y-109107841D03*
%TO.P,R5,2*%
%TO.N,Net-(D1-A)*%
X134731619Y-110127841D03*
%TD*%
D26*
%TO.P,L1,1,1*%
%TO.N,Net-(DD1-LX1)*%
X128475000Y-96600000D03*
%TO.P,L1,2,2*%
%TO.N,Net-(DD1-LX2)*%
X126325000Y-96600000D03*
%TD*%
D21*
%TO.P,C20,1*%
%TO.N,+3.3V*%
X137920000Y-97200000D03*
%TO.P,C20,2*%
%TO.N,Earth*%
X137280000Y-97200000D03*
%TD*%
D25*
%TO.P,C21,1*%
%TO.N,+3.3V*%
X137984575Y-102310519D03*
%TO.P,C21,2*%
%TO.N,Earth*%
X137024575Y-102310519D03*
%TD*%
D27*
%TO.P,MK2,1,VDD*%
%TO.N,+3.3V*%
X139972083Y-101157000D03*
%TO.P,MK2,2,LR*%
%TO.N,Earth*%
X141322083Y-101157000D03*
%TO.P,MK2,3,CLK*%
%TO.N,CLK1*%
X141322083Y-100307000D03*
%TO.P,MK2,4,DOUT*%
%TO.N,DAT1*%
X139972083Y-100307000D03*
D28*
%TO.P,MK2,5,GND*%
%TO.N,Earth*%
X138897083Y-101732000D03*
%TD*%
D25*
%TO.P,C22,1*%
%TO.N,+3.3V*%
X137980000Y-101400000D03*
%TO.P,C22,2*%
%TO.N,Earth*%
X137020000Y-101400000D03*
%TD*%
D21*
%TO.P,C19,1*%
%TO.N,+3.3V*%
X137719608Y-100564255D03*
%TO.P,C19,2*%
%TO.N,Earth*%
X137079608Y-100564255D03*
%TD*%
D29*
%TO.P,MK4,1,SCK*%
%TO.N,CLK2*%
X138100000Y-108600000D03*
%TO.P,MK4,2,SD*%
%TO.N,DAT2*%
X139150000Y-108600000D03*
%TO.P,MK4,3,WS*%
%TO.N,SPH0645_WS*%
X140200000Y-108600000D03*
%TO.P,MK4,4,L/R*%
%TO.N,Earth*%
X141250000Y-108600000D03*
D30*
%TO.P,MK4,5,GND*%
X141890000Y-107270000D03*
D29*
%TO.P,MK4,6,GND__1*%
X141250000Y-105940000D03*
%TO.P,MK4,7,VDD*%
%TO.N,+3.3V*%
X140200000Y-105940000D03*
%TO.P,MK4,8,CHIPEN*%
X139150000Y-105940000D03*
%TO.P,MK4,9,GND__2*%
%TO.N,Earth*%
X138100000Y-105940000D03*
%TD*%
D19*
%TO.P,C25,1*%
%TO.N,+3.3V*%
X136900000Y-106680000D03*
%TO.P,C25,2*%
%TO.N,Earth*%
X136900000Y-105720000D03*
%TD*%
D25*
%TO.P,C17,1*%
%TO.N,+3.3V*%
X127280000Y-98600000D03*
%TO.P,C17,2*%
%TO.N,Earth*%
X126320000Y-98600000D03*
%TD*%
D14*
%TO.P,C23,1*%
%TO.N,+3.3V*%
X136010000Y-106720000D03*
%TO.P,C23,2*%
%TO.N,Earth*%
X136010000Y-106080000D03*
%TD*%
%TO.P,C12,1*%
%TO.N,+3.3V*%
X128100000Y-99120000D03*
%TO.P,C12,2*%
%TO.N,Earth*%
X128100000Y-98480000D03*
%TD*%
D31*
%TO.P,J1,5,Shield*%
%TO.N,Earth*%
X123000000Y-108400000D03*
X123000000Y-96700000D03*
%TD*%
D32*
%TO.N,Earth*%
X130600000Y-103500000D03*
X122300000Y-103800000D03*
X131400000Y-103500000D03*
X132070000Y-108250000D03*
X138300000Y-98800000D03*
X122900000Y-103500000D03*
X130000000Y-97800000D03*
X122100000Y-101400000D03*
X133300000Y-104700000D03*
X136900000Y-110100000D03*
X129500000Y-98700000D03*
X129400000Y-102500000D03*
X142000000Y-105300000D03*
X123600000Y-101300000D03*
X128200000Y-108900000D03*
X141800000Y-102300000D03*
X140900000Y-95500000D03*
X131400000Y-102500000D03*
X128562500Y-98300000D03*
X130500000Y-104200000D03*
X136100000Y-103100000D03*
X129000000Y-109000000D03*
X135500000Y-98300000D03*
X138200000Y-109600000D03*
X131200000Y-104100000D03*
X129600000Y-103500000D03*
X141322083Y-101157000D03*
X122800000Y-101500000D03*
X139600000Y-109700000D03*
X137300000Y-109700000D03*
X129400000Y-98000000D03*
X141100000Y-109800000D03*
X130600000Y-109300000D03*
X136300000Y-97600000D03*
X140900000Y-105200000D03*
X130200000Y-102500000D03*
X135400000Y-106000000D03*
X134300000Y-107200000D03*
X136400000Y-101400000D03*
X127800000Y-98100000D03*
X140300000Y-109800000D03*
X138000000Y-95000000D03*
X130800000Y-102900000D03*
%TO.N,+3.3V*%
X127000000Y-98900000D03*
X131500000Y-105900000D03*
X127000000Y-100100000D03*
X138200000Y-101900000D03*
X139972083Y-101157000D03*
X138400000Y-96800000D03*
X127000000Y-99400000D03*
X135000000Y-96100000D03*
X137700000Y-106900000D03*
X136400000Y-108200000D03*
%TO.N,Net-(DD3-XOUT)*%
X136200000Y-103900000D03*
%TO.N,Net-(DD3-XIN)*%
X136212550Y-104499871D03*
%TO.N,+1.1V*%
X135900000Y-102000000D03*
X125400000Y-107000000D03*
%TO.N,Net-(D1-A)*%
X134731619Y-110127841D03*
%TO.N,LVL_LED_1*%
X134600000Y-108300000D03*
%TO.N,Net-(D2-A)*%
X133731619Y-110127841D03*
%TO.N,LVL_LED_2*%
X133744377Y-108364622D03*
%TO.N,Net-(D3-A)*%
X132731619Y-110127841D03*
%TO.N,LVL_LED_3*%
X132397888Y-106433228D03*
%TO.N,Net-(D4-A)*%
X131731619Y-110127841D03*
%TO.N,LVL_LED_4*%
X132782088Y-108354478D03*
%TO.N,STATUS_LED_1*%
X133700000Y-95700000D03*
%TO.N,STATUS_LED_2*%
X132700000Y-95700000D03*
%TO.N,Net-(DD1-LX1)*%
X128706250Y-95893750D03*
X129056250Y-96243750D03*
X128226626Y-95743689D03*
%TO.N,Net-(DD1-LX2)*%
X126700000Y-96600000D03*
X126700000Y-97100000D03*
X126700000Y-96100000D03*
%TO.N,Net-(DD2-IO2)*%
X128500000Y-105400000D03*
%TO.N,Net-(DD2-IO3)*%
X127800000Y-104300000D03*
%TO.N,Net-(DD2-~{CS})*%
X127400000Y-106800000D03*
%TO.N,Net-(DD2-DO(IO1))*%
X128500000Y-106000000D03*
%TO.N,Net-(DD2-DI(IO0))*%
X128500000Y-103200000D03*
%TO.N,Net-(DD2-CLK)*%
X128022835Y-103742912D03*
%TO.N,CLK1*%
X135200000Y-99400000D03*
X141322083Y-100307000D03*
%TO.N,SPH0645_WS*%
X140200000Y-108000000D03*
X139600000Y-98900000D03*
%TO.N,DAT1*%
X135600000Y-99900000D03*
X139972083Y-100307000D03*
%TO.N,USB+*%
X122200000Y-102838500D03*
%TO.N,USB-*%
X122200000Y-102261500D03*
%TO.N,Net-(R11-Pad1)*%
X126900000Y-110000000D03*
%TD*%
D33*
%TO.N,Earth*%
X133975000Y-104700000D02*
X133300000Y-104700000D01*
D34*
%TO.N,+3.3V*%
X138400000Y-96800000D02*
X139058884Y-96800000D01*
D33*
X127815500Y-102887248D02*
X127815500Y-100915500D01*
X138200000Y-101900000D02*
X138200000Y-102095094D01*
X138200000Y-102095094D02*
X137984575Y-102310519D01*
D34*
X135492159Y-109107841D02*
X136400000Y-108200000D01*
D33*
X131500000Y-105900000D02*
X132093500Y-105900000D01*
D34*
X134731619Y-109107841D02*
X135492159Y-109107841D01*
D33*
X131537500Y-105937500D02*
X131500000Y-105900000D01*
X131537500Y-100765248D02*
X131324748Y-100978000D01*
X133100000Y-102371748D02*
X131706252Y-100978000D01*
X127602748Y-103100000D02*
X127815500Y-102887248D01*
X127937500Y-107137500D02*
X127937500Y-108242500D01*
X133472252Y-103500000D02*
X133100000Y-103127748D01*
D34*
X137120000Y-106900000D02*
X136900000Y-106680000D01*
X139058884Y-96800000D02*
X139306000Y-96552884D01*
D33*
X133472252Y-103500000D02*
X133975000Y-103500000D01*
X131537500Y-107137500D02*
X131537500Y-105937500D01*
D35*
X133537500Y-103500000D02*
X133100000Y-103062500D01*
D33*
X131706252Y-100978000D02*
X131324748Y-100978000D01*
X133975000Y-103500000D02*
X135000000Y-103500000D01*
X132774000Y-104198252D02*
X133472252Y-103500000D01*
X131537500Y-100262500D02*
X131537500Y-100765248D01*
X127937500Y-108242500D02*
X127900000Y-108280000D01*
X132774000Y-105219500D02*
X132774000Y-104198252D01*
X127878000Y-100978000D02*
X127150000Y-100250000D01*
D34*
X137700000Y-106900000D02*
X137120000Y-106900000D01*
D33*
X132093500Y-105900000D02*
X132774000Y-105219500D01*
X127150000Y-100250000D02*
X127000000Y-100100000D01*
X131324748Y-100978000D02*
X127878000Y-100978000D01*
X135000000Y-103500000D02*
X135100000Y-103400000D01*
X127815500Y-100915500D02*
X127150000Y-100250000D01*
D34*
X131980000Y-99120000D02*
X135000000Y-96100000D01*
X131500000Y-99120000D02*
X131980000Y-99120000D01*
D33*
X133100000Y-103127748D02*
X133100000Y-103062500D01*
D35*
X133975000Y-103500000D02*
X133537500Y-103500000D01*
D33*
X127100000Y-103100000D02*
X127602748Y-103100000D01*
X133100000Y-103062500D02*
X133100000Y-102371748D01*
D35*
X131537500Y-100642918D02*
X131537500Y-100262500D01*
D34*
X127900000Y-108280000D02*
X131400000Y-108280000D01*
X131400000Y-108280000D02*
X131430000Y-108250000D01*
D35*
%TO.N,Net-(DD3-XOUT)*%
X136200000Y-103900000D02*
X133975000Y-103900000D01*
%TO.N,Net-(DD3-XIN)*%
X136012679Y-104300000D02*
X133975000Y-104300000D01*
X136212550Y-104499871D02*
X136012679Y-104300000D01*
%TO.N,+1.1V*%
X126300000Y-101900000D02*
X125900000Y-101500000D01*
D34*
X121200000Y-104500000D02*
X121200000Y-99900000D01*
D35*
X133975000Y-103100000D02*
X134660000Y-103100000D01*
D34*
X124189999Y-106000000D02*
X122700000Y-106000000D01*
D35*
X134660000Y-103100000D02*
X135060000Y-102700000D01*
D34*
X125380000Y-104809999D02*
X124189999Y-106000000D01*
D35*
X127100000Y-101900000D02*
X126300000Y-101900000D01*
D34*
X125380000Y-106980000D02*
X125400000Y-107000000D01*
D35*
X135700000Y-102000000D02*
X135900000Y-102000000D01*
D34*
X125380000Y-104500000D02*
X125380000Y-106980000D01*
D35*
X125900000Y-101500000D02*
X125900000Y-100480000D01*
D34*
X122700000Y-106000000D02*
X121200000Y-104500000D01*
X121851000Y-99249000D02*
X124359001Y-99249000D01*
X125380000Y-104500000D02*
X125380000Y-104809999D01*
X121200000Y-99900000D02*
X121851000Y-99249000D01*
D35*
X135060000Y-102700000D02*
X135060000Y-102640000D01*
D34*
X125590001Y-100480000D02*
X125900000Y-100480000D01*
D35*
X135060000Y-102640000D02*
X135700000Y-102000000D01*
D34*
X124359001Y-99249000D02*
X125590001Y-100480000D01*
D35*
%TO.N,LVL_LED_1*%
X134300000Y-108300000D02*
X134600000Y-108300000D01*
X133137500Y-107137500D02*
X134300000Y-108300000D01*
%TO.N,LVL_LED_2*%
X132737500Y-107575000D02*
X132737500Y-107137500D01*
X133462500Y-108300000D02*
X132737500Y-107575000D01*
X133679755Y-108300000D02*
X133462500Y-108300000D01*
X133744377Y-108364622D02*
X133679755Y-108300000D01*
%TO.N,LVL_LED_3*%
X132337500Y-106462500D02*
X132337500Y-107137500D01*
X132366772Y-106433228D02*
X132337500Y-106462500D01*
X132397888Y-106433228D02*
X132366772Y-106433228D01*
%TO.N,LVL_LED_4*%
X131937500Y-107137500D02*
X131937500Y-107517918D01*
X132186082Y-107766500D02*
X132231514Y-107766500D01*
X132231514Y-107766500D02*
X132782088Y-108317074D01*
X131937500Y-107517918D02*
X132186082Y-107766500D01*
X132782088Y-108317074D02*
X132782088Y-108354478D01*
%TO.N,STATUS_LED_1*%
X132380312Y-96380312D02*
X133019688Y-96380312D01*
X133019688Y-96380312D02*
X133700000Y-95700000D01*
X130337500Y-100262500D02*
X130337500Y-98423124D01*
X130337500Y-98423124D02*
X131130312Y-97630312D01*
X131130312Y-97630312D02*
X132380312Y-96380312D01*
%TO.N,STATUS_LED_2*%
X129937500Y-100262500D02*
X129937500Y-98462500D01*
X129937500Y-98462500D02*
X132700000Y-95700000D01*
%TO.N,Net-(DD2-IO2)*%
X128400000Y-105500000D02*
X128500000Y-105400000D01*
X127100000Y-105500000D02*
X128400000Y-105500000D01*
%TO.N,Net-(DD2-IO3)*%
X127800000Y-104300000D02*
X127100000Y-104300000D01*
%TO.N,Net-(DD2-~{CS})*%
X127100000Y-106300000D02*
X127100000Y-106500000D01*
X126900000Y-108280000D02*
X126900000Y-107300000D01*
X126900000Y-107300000D02*
X127400000Y-106800000D01*
X127100000Y-106500000D02*
X127400000Y-106800000D01*
%TO.N,Net-(DD2-DO(IO1))*%
X127100000Y-105900000D02*
X128400000Y-105900000D01*
X128400000Y-105900000D02*
X128500000Y-106000000D01*
%TO.N,Net-(DD2-DI(IO0))*%
X127982171Y-105100000D02*
X127100000Y-105100000D01*
X128500000Y-104582171D02*
X127982171Y-105100000D01*
X128500000Y-103200000D02*
X128500000Y-104582171D01*
%TO.N,Net-(DD2-CLK)*%
X128239500Y-103959577D02*
X128022835Y-103742912D01*
X127100000Y-104700000D02*
X127139500Y-104739500D01*
X127139500Y-104739500D02*
X127982047Y-104739500D01*
X128239500Y-104482047D02*
X128239500Y-103959577D01*
X127982047Y-104739500D02*
X128239500Y-104482047D01*
D36*
%TO.N,USB-_*%
X127100000Y-102300000D02*
X126443749Y-102300000D01*
X126375199Y-102368550D02*
X126154450Y-102368550D01*
X125150000Y-101700000D02*
X125120000Y-101700000D01*
X125368550Y-101918550D02*
X125150000Y-101700000D01*
X126154450Y-102368550D02*
X125704450Y-101918550D01*
X125704450Y-101918550D02*
X125368550Y-101918550D01*
X126443749Y-102300000D02*
X126375199Y-102368550D01*
D35*
%TO.N,CLK4*%
X140112500Y-103287500D02*
X140112500Y-102932000D01*
X139500000Y-103900000D02*
X140112500Y-103287500D01*
X137433968Y-103900000D02*
X139500000Y-103900000D01*
X133975000Y-105100000D02*
X136233968Y-105100000D01*
X136233968Y-105100000D02*
X137433968Y-103900000D01*
%TO.N,CLK1*%
X132737500Y-99825000D02*
X133162500Y-99400000D01*
X132737500Y-100262500D02*
X132737500Y-99825000D01*
X133162500Y-99400000D02*
X135200000Y-99400000D01*
%TO.N,CLK2*%
X135806875Y-107654999D02*
X134451876Y-106300000D01*
X138100000Y-108055000D02*
X137700000Y-107655000D01*
X137700000Y-107655000D02*
X135806875Y-107654999D01*
X138100000Y-108600000D02*
X138100000Y-108055000D01*
X134451876Y-106300000D02*
X133975000Y-106300000D01*
%TO.N,DAT2*%
X135912500Y-107400000D02*
X137950000Y-107400000D01*
X134412500Y-105900000D02*
X135912500Y-107400000D01*
X133975000Y-105900000D02*
X134412500Y-105900000D01*
X137950000Y-107400000D02*
X139150000Y-108600000D01*
%TO.N,CLK3*%
X140128000Y-96328000D02*
X139300000Y-95500000D01*
X139300000Y-95500000D02*
X136301876Y-95500000D01*
X140128000Y-96552884D02*
X140128000Y-96328000D01*
X136301876Y-95500000D02*
X131937500Y-99864376D01*
X131937500Y-99864376D02*
X131937500Y-100262500D01*
%TO.N,DAT3*%
X138355000Y-98045000D02*
X138947116Y-97452884D01*
X136939376Y-98900000D02*
X137794376Y-98045000D01*
X133262500Y-98900000D02*
X136939376Y-98900000D01*
X132337500Y-99825000D02*
X133262500Y-98900000D01*
X137794376Y-98045000D02*
X138355000Y-98045000D01*
X132337500Y-100262500D02*
X132337500Y-99825000D01*
X138947116Y-97452884D02*
X139306000Y-97452884D01*
%TO.N,Net-(DD3-RUN)*%
X135100000Y-101900000D02*
X135200000Y-101800000D01*
X133975000Y-101900000D02*
X135100000Y-101900000D01*
%TO.N,SPH0645_WS*%
X133975000Y-101100000D02*
X135100000Y-101100000D01*
X137900000Y-98300000D02*
X139253116Y-98300000D01*
X139253116Y-98300000D02*
X139306000Y-98352884D01*
X139306000Y-98606000D02*
X139600000Y-98900000D01*
X135100000Y-101100000D02*
X137900000Y-98300000D01*
X139306000Y-98352884D02*
X139306000Y-98606000D01*
X140200000Y-108000000D02*
X140200000Y-108600000D01*
%TO.N,DAT4*%
X136194592Y-105500000D02*
X133975000Y-105500000D01*
X139290500Y-104608000D02*
X137086592Y-104608000D01*
X137086592Y-104608000D02*
X136194592Y-105500000D01*
D36*
%TO.N,USB+_*%
X126045550Y-102631450D02*
X125595550Y-102181450D01*
X125368550Y-102181450D02*
X125150000Y-102400000D01*
X126375199Y-102631450D02*
X126045550Y-102631450D01*
X125150000Y-102400000D02*
X125120000Y-102400000D01*
X126443749Y-102700000D02*
X126375199Y-102631450D01*
X125595550Y-102181450D02*
X125368550Y-102181450D01*
X127100000Y-102700000D02*
X126443749Y-102700000D01*
D35*
%TO.N,DAT1*%
X135600000Y-99900000D02*
X133500000Y-99900000D01*
X133500000Y-99900000D02*
X133137500Y-100262500D01*
D36*
%TO.N,USB+*%
X123704450Y-102181450D02*
X123204450Y-102681450D01*
X124480000Y-102400000D02*
X124134999Y-102400000D01*
X123916449Y-102181450D02*
X123704450Y-102181450D01*
X124134999Y-102400000D02*
X123916449Y-102181450D01*
X123204450Y-102681450D02*
X122357050Y-102681450D01*
X122357050Y-102681450D02*
X122200000Y-102838500D01*
%TO.N,USB-*%
X123595550Y-101918550D02*
X123095550Y-102418550D01*
X122357050Y-102418550D02*
X122200000Y-102261500D01*
X124134999Y-101700000D02*
X123916449Y-101918550D01*
X123095550Y-102418550D02*
X122357050Y-102418550D01*
X124480000Y-101700000D02*
X124134999Y-101700000D01*
X123916449Y-101918550D02*
X123595550Y-101918550D01*
D34*
%TO.N,Net-(R11-Pad1)*%
X126900000Y-109300000D02*
X126900000Y-110000000D01*
%TD*%
%TA.AperFunction,Conductor*%
%TO.N,+3.3V*%
G36*
X139581694Y-96118306D02*
G01*
X139600000Y-96162500D01*
X139600000Y-96837500D01*
X139581694Y-96881694D01*
X139537500Y-96900000D01*
X139000000Y-96900000D01*
X138518306Y-97381694D01*
X138474112Y-97400000D01*
X137925888Y-97400000D01*
X137881694Y-97381694D01*
X137718306Y-97218306D01*
X137700000Y-97174112D01*
X137700000Y-96325888D01*
X137718306Y-96281694D01*
X137881694Y-96118306D01*
X137925888Y-96100000D01*
X139537500Y-96100000D01*
X139581694Y-96118306D01*
G37*
%TD.AperFunction*%
%TD*%
%TA.AperFunction,Conductor*%
%TO.N,+3.3V*%
G36*
X131818306Y-98918306D02*
G01*
X131881694Y-98981694D01*
X131900000Y-99025888D01*
X131900000Y-99605874D01*
X131881694Y-99650066D01*
X131851826Y-99679935D01*
X131836797Y-99694964D01*
X131823158Y-99704077D01*
X131823360Y-99704379D01*
X131759531Y-99747028D01*
X131720298Y-99805744D01*
X131710000Y-99857519D01*
X131710000Y-100637500D01*
X131691694Y-100681694D01*
X131647500Y-100700000D01*
X131427500Y-100700000D01*
X131383306Y-100681694D01*
X131365000Y-100637500D01*
X131365000Y-99857520D01*
X131354701Y-99805743D01*
X131315470Y-99747030D01*
X131256757Y-99707799D01*
X131256756Y-99707798D01*
X131256755Y-99707798D01*
X131256754Y-99707797D01*
X131250302Y-99706514D01*
X131210531Y-99679935D01*
X131200000Y-99645216D01*
X131200000Y-99025888D01*
X131218306Y-98981694D01*
X131281694Y-98918306D01*
X131325888Y-98900000D01*
X131774112Y-98900000D01*
X131818306Y-98918306D01*
G37*
%TD.AperFunction*%
%TD*%
%TA.AperFunction,Conductor*%
%TO.N,+3.3V*%
G36*
X140418306Y-105418306D02*
G01*
X140481694Y-105481694D01*
X140500000Y-105525888D01*
X140500000Y-106574112D01*
X140481694Y-106618306D01*
X139918306Y-107181694D01*
X139874112Y-107200000D01*
X136008503Y-107200000D01*
X135964309Y-107181694D01*
X135818306Y-107035691D01*
X135800000Y-106991497D01*
X135800000Y-106496232D01*
X135818306Y-106452038D01*
X135862500Y-106433732D01*
X135874691Y-106434933D01*
X135887594Y-106437500D01*
X136132406Y-106437500D01*
X136198766Y-106424300D01*
X136219370Y-106410533D01*
X136254093Y-106400000D01*
X138299999Y-106400000D01*
X138300000Y-106400000D01*
X138324146Y-106375853D01*
X138344423Y-106362307D01*
X138349746Y-106360102D01*
X138349748Y-106360102D01*
X138391922Y-106331922D01*
X138420102Y-106289748D01*
X138420102Y-106289743D01*
X138422308Y-106284420D01*
X138435853Y-106264146D01*
X138700000Y-106000000D01*
X138700000Y-105525888D01*
X138718306Y-105481694D01*
X138781694Y-105418306D01*
X138825888Y-105400000D01*
X140374112Y-105400000D01*
X140418306Y-105418306D01*
G37*
%TD.AperFunction*%
%TD*%
%TA.AperFunction,Conductor*%
%TO.N,+3.3V*%
G36*
X127418306Y-98318306D02*
G01*
X127681694Y-98581694D01*
X127700000Y-98625888D01*
X127700000Y-98800000D01*
X127800000Y-98900000D01*
X128874112Y-98900000D01*
X128918306Y-98918306D01*
X128981694Y-98981694D01*
X129000000Y-99025888D01*
X129000000Y-99474112D01*
X128981694Y-99518306D01*
X128918306Y-99581694D01*
X128874112Y-99600000D01*
X128200000Y-99600000D01*
X128000000Y-99800000D01*
X128000000Y-101174111D01*
X127981694Y-101218305D01*
X127545805Y-101654194D01*
X127501611Y-101672500D01*
X126698388Y-101672500D01*
X126654194Y-101654194D01*
X126318306Y-101318306D01*
X126300000Y-101274112D01*
X126300000Y-100776227D01*
X126310534Y-100741503D01*
X126321979Y-100724375D01*
X126321980Y-100724372D01*
X126337500Y-100646348D01*
X126337500Y-100313652D01*
X126321980Y-100235627D01*
X126310531Y-100218493D01*
X126300000Y-100183772D01*
X126300000Y-99816227D01*
X126310534Y-99781503D01*
X126321979Y-99764375D01*
X126321980Y-99764372D01*
X126337500Y-99686348D01*
X126337500Y-99353652D01*
X126328894Y-99310386D01*
X126338226Y-99263470D01*
X126345989Y-99254010D01*
X126601290Y-98998709D01*
X126601794Y-98998213D01*
X126605873Y-98994250D01*
X126652857Y-98962857D01*
X126679974Y-98922272D01*
X126684715Y-98917668D01*
X126701260Y-98911094D01*
X126716067Y-98901201D01*
X126728262Y-98900000D01*
X126800000Y-98900000D01*
X126800000Y-98425888D01*
X126818306Y-98381694D01*
X126881694Y-98318306D01*
X126925888Y-98300000D01*
X127374112Y-98300000D01*
X127418306Y-98318306D01*
G37*
%TD.AperFunction*%
%TD*%
%TA.AperFunction,Conductor*%
%TO.N,+3.3V*%
G36*
X138318306Y-100418306D02*
G01*
X138481694Y-100581694D01*
X138500000Y-100625888D01*
X138500000Y-102100000D01*
X138800000Y-102400000D01*
X139474112Y-102400000D01*
X139518306Y-102418306D01*
X139581694Y-102481694D01*
X139600000Y-102525888D01*
X139600000Y-103237500D01*
X139581694Y-103281694D01*
X139537500Y-103300000D01*
X137832889Y-103300000D01*
X137788695Y-103281694D01*
X137691590Y-103184589D01*
X137673284Y-103140395D01*
X137673284Y-103006377D01*
X137660084Y-102940017D01*
X137660082Y-102940012D01*
X137646317Y-102919411D01*
X137635784Y-102884689D01*
X137635784Y-100690104D01*
X137654090Y-100645910D01*
X137881694Y-100418306D01*
X137925888Y-100400000D01*
X138274112Y-100400000D01*
X138318306Y-100418306D01*
G37*
%TD.AperFunction*%
%TD*%
%TA.AperFunction,Conductor*%
%TO.N,+3.3V*%
G36*
X131681694Y-106718306D02*
G01*
X131700000Y-106762500D01*
X131700000Y-108171808D01*
X131697871Y-108187983D01*
X131694500Y-108200563D01*
X131694500Y-108200565D01*
X131694500Y-108299435D01*
X131697870Y-108312014D01*
X131700000Y-108328188D01*
X131700000Y-108600000D01*
X131900000Y-108800000D01*
X134974112Y-108800000D01*
X135018306Y-108818306D01*
X135081694Y-108881694D01*
X135100000Y-108925888D01*
X135100000Y-109274112D01*
X135081694Y-109318306D01*
X135018306Y-109381694D01*
X134974112Y-109400000D01*
X131425888Y-109400000D01*
X131381694Y-109381694D01*
X131118306Y-109118306D01*
X131100000Y-109074112D01*
X131100000Y-107925888D01*
X131118306Y-107881694D01*
X131300000Y-107700000D01*
X131300000Y-107694328D01*
X131314369Y-107659638D01*
X131312050Y-107658089D01*
X131354700Y-107594258D01*
X131354701Y-107594257D01*
X131365000Y-107542480D01*
X131365000Y-106762500D01*
X131383306Y-106718306D01*
X131427500Y-106700000D01*
X131637500Y-106700000D01*
X131681694Y-106718306D01*
G37*
%TD.AperFunction*%
%TD*%
%TA.AperFunction,Conductor*%
%TO.N,+1.1V*%
G36*
X127489221Y-103805339D02*
G01*
X127489831Y-103805132D01*
X127493939Y-103805399D01*
X127499459Y-103806497D01*
X127512319Y-103808405D01*
X127524512Y-103809606D01*
X127534913Y-103808063D01*
X127541555Y-103808495D01*
X127584468Y-103829629D01*
X127600000Y-103870863D01*
X127600000Y-103945795D01*
X127581694Y-103989989D01*
X127572621Y-103996951D01*
X127572685Y-103997034D01*
X127569437Y-103999525D01*
X127550657Y-104018306D01*
X127514768Y-104054194D01*
X127470576Y-104072500D01*
X126695020Y-104072500D01*
X126643243Y-104082798D01*
X126643241Y-104082799D01*
X126633949Y-104089008D01*
X126633921Y-104089027D01*
X126617500Y-104100000D01*
X126600000Y-104100000D01*
X126600000Y-104111693D01*
X126584530Y-104122030D01*
X126582085Y-104125688D01*
X126582085Y-104125689D01*
X126545298Y-104180744D01*
X126535000Y-104232519D01*
X126535000Y-104237500D01*
X126516694Y-104281694D01*
X126472500Y-104300000D01*
X126200000Y-104300000D01*
X125618306Y-104881694D01*
X125574112Y-104900000D01*
X125225888Y-104900000D01*
X125181694Y-104881694D01*
X125018306Y-104718306D01*
X125000000Y-104674112D01*
X125000000Y-104325888D01*
X125018306Y-104281694D01*
X125281694Y-104018306D01*
X125325888Y-104000000D01*
X126300000Y-104000000D01*
X126349194Y-103950806D01*
X126393388Y-103932500D01*
X126499009Y-103932500D01*
X126499025Y-103932500D01*
X126512013Y-103931862D01*
X126524206Y-103930661D01*
X126584831Y-103908969D01*
X126624605Y-103882393D01*
X126661162Y-103845836D01*
X126669887Y-103832776D01*
X126709659Y-103806201D01*
X126721854Y-103805000D01*
X127485776Y-103805000D01*
X127489221Y-103805339D01*
G37*
%TD.AperFunction*%
%TD*%
%TA.AperFunction,Conductor*%
%TO.N,+3.3V*%
G36*
X127581694Y-103018306D02*
G01*
X127600000Y-103062500D01*
X127600000Y-103615244D01*
X127581694Y-103659438D01*
X127537500Y-103677744D01*
X127525307Y-103676543D01*
X127504981Y-103672500D01*
X127504980Y-103672500D01*
X126695020Y-103672500D01*
X126643244Y-103682798D01*
X126643243Y-103682799D01*
X126590104Y-103718306D01*
X126584529Y-103722031D01*
X126550992Y-103772223D01*
X126511218Y-103798799D01*
X126499025Y-103800000D01*
X125225888Y-103800000D01*
X125181694Y-103781694D01*
X125118306Y-103718306D01*
X125100000Y-103674112D01*
X125100000Y-103462500D01*
X125118306Y-103418306D01*
X125162500Y-103400000D01*
X126000000Y-103400000D01*
X126381694Y-103018306D01*
X126425888Y-103000000D01*
X127537500Y-103000000D01*
X127581694Y-103018306D01*
G37*
%TD.AperFunction*%
%TD*%
%TA.AperFunction,Conductor*%
%TO.N,Earth*%
G36*
X133424851Y-104028232D02*
G01*
X133432624Y-104037703D01*
X133451048Y-104065277D01*
X133460380Y-104112194D01*
X133451048Y-104134723D01*
X133420299Y-104180741D01*
X133420298Y-104180743D01*
X133410000Y-104232519D01*
X133410000Y-104367480D01*
X133420298Y-104419255D01*
X133420298Y-104419256D01*
X133420299Y-104419257D01*
X133459530Y-104477970D01*
X133518243Y-104517201D01*
X133570020Y-104527500D01*
X134379980Y-104527500D01*
X134431757Y-104517201D01*
X134443573Y-104509306D01*
X134455206Y-104501533D01*
X134489929Y-104491000D01*
X135774563Y-104491000D01*
X135818757Y-104509306D01*
X135836529Y-104545346D01*
X135837050Y-104549311D01*
X135862638Y-104644804D01*
X135862639Y-104644808D01*
X135862640Y-104644809D01*
X135908833Y-104724818D01*
X135912076Y-104730434D01*
X135912079Y-104730438D01*
X135983947Y-104802306D01*
X136002253Y-104846500D01*
X135983947Y-104890694D01*
X135939753Y-104909000D01*
X134489929Y-104909000D01*
X134455206Y-104898467D01*
X134431758Y-104882799D01*
X134431756Y-104882798D01*
X134379980Y-104872500D01*
X133570020Y-104872500D01*
X133518244Y-104882798D01*
X133459530Y-104922030D01*
X133420298Y-104980744D01*
X133410000Y-105032519D01*
X133410000Y-105167480D01*
X133420298Y-105219256D01*
X133420299Y-105219258D01*
X133451048Y-105265277D01*
X133460380Y-105312193D01*
X133451048Y-105334723D01*
X133420299Y-105380741D01*
X133420298Y-105380743D01*
X133410000Y-105432519D01*
X133410000Y-105567480D01*
X133420298Y-105619256D01*
X133420299Y-105619258D01*
X133451048Y-105665277D01*
X133460380Y-105712193D01*
X133451048Y-105734723D01*
X133420299Y-105780741D01*
X133420298Y-105780743D01*
X133410000Y-105832519D01*
X133410000Y-105967480D01*
X133420298Y-106019256D01*
X133420299Y-106019258D01*
X133451048Y-106065277D01*
X133460380Y-106112193D01*
X133451048Y-106134723D01*
X133420299Y-106180741D01*
X133420298Y-106180743D01*
X133410000Y-106232519D01*
X133410000Y-106367480D01*
X133420298Y-106419255D01*
X133420298Y-106419256D01*
X133420299Y-106419257D01*
X133459530Y-106477970D01*
X133518243Y-106517201D01*
X133570020Y-106527500D01*
X134383050Y-106527500D01*
X134383050Y-106529543D01*
X134422986Y-106541652D01*
X134427538Y-106545777D01*
X135644953Y-107763192D01*
X135698682Y-107816921D01*
X135768883Y-107845999D01*
X136072075Y-107845999D01*
X136116269Y-107864305D01*
X136134575Y-107908499D01*
X136116269Y-107952693D01*
X136099529Y-107969432D01*
X136099522Y-107969441D01*
X136050092Y-108055055D01*
X136050089Y-108055061D01*
X136042823Y-108082180D01*
X136026647Y-108110196D01*
X135374810Y-108762035D01*
X135330616Y-108780341D01*
X135193613Y-108780341D01*
X135149419Y-108762035D01*
X135111997Y-108724613D01*
X135069014Y-108695893D01*
X135069012Y-108695892D01*
X135024818Y-108677586D01*
X135024816Y-108677585D01*
X134974112Y-108667500D01*
X134914426Y-108667500D01*
X134870232Y-108649194D01*
X134851926Y-108605000D01*
X134870232Y-108560806D01*
X134900470Y-108530567D01*
X134900475Y-108530562D01*
X134949910Y-108444938D01*
X134975500Y-108349435D01*
X134975500Y-108250565D01*
X134949910Y-108155062D01*
X134900475Y-108069438D01*
X134900473Y-108069436D01*
X134900470Y-108069432D01*
X134830567Y-107999529D01*
X134830563Y-107999526D01*
X134830562Y-107999525D01*
X134778446Y-107969436D01*
X134744937Y-107950089D01*
X134744933Y-107950088D01*
X134649441Y-107924501D01*
X134649436Y-107924500D01*
X134649435Y-107924500D01*
X134550565Y-107924500D01*
X134550564Y-107924500D01*
X134550558Y-107924501D01*
X134455066Y-107950088D01*
X134455062Y-107950089D01*
X134369436Y-107999526D01*
X134369435Y-107999526D01*
X134363730Y-108005232D01*
X134319534Y-108023535D01*
X134275344Y-108005229D01*
X133383306Y-107113191D01*
X133365000Y-107068997D01*
X133365000Y-106732520D01*
X133354701Y-106680743D01*
X133315470Y-106622030D01*
X133256757Y-106582799D01*
X133256756Y-106582798D01*
X133204980Y-106572500D01*
X133070020Y-106572500D01*
X133018243Y-106582798D01*
X133018241Y-106582799D01*
X132972223Y-106613548D01*
X132925307Y-106622880D01*
X132912118Y-106618695D01*
X132907223Y-106616519D01*
X132856757Y-106582799D01*
X132810754Y-106573648D01*
X132804392Y-106570821D01*
X132792347Y-106558145D01*
X132777807Y-106548430D01*
X132776401Y-106541365D01*
X132771441Y-106536145D01*
X132771886Y-106518664D01*
X132768475Y-106501513D01*
X132769398Y-106497553D01*
X132773388Y-106482663D01*
X132773388Y-106383793D01*
X132747798Y-106288290D01*
X132698363Y-106202666D01*
X132698361Y-106202664D01*
X132698358Y-106202660D01*
X132628455Y-106132757D01*
X132628451Y-106132754D01*
X132628450Y-106132753D01*
X132542826Y-106083318D01*
X132542825Y-106083317D01*
X132542824Y-106083317D01*
X132457949Y-106060574D01*
X132419999Y-106031453D01*
X132413756Y-105984027D01*
X132429930Y-105956012D01*
X132939242Y-105446701D01*
X132939247Y-105446697D01*
X132944387Y-105441556D01*
X132944389Y-105441556D01*
X132996056Y-105389889D01*
X133032589Y-105326611D01*
X133051500Y-105256034D01*
X133051500Y-104339084D01*
X133069806Y-104294890D01*
X133202984Y-104161712D01*
X133336464Y-104028231D01*
X133380657Y-104009926D01*
X133424851Y-104028232D01*
G37*
%TD.AperFunction*%
%TA.AperFunction,Conductor*%
G36*
X131939194Y-107789727D02*
G01*
X132077889Y-107928422D01*
X132143962Y-107955790D01*
X132164236Y-107969337D01*
X132400800Y-108205901D01*
X132419106Y-108250095D01*
X132416976Y-108266271D01*
X132406589Y-108305036D01*
X132406588Y-108305044D01*
X132406588Y-108403911D01*
X132406589Y-108403919D01*
X132432176Y-108499411D01*
X132432177Y-108499415D01*
X132442574Y-108517422D01*
X132472065Y-108568503D01*
X132475095Y-108573750D01*
X132481338Y-108621176D01*
X132452218Y-108659127D01*
X132420968Y-108667500D01*
X131980772Y-108667500D01*
X131936578Y-108649194D01*
X131850806Y-108563422D01*
X131832500Y-108519228D01*
X131832500Y-108328187D01*
X131832399Y-108326649D01*
X131831366Y-108310888D01*
X131829236Y-108294714D01*
X131828200Y-108289509D01*
X131827000Y-108277316D01*
X131827000Y-108222680D01*
X131828202Y-108210483D01*
X131829235Y-108205289D01*
X131829238Y-108205274D01*
X131831367Y-108189099D01*
X131832500Y-108171808D01*
X131832500Y-107833921D01*
X131850806Y-107789727D01*
X131895000Y-107771421D01*
X131939194Y-107789727D01*
G37*
%TD.AperFunction*%
%TA.AperFunction,Conductor*%
G36*
X131288214Y-101255501D02*
G01*
X131361282Y-101255501D01*
X131361286Y-101255500D01*
X131565419Y-101255500D01*
X131609613Y-101273806D01*
X132804194Y-102468386D01*
X132822500Y-102512580D01*
X132822500Y-103087372D01*
X132822499Y-103087390D01*
X132822499Y-103164287D01*
X132841410Y-103234857D01*
X132841411Y-103234859D01*
X132877943Y-103298136D01*
X133035613Y-103455806D01*
X133053919Y-103500000D01*
X133035613Y-103544194D01*
X132551943Y-104027863D01*
X132515411Y-104091140D01*
X132515410Y-104091142D01*
X132496499Y-104161712D01*
X132496499Y-104239817D01*
X132496500Y-104239830D01*
X132496500Y-105078667D01*
X132478194Y-105122861D01*
X131996861Y-105604194D01*
X131952667Y-105622500D01*
X131779426Y-105622500D01*
X131735232Y-105604194D01*
X131730567Y-105599529D01*
X131730563Y-105599526D01*
X131730562Y-105599525D01*
X131687750Y-105574807D01*
X131644937Y-105550089D01*
X131644933Y-105550088D01*
X131549441Y-105524501D01*
X131549436Y-105524500D01*
X131549435Y-105524500D01*
X131450565Y-105524500D01*
X131450564Y-105524500D01*
X131450558Y-105524501D01*
X131355066Y-105550088D01*
X131355062Y-105550089D01*
X131269436Y-105599526D01*
X131269432Y-105599529D01*
X131199529Y-105669432D01*
X131199526Y-105669436D01*
X131150089Y-105755062D01*
X131150088Y-105755066D01*
X131124501Y-105850558D01*
X131124500Y-105850566D01*
X131124500Y-105949433D01*
X131124501Y-105949441D01*
X131150088Y-106044933D01*
X131150089Y-106044937D01*
X131169161Y-106077970D01*
X131199525Y-106130562D01*
X131241694Y-106172731D01*
X131260000Y-106216924D01*
X131260000Y-106510000D01*
X131241694Y-106554194D01*
X131197500Y-106572500D01*
X131070020Y-106572500D01*
X131018243Y-106582798D01*
X131018241Y-106582799D01*
X130972223Y-106613548D01*
X130925307Y-106622880D01*
X130902777Y-106613548D01*
X130856758Y-106582799D01*
X130856756Y-106582798D01*
X130804980Y-106572500D01*
X130670020Y-106572500D01*
X130618243Y-106582798D01*
X130618241Y-106582799D01*
X130572223Y-106613548D01*
X130525307Y-106622880D01*
X130502777Y-106613548D01*
X130456758Y-106582799D01*
X130456756Y-106582798D01*
X130404980Y-106572500D01*
X130270020Y-106572500D01*
X130218243Y-106582798D01*
X130218241Y-106582799D01*
X130172223Y-106613548D01*
X130125307Y-106622880D01*
X130102777Y-106613548D01*
X130056758Y-106582799D01*
X130056756Y-106582798D01*
X130004980Y-106572500D01*
X129870020Y-106572500D01*
X129818243Y-106582798D01*
X129818241Y-106582799D01*
X129772223Y-106613548D01*
X129725307Y-106622880D01*
X129702777Y-106613548D01*
X129656758Y-106582799D01*
X129656756Y-106582798D01*
X129604980Y-106572500D01*
X129470020Y-106572500D01*
X129418243Y-106582798D01*
X129418241Y-106582799D01*
X129372223Y-106613548D01*
X129325307Y-106622880D01*
X129302777Y-106613548D01*
X129256758Y-106582799D01*
X129256756Y-106582798D01*
X129204980Y-106572500D01*
X129070020Y-106572500D01*
X129018243Y-106582798D01*
X129018241Y-106582799D01*
X128972223Y-106613548D01*
X128925307Y-106622880D01*
X128902777Y-106613548D01*
X128856758Y-106582799D01*
X128856756Y-106582798D01*
X128804980Y-106572500D01*
X128670020Y-106572500D01*
X128618243Y-106582798D01*
X128618241Y-106582799D01*
X128572223Y-106613548D01*
X128525307Y-106622880D01*
X128502777Y-106613548D01*
X128456758Y-106582799D01*
X128456756Y-106582798D01*
X128404980Y-106572500D01*
X128270020Y-106572500D01*
X128218243Y-106582798D01*
X128218241Y-106582799D01*
X128172223Y-106613548D01*
X128125307Y-106622880D01*
X128102777Y-106613548D01*
X128056758Y-106582799D01*
X128056756Y-106582798D01*
X128004980Y-106572500D01*
X127870020Y-106572500D01*
X127818243Y-106582798D01*
X127818241Y-106582799D01*
X127794310Y-106598790D01*
X127747393Y-106608122D01*
X127713330Y-106588853D01*
X127708815Y-106583885D01*
X127700475Y-106569438D01*
X127648091Y-106517054D01*
X127647087Y-106515949D01*
X127639467Y-106494739D01*
X127630844Y-106473920D01*
X127631368Y-106472192D01*
X127630915Y-106470931D01*
X127633259Y-106465958D01*
X127641379Y-106439194D01*
X127654701Y-106419257D01*
X127665000Y-106367480D01*
X127665000Y-106232520D01*
X127654701Y-106180743D01*
X127654700Y-106180741D01*
X127653324Y-106177418D01*
X127653323Y-106129583D01*
X127687148Y-106095758D01*
X127711066Y-106091000D01*
X128087679Y-106091000D01*
X128131873Y-106109306D01*
X128148048Y-106137320D01*
X128150090Y-106144938D01*
X128193979Y-106220956D01*
X128199526Y-106230563D01*
X128199529Y-106230567D01*
X128269432Y-106300470D01*
X128269436Y-106300473D01*
X128269438Y-106300475D01*
X128355062Y-106349910D01*
X128450565Y-106375500D01*
X128450566Y-106375500D01*
X128549434Y-106375500D01*
X128549435Y-106375500D01*
X128644938Y-106349910D01*
X128730562Y-106300475D01*
X128800475Y-106230562D01*
X128849910Y-106144938D01*
X128875500Y-106049435D01*
X128875500Y-105950565D01*
X128849910Y-105855062D01*
X128800475Y-105769438D01*
X128800473Y-105769436D01*
X128800471Y-105769433D01*
X128775232Y-105744195D01*
X128756925Y-105700001D01*
X128775230Y-105655807D01*
X128800471Y-105630566D01*
X128800475Y-105630562D01*
X128849910Y-105544938D01*
X128875500Y-105449435D01*
X128875500Y-105350565D01*
X128849910Y-105255062D01*
X128800475Y-105169438D01*
X128800473Y-105169436D01*
X128800470Y-105169432D01*
X128730567Y-105099529D01*
X128730563Y-105099526D01*
X128730562Y-105099525D01*
X128670628Y-105064922D01*
X128644937Y-105050089D01*
X128644933Y-105050088D01*
X128549441Y-105024501D01*
X128549436Y-105024500D01*
X128549435Y-105024500D01*
X128478674Y-105024500D01*
X128434480Y-105006194D01*
X128416174Y-104962000D01*
X128434480Y-104917806D01*
X128546144Y-104806142D01*
X128661922Y-104690364D01*
X128691000Y-104620163D01*
X128691000Y-104544179D01*
X128691000Y-103559400D01*
X128709306Y-103515206D01*
X128722249Y-103505274D01*
X128730562Y-103500475D01*
X128800475Y-103430562D01*
X128849910Y-103344938D01*
X128875500Y-103249435D01*
X128875500Y-103150565D01*
X128849910Y-103055062D01*
X128800475Y-102969438D01*
X128800473Y-102969436D01*
X128800470Y-102969432D01*
X128730567Y-102899529D01*
X128730563Y-102899526D01*
X128730562Y-102899525D01*
X128671965Y-102865694D01*
X128644937Y-102850089D01*
X128644933Y-102850088D01*
X128549441Y-102824501D01*
X128549436Y-102824500D01*
X128549435Y-102824500D01*
X128450565Y-102824500D01*
X128450564Y-102824500D01*
X128450558Y-102824501D01*
X128355066Y-102850088D01*
X128355062Y-102850089D01*
X128269436Y-102899526D01*
X128269432Y-102899529D01*
X128199695Y-102969267D01*
X128155501Y-102987573D01*
X128111307Y-102969267D01*
X128093001Y-102925073D01*
X128093001Y-102846890D01*
X128093000Y-102846872D01*
X128093000Y-101318000D01*
X128111306Y-101273806D01*
X128155500Y-101255500D01*
X131288210Y-101255500D01*
X131288214Y-101255501D01*
G37*
%TD.AperFunction*%
%TA.AperFunction,Conductor*%
G36*
X122414018Y-99594806D02*
G01*
X122432324Y-99639000D01*
X122414018Y-99683194D01*
X122339375Y-99757836D01*
X122339373Y-99757838D01*
X122246298Y-99897135D01*
X122246295Y-99897139D01*
X122182183Y-100051919D01*
X122149500Y-100216232D01*
X122149500Y-100383767D01*
X122182183Y-100548080D01*
X122246295Y-100702860D01*
X122246296Y-100702862D01*
X122246297Y-100702863D01*
X122292835Y-100772512D01*
X122337981Y-100840078D01*
X122339374Y-100842162D01*
X122457838Y-100960626D01*
X122597137Y-101053703D01*
X122751918Y-101117816D01*
X122916233Y-101150500D01*
X123083767Y-101150500D01*
X123248082Y-101117816D01*
X123402863Y-101053703D01*
X123542162Y-100960626D01*
X123660626Y-100842162D01*
X123753703Y-100702863D01*
X123817816Y-100548082D01*
X123850500Y-100383767D01*
X123850500Y-100216233D01*
X123817816Y-100051918D01*
X123753703Y-99897137D01*
X123660626Y-99757838D01*
X123585982Y-99683194D01*
X123567676Y-99639000D01*
X123585982Y-99594806D01*
X123630176Y-99576500D01*
X124197458Y-99576500D01*
X124241652Y-99594806D01*
X125388911Y-100742065D01*
X125463591Y-100785181D01*
X125510082Y-100797637D01*
X125531604Y-100810064D01*
X125532024Y-100809437D01*
X125581001Y-100842162D01*
X125625627Y-100871980D01*
X125658693Y-100878557D01*
X125698467Y-100905133D01*
X125709000Y-100939856D01*
X125709000Y-101537991D01*
X125738077Y-101608191D01*
X125738079Y-101608194D01*
X125746291Y-101616406D01*
X125764597Y-101660600D01*
X125746291Y-101704794D01*
X125702097Y-101723100D01*
X125540000Y-101723100D01*
X125495806Y-101704794D01*
X125477500Y-101660600D01*
X125477500Y-101577594D01*
X125464300Y-101511234D01*
X125463141Y-101509500D01*
X125441274Y-101476773D01*
X125414018Y-101435982D01*
X125376392Y-101410841D01*
X125338767Y-101385700D01*
X125338765Y-101385699D01*
X125272406Y-101372500D01*
X124967594Y-101372500D01*
X124901234Y-101385699D01*
X124901232Y-101385700D01*
X124834723Y-101430141D01*
X124787807Y-101439473D01*
X124765277Y-101430141D01*
X124698767Y-101385700D01*
X124698765Y-101385699D01*
X124632406Y-101372500D01*
X124327594Y-101372500D01*
X124261234Y-101385699D01*
X124261232Y-101385700D01*
X124185982Y-101435981D01*
X124185979Y-101435984D01*
X124158726Y-101476773D01*
X124118952Y-101503349D01*
X124106759Y-101504550D01*
X124096122Y-101504550D01*
X124054041Y-101521980D01*
X124032999Y-101530696D01*
X124024282Y-101534307D01*
X123853797Y-101704794D01*
X123809603Y-101723100D01*
X123556670Y-101723100D01*
X123506896Y-101743718D01*
X123506895Y-101743719D01*
X123484837Y-101752855D01*
X123484834Y-101752857D01*
X123032898Y-102204794D01*
X122988704Y-102223100D01*
X122626415Y-102223100D01*
X122582221Y-102204794D01*
X122566045Y-102176777D01*
X122556749Y-102142085D01*
X122549910Y-102116562D01*
X122500475Y-102030938D01*
X122500473Y-102030936D01*
X122500470Y-102030932D01*
X122430567Y-101961029D01*
X122430563Y-101961026D01*
X122430562Y-101961025D01*
X122387750Y-101936307D01*
X122344937Y-101911589D01*
X122344933Y-101911588D01*
X122249441Y-101886001D01*
X122249436Y-101886000D01*
X122249435Y-101886000D01*
X122150565Y-101886000D01*
X122150564Y-101886000D01*
X122150558Y-101886001D01*
X122055066Y-101911588D01*
X122055062Y-101911589D01*
X121969436Y-101961026D01*
X121969432Y-101961029D01*
X121899529Y-102030932D01*
X121899526Y-102030936D01*
X121850089Y-102116562D01*
X121850088Y-102116566D01*
X121824501Y-102212058D01*
X121824500Y-102212066D01*
X121824500Y-102310933D01*
X121824501Y-102310941D01*
X121850088Y-102406433D01*
X121850089Y-102406437D01*
X121850090Y-102406438D01*
X121898736Y-102490696D01*
X121899526Y-102492063D01*
X121899529Y-102492067D01*
X121913268Y-102505806D01*
X121931574Y-102550000D01*
X121913268Y-102594194D01*
X121899529Y-102607932D01*
X121899526Y-102607936D01*
X121850089Y-102693562D01*
X121850088Y-102693566D01*
X121824501Y-102789058D01*
X121824500Y-102789066D01*
X121824500Y-102887933D01*
X121824501Y-102887941D01*
X121850088Y-102983433D01*
X121850089Y-102983437D01*
X121867044Y-103012803D01*
X121891444Y-103055066D01*
X121899526Y-103069063D01*
X121899529Y-103069067D01*
X121969432Y-103138970D01*
X121969436Y-103138973D01*
X121969438Y-103138975D01*
X122055062Y-103188410D01*
X122150565Y-103214000D01*
X122150566Y-103214000D01*
X122249434Y-103214000D01*
X122249435Y-103214000D01*
X122344938Y-103188410D01*
X122430562Y-103138975D01*
X122500475Y-103069062D01*
X122549910Y-102983438D01*
X122566045Y-102923223D01*
X122595165Y-102885273D01*
X122626415Y-102876900D01*
X123243326Y-102876900D01*
X123243327Y-102876900D01*
X123294123Y-102855859D01*
X123315164Y-102847144D01*
X123766256Y-102396051D01*
X123810449Y-102377746D01*
X123854643Y-102396052D01*
X124024285Y-102565694D01*
X124053015Y-102577594D01*
X124096122Y-102595450D01*
X124115675Y-102595450D01*
X124124233Y-102597942D01*
X124136466Y-102607755D01*
X124150953Y-102613756D01*
X124158726Y-102623227D01*
X124185979Y-102664015D01*
X124185982Y-102664018D01*
X124261232Y-102714299D01*
X124261234Y-102714300D01*
X124327594Y-102727500D01*
X124632406Y-102727500D01*
X124698766Y-102714300D01*
X124765278Y-102669857D01*
X124812193Y-102660526D01*
X124834719Y-102669855D01*
X124901234Y-102714300D01*
X124967594Y-102727500D01*
X125272406Y-102727500D01*
X125338766Y-102714300D01*
X125414018Y-102664018D01*
X125464300Y-102588766D01*
X125477500Y-102522406D01*
X125477500Y-102490696D01*
X125495806Y-102446502D01*
X125540000Y-102428196D01*
X125584194Y-102446502D01*
X125934836Y-102797144D01*
X125961511Y-102808193D01*
X126006673Y-102826900D01*
X126234828Y-102826900D01*
X126279022Y-102845206D01*
X126297328Y-102889400D01*
X126279022Y-102933594D01*
X125963422Y-103249194D01*
X125919228Y-103267500D01*
X125162500Y-103267500D01*
X125111797Y-103277585D01*
X125111795Y-103277585D01*
X125111794Y-103277586D01*
X125105365Y-103280249D01*
X125067603Y-103295890D01*
X125067586Y-103295898D01*
X125042742Y-103309464D01*
X125042740Y-103309466D01*
X125042739Y-103309467D01*
X125013688Y-103345517D01*
X124995892Y-103367600D01*
X124983626Y-103397208D01*
X124977858Y-103408000D01*
X124975703Y-103411226D01*
X124975700Y-103411233D01*
X124962500Y-103477593D01*
X124962500Y-103722406D01*
X124975699Y-103788765D01*
X124975700Y-103788767D01*
X125000841Y-103826392D01*
X125025982Y-103864018D01*
X125089804Y-103906663D01*
X125096108Y-103910875D01*
X125122684Y-103950649D01*
X125113352Y-103997565D01*
X125105579Y-104007036D01*
X124924613Y-104188002D01*
X124895893Y-104230985D01*
X124895891Y-104230990D01*
X124877585Y-104275182D01*
X124877585Y-104275183D01*
X124867500Y-104325887D01*
X124867500Y-104674112D01*
X124877585Y-104724816D01*
X124877586Y-104724818D01*
X124895257Y-104767480D01*
X124897067Y-104771848D01*
X124895994Y-104772292D01*
X124900301Y-104816115D01*
X124884690Y-104842152D01*
X124072650Y-105654194D01*
X124028456Y-105672500D01*
X123430123Y-105672500D01*
X123385929Y-105654194D01*
X123367623Y-105610000D01*
X123385929Y-105565806D01*
X123400665Y-105554878D01*
X123402861Y-105553704D01*
X123402861Y-105553703D01*
X123402863Y-105553703D01*
X123542162Y-105460626D01*
X123660626Y-105342162D01*
X123753703Y-105202863D01*
X123817816Y-105048082D01*
X123850500Y-104883767D01*
X123850500Y-104716233D01*
X123817816Y-104551918D01*
X123764173Y-104422414D01*
X123753704Y-104397139D01*
X123753703Y-104397138D01*
X123753703Y-104397137D01*
X123660626Y-104257838D01*
X123542162Y-104139374D01*
X123535201Y-104134723D01*
X123469978Y-104091142D01*
X123402863Y-104046297D01*
X123402862Y-104046296D01*
X123402860Y-104046295D01*
X123248080Y-103982183D01*
X123083767Y-103949500D01*
X122916233Y-103949500D01*
X122751919Y-103982183D01*
X122597139Y-104046295D01*
X122597135Y-104046298D01*
X122457838Y-104139373D01*
X122339373Y-104257838D01*
X122246298Y-104397135D01*
X122246295Y-104397139D01*
X122182183Y-104551919D01*
X122149500Y-104716232D01*
X122149500Y-104835457D01*
X122131194Y-104879651D01*
X122087000Y-104897957D01*
X122042806Y-104879651D01*
X121545806Y-104382651D01*
X121527500Y-104338457D01*
X121527500Y-100061543D01*
X121545806Y-100017349D01*
X121968349Y-99594806D01*
X122012543Y-99576500D01*
X122369824Y-99576500D01*
X122414018Y-99594806D01*
G37*
%TD.AperFunction*%
%TA.AperFunction,Conductor*%
G36*
X139239191Y-95709306D02*
G01*
X139390691Y-95860806D01*
X139408997Y-95905000D01*
X139390691Y-95949194D01*
X139346497Y-95967500D01*
X138566548Y-95967500D01*
X138522354Y-95949194D01*
X138514580Y-95939722D01*
X138512857Y-95937143D01*
X138508315Y-95934108D01*
X138424375Y-95878021D01*
X138424371Y-95878019D01*
X138346348Y-95862500D01*
X138013652Y-95862500D01*
X137935628Y-95878019D01*
X137935624Y-95878021D01*
X137847143Y-95937142D01*
X137847142Y-95937143D01*
X137793515Y-96017402D01*
X137785742Y-96026872D01*
X137624615Y-96188000D01*
X137624613Y-96188002D01*
X137595893Y-96230985D01*
X137595891Y-96230990D01*
X137577585Y-96275182D01*
X137577585Y-96275183D01*
X137567500Y-96325887D01*
X137567500Y-97046301D01*
X137566299Y-97058494D01*
X137562500Y-97077593D01*
X137562500Y-97322406D01*
X137575699Y-97388765D01*
X137575700Y-97388767D01*
X137600841Y-97426392D01*
X137625982Y-97464018D01*
X137682291Y-97501643D01*
X137701232Y-97514299D01*
X137701234Y-97514300D01*
X137767594Y-97527500D01*
X137894596Y-97527500D01*
X137906788Y-97528700D01*
X137925888Y-97532500D01*
X138446497Y-97532500D01*
X138490691Y-97550806D01*
X138508997Y-97595000D01*
X138490691Y-97639194D01*
X138294191Y-97835694D01*
X138249997Y-97854000D01*
X137756384Y-97854000D01*
X137686184Y-97883077D01*
X137686181Y-97883079D01*
X136878567Y-98690694D01*
X136834373Y-98709000D01*
X133513879Y-98709000D01*
X133469685Y-98690694D01*
X133451379Y-98646500D01*
X133469685Y-98602306D01*
X136362685Y-95709306D01*
X136406879Y-95691000D01*
X139194997Y-95691000D01*
X139239191Y-95709306D01*
G37*
%TD.AperFunction*%
%TA.AperFunction,Conductor*%
G36*
X140818306Y-94518306D02*
G01*
X142481194Y-96181194D01*
X142499500Y-96225388D01*
X142499500Y-109045437D01*
X142484922Y-109085558D01*
X142334882Y-109264771D01*
X142331154Y-109268844D01*
X140918306Y-110681694D01*
X140874112Y-110700000D01*
X121425888Y-110700000D01*
X121381694Y-110681694D01*
X121072647Y-110372647D01*
X121066295Y-110365214D01*
X121013891Y-110293159D01*
X120836638Y-110049435D01*
X120512454Y-109603681D01*
X120500500Y-109566920D01*
X120500500Y-109139143D01*
X126452500Y-109139143D01*
X126452500Y-109460856D01*
X126467729Y-109537422D01*
X126467730Y-109537424D01*
X126525747Y-109624252D01*
X126544723Y-109636931D01*
X126548279Y-109642254D01*
X126554194Y-109644704D01*
X126561170Y-109661546D01*
X126571299Y-109676705D01*
X126572500Y-109688898D01*
X126572500Y-109799498D01*
X126564128Y-109830746D01*
X126550090Y-109855061D01*
X126550088Y-109855066D01*
X126524501Y-109950558D01*
X126524500Y-109950566D01*
X126524500Y-110049433D01*
X126524501Y-110049441D01*
X126550088Y-110144933D01*
X126550089Y-110144937D01*
X126599526Y-110230563D01*
X126599529Y-110230567D01*
X126669432Y-110300470D01*
X126669436Y-110300473D01*
X126669438Y-110300475D01*
X126755062Y-110349910D01*
X126850565Y-110375500D01*
X126850566Y-110375500D01*
X126949434Y-110375500D01*
X126949435Y-110375500D01*
X127044938Y-110349910D01*
X127130562Y-110300475D01*
X127200475Y-110230562D01*
X127249910Y-110144938D01*
X127275500Y-110049435D01*
X127275500Y-109966984D01*
X131284119Y-109966984D01*
X131284119Y-110288697D01*
X131299348Y-110365263D01*
X131299349Y-110365265D01*
X131357366Y-110452093D01*
X131444194Y-110510110D01*
X131444196Y-110510111D01*
X131520763Y-110525341D01*
X131942475Y-110525341D01*
X132019042Y-110510111D01*
X132105871Y-110452093D01*
X132163889Y-110365264D01*
X132170320Y-110332933D01*
X132196896Y-110293159D01*
X132243812Y-110283827D01*
X132283586Y-110310403D01*
X132292918Y-110332933D01*
X132299348Y-110365263D01*
X132299349Y-110365265D01*
X132357366Y-110452093D01*
X132444194Y-110510110D01*
X132444196Y-110510111D01*
X132520763Y-110525341D01*
X132942475Y-110525341D01*
X133019042Y-110510111D01*
X133105871Y-110452093D01*
X133163889Y-110365264D01*
X133170320Y-110332933D01*
X133196896Y-110293159D01*
X133243812Y-110283827D01*
X133283586Y-110310403D01*
X133292918Y-110332933D01*
X133299348Y-110365263D01*
X133299349Y-110365265D01*
X133357366Y-110452093D01*
X133444194Y-110510110D01*
X133444196Y-110510111D01*
X133520763Y-110525341D01*
X133942475Y-110525341D01*
X134019042Y-110510111D01*
X134105871Y-110452093D01*
X134163889Y-110365264D01*
X134170320Y-110332933D01*
X134196896Y-110293159D01*
X134243812Y-110283827D01*
X134283586Y-110310403D01*
X134292918Y-110332933D01*
X134299348Y-110365263D01*
X134299349Y-110365265D01*
X134357366Y-110452093D01*
X134444194Y-110510110D01*
X134444196Y-110510111D01*
X134520763Y-110525341D01*
X134942475Y-110525341D01*
X135019042Y-110510111D01*
X135105871Y-110452093D01*
X135163889Y-110365264D01*
X135179119Y-110288697D01*
X135179119Y-109966985D01*
X135163889Y-109890418D01*
X135163888Y-109890416D01*
X135105871Y-109803588D01*
X135019043Y-109745571D01*
X135019041Y-109745570D01*
X134942475Y-109730341D01*
X134520763Y-109730341D01*
X134444196Y-109745570D01*
X134444194Y-109745571D01*
X134357366Y-109803588D01*
X134299349Y-109890416D01*
X134299348Y-109890418D01*
X134292918Y-109922748D01*
X134266342Y-109962522D01*
X134219426Y-109971854D01*
X134179652Y-109945278D01*
X134170320Y-109922748D01*
X134163889Y-109890418D01*
X134163888Y-109890416D01*
X134105871Y-109803588D01*
X134019043Y-109745571D01*
X134019041Y-109745570D01*
X133942475Y-109730341D01*
X133520763Y-109730341D01*
X133444196Y-109745570D01*
X133444194Y-109745571D01*
X133357366Y-109803588D01*
X133299349Y-109890416D01*
X133299348Y-109890418D01*
X133292918Y-109922748D01*
X133266342Y-109962522D01*
X133219426Y-109971854D01*
X133179652Y-109945278D01*
X133170320Y-109922748D01*
X133163889Y-109890418D01*
X133163888Y-109890416D01*
X133105871Y-109803588D01*
X133019043Y-109745571D01*
X133019041Y-109745570D01*
X132942475Y-109730341D01*
X132520763Y-109730341D01*
X132444196Y-109745570D01*
X132444194Y-109745571D01*
X132357366Y-109803588D01*
X132299349Y-109890416D01*
X132299348Y-109890418D01*
X132292918Y-109922748D01*
X132266342Y-109962522D01*
X132219426Y-109971854D01*
X132179652Y-109945278D01*
X132170320Y-109922748D01*
X132163889Y-109890418D01*
X132163888Y-109890416D01*
X132105871Y-109803588D01*
X132019043Y-109745571D01*
X132019041Y-109745570D01*
X131942475Y-109730341D01*
X131520763Y-109730341D01*
X131444196Y-109745570D01*
X131444194Y-109745571D01*
X131357366Y-109803588D01*
X131299349Y-109890416D01*
X131299348Y-109890418D01*
X131284119Y-109966984D01*
X127275500Y-109966984D01*
X127275500Y-109950565D01*
X127249910Y-109855062D01*
X127242140Y-109841603D01*
X127235872Y-109830746D01*
X127227500Y-109799498D01*
X127227500Y-109688898D01*
X127245806Y-109644704D01*
X127255277Y-109636931D01*
X127274252Y-109624252D01*
X127298303Y-109588257D01*
X127332270Y-109537423D01*
X127347500Y-109460856D01*
X127347500Y-109139144D01*
X127332270Y-109062577D01*
X127332269Y-109062575D01*
X127274252Y-108975747D01*
X127187424Y-108917730D01*
X127187422Y-108917729D01*
X127110856Y-108902500D01*
X126689144Y-108902500D01*
X126612577Y-108917729D01*
X126612575Y-108917730D01*
X126525747Y-108975747D01*
X126467730Y-109062575D01*
X126467729Y-109062577D01*
X126452500Y-109139143D01*
X120500500Y-109139143D01*
X120500500Y-99856878D01*
X120872500Y-99856878D01*
X120872500Y-104543121D01*
X120894818Y-104626407D01*
X120894818Y-104626409D01*
X120907627Y-104648595D01*
X120937935Y-104701090D01*
X122498910Y-106262065D01*
X122573590Y-106305181D01*
X122596493Y-106311318D01*
X122656878Y-106327499D01*
X122656884Y-106327500D01*
X124233115Y-106327500D01*
X124233120Y-106327499D01*
X124257864Y-106320868D01*
X124316409Y-106305181D01*
X124391089Y-106262065D01*
X124945806Y-105707348D01*
X124990000Y-105689042D01*
X125034194Y-105707348D01*
X125052500Y-105751542D01*
X125052500Y-106837840D01*
X125050370Y-106854016D01*
X125024501Y-106950558D01*
X125024500Y-106950566D01*
X125024500Y-107049433D01*
X125024501Y-107049441D01*
X125050088Y-107144933D01*
X125050089Y-107144937D01*
X125052961Y-107149911D01*
X125086726Y-107208394D01*
X125099526Y-107230563D01*
X125099529Y-107230567D01*
X125169432Y-107300470D01*
X125169436Y-107300473D01*
X125169438Y-107300475D01*
X125255062Y-107349910D01*
X125350565Y-107375500D01*
X125350566Y-107375500D01*
X125449434Y-107375500D01*
X125449435Y-107375500D01*
X125544938Y-107349910D01*
X125630562Y-107300475D01*
X125700475Y-107230562D01*
X125749910Y-107144938D01*
X125775500Y-107049435D01*
X125775500Y-106950565D01*
X125749910Y-106855062D01*
X125746664Y-106849439D01*
X125715873Y-106796106D01*
X125707500Y-106764857D01*
X125707500Y-105005772D01*
X125725806Y-104961578D01*
X126236578Y-104450806D01*
X126280772Y-104432500D01*
X126472498Y-104432500D01*
X126472500Y-104432500D01*
X126503611Y-104426311D01*
X126515800Y-104428735D01*
X126527993Y-104426310D01*
X126538330Y-104433216D01*
X126550525Y-104435642D01*
X126567767Y-104452883D01*
X126576047Y-104465274D01*
X126585382Y-104512189D01*
X126576049Y-104534722D01*
X126545299Y-104580741D01*
X126545298Y-104580743D01*
X126535000Y-104632519D01*
X126535000Y-104767480D01*
X126545298Y-104819256D01*
X126545299Y-104819258D01*
X126576048Y-104865277D01*
X126585380Y-104912193D01*
X126576048Y-104934723D01*
X126545299Y-104980741D01*
X126545298Y-104980743D01*
X126535000Y-105032519D01*
X126535000Y-105167480D01*
X126545298Y-105219256D01*
X126545299Y-105219258D01*
X126576048Y-105265277D01*
X126585380Y-105312193D01*
X126576048Y-105334723D01*
X126545299Y-105380741D01*
X126545298Y-105380743D01*
X126535000Y-105432519D01*
X126535000Y-105567480D01*
X126545298Y-105619256D01*
X126545299Y-105619258D01*
X126576048Y-105665277D01*
X126585380Y-105712193D01*
X126576048Y-105734723D01*
X126545299Y-105780741D01*
X126545298Y-105780743D01*
X126535000Y-105832519D01*
X126535000Y-105967480D01*
X126545298Y-106019256D01*
X126545299Y-106019258D01*
X126576048Y-106065277D01*
X126585380Y-106112193D01*
X126576048Y-106134723D01*
X126545299Y-106180741D01*
X126545298Y-106180743D01*
X126535000Y-106232519D01*
X126535000Y-106367480D01*
X126545298Y-106419255D01*
X126545298Y-106419256D01*
X126545299Y-106419257D01*
X126584530Y-106477970D01*
X126643243Y-106517201D01*
X126695020Y-106527500D01*
X126862893Y-106527500D01*
X126907087Y-106545806D01*
X126920634Y-106566081D01*
X126926991Y-106581427D01*
X126938077Y-106608191D01*
X126938079Y-106608194D01*
X127010807Y-106680922D01*
X127029113Y-106725116D01*
X127026984Y-106741288D01*
X127024501Y-106750555D01*
X127024500Y-106750566D01*
X127024500Y-106849439D01*
X127026984Y-106858708D01*
X127020739Y-106906134D01*
X127010807Y-106919076D01*
X126791807Y-107138078D01*
X126738079Y-107191805D01*
X126738077Y-107191808D01*
X126709000Y-107262008D01*
X126709000Y-107827257D01*
X126690694Y-107871451D01*
X126658694Y-107888556D01*
X126612577Y-107897730D01*
X126612575Y-107897730D01*
X126525747Y-107955747D01*
X126467730Y-108042575D01*
X126467729Y-108042577D01*
X126452500Y-108119143D01*
X126452500Y-108440856D01*
X126467729Y-108517422D01*
X126467730Y-108517424D01*
X126525747Y-108604252D01*
X126612575Y-108662269D01*
X126612577Y-108662270D01*
X126689144Y-108677500D01*
X127110856Y-108677500D01*
X127187423Y-108662270D01*
X127274252Y-108604252D01*
X127332270Y-108517423D01*
X127347500Y-108440856D01*
X127347500Y-108119144D01*
X127332270Y-108042577D01*
X127328194Y-108036477D01*
X127274252Y-107955747D01*
X127187423Y-107897730D01*
X127141306Y-107888556D01*
X127101533Y-107861979D01*
X127091000Y-107827257D01*
X127091000Y-107405002D01*
X127109305Y-107360809D01*
X127280922Y-107189191D01*
X127325116Y-107170886D01*
X127341293Y-107173016D01*
X127350560Y-107175499D01*
X127350565Y-107175500D01*
X127449434Y-107175500D01*
X127449435Y-107175500D01*
X127544938Y-107149910D01*
X127566251Y-107137604D01*
X127613676Y-107131362D01*
X127651627Y-107160482D01*
X127660000Y-107191732D01*
X127660000Y-107936527D01*
X127641694Y-107980721D01*
X127639177Y-107982786D01*
X127635982Y-107985981D01*
X127585700Y-108061232D01*
X127585699Y-108061234D01*
X127572500Y-108127593D01*
X127572500Y-108432406D01*
X127585699Y-108498765D01*
X127585700Y-108498767D01*
X127606946Y-108530563D01*
X127635982Y-108574018D01*
X127675578Y-108600475D01*
X127711232Y-108624299D01*
X127711234Y-108624300D01*
X127777594Y-108637500D01*
X128022406Y-108637500D01*
X128088766Y-108624300D01*
X128088766Y-108624299D01*
X128088768Y-108624299D01*
X128098144Y-108618034D01*
X128132868Y-108607500D01*
X130905000Y-108607500D01*
X130949194Y-108625806D01*
X130967500Y-108670000D01*
X130967500Y-109074112D01*
X130977585Y-109124816D01*
X130977585Y-109124817D01*
X130983520Y-109139144D01*
X130995892Y-109169012D01*
X131024614Y-109211998D01*
X131288002Y-109475386D01*
X131330988Y-109504108D01*
X131375182Y-109522414D01*
X131425888Y-109532500D01*
X134974112Y-109532500D01*
X135024818Y-109522414D01*
X135069012Y-109504108D01*
X135111998Y-109475386D01*
X135133737Y-109453647D01*
X135177931Y-109435341D01*
X135535275Y-109435341D01*
X135535280Y-109435340D01*
X135560024Y-109428709D01*
X135618569Y-109413022D01*
X135693249Y-109369906D01*
X136489803Y-108573350D01*
X136517817Y-108557176D01*
X136544938Y-108549910D01*
X136630562Y-108500475D01*
X136700475Y-108430562D01*
X136749910Y-108344938D01*
X136775500Y-108249435D01*
X136775500Y-108150565D01*
X136749910Y-108055062D01*
X136700475Y-107969438D01*
X136700473Y-107969436D01*
X136700470Y-107969432D01*
X136683731Y-107952693D01*
X136665425Y-107908499D01*
X136683731Y-107864305D01*
X136727925Y-107845999D01*
X137594997Y-107845999D01*
X137639191Y-107864305D01*
X137859063Y-108084177D01*
X137877369Y-108128371D01*
X137859063Y-108172565D01*
X137849593Y-108180337D01*
X137808078Y-108208077D01*
X137779898Y-108250250D01*
X137779898Y-108250251D01*
X137772500Y-108287442D01*
X137772500Y-108912557D01*
X137779898Y-108949748D01*
X137779898Y-108949749D01*
X137808077Y-108991922D01*
X137836257Y-109010750D01*
X137850252Y-109020102D01*
X137887442Y-109027500D01*
X137887443Y-109027500D01*
X138312557Y-109027500D01*
X138312558Y-109027500D01*
X138349748Y-109020102D01*
X138391922Y-108991922D01*
X138420102Y-108949748D01*
X138427500Y-108912558D01*
X138427500Y-108298503D01*
X138445806Y-108254309D01*
X138490000Y-108236003D01*
X138534194Y-108254309D01*
X138804194Y-108524309D01*
X138822500Y-108568503D01*
X138822500Y-108912557D01*
X138829898Y-108949748D01*
X138829898Y-108949749D01*
X138858077Y-108991922D01*
X138886257Y-109010750D01*
X138900252Y-109020102D01*
X138937442Y-109027500D01*
X138937443Y-109027500D01*
X139362557Y-109027500D01*
X139362558Y-109027500D01*
X139399748Y-109020102D01*
X139441922Y-108991922D01*
X139470102Y-108949748D01*
X139477500Y-108912558D01*
X139477500Y-108287442D01*
X139470102Y-108250252D01*
X139469555Y-108249433D01*
X139441922Y-108208077D01*
X139399748Y-108179898D01*
X139362558Y-108172500D01*
X139362557Y-108172500D01*
X139018503Y-108172500D01*
X138974309Y-108154194D01*
X138770681Y-107950566D01*
X139824500Y-107950566D01*
X139824500Y-108049433D01*
X139824501Y-108049441D01*
X139850088Y-108144933D01*
X139850089Y-108144935D01*
X139850090Y-108144938D01*
X139875583Y-108189094D01*
X139877435Y-108192301D01*
X139883678Y-108239728D01*
X139881051Y-108247466D01*
X139879899Y-108250247D01*
X139872500Y-108287442D01*
X139872500Y-108912557D01*
X139879898Y-108949748D01*
X139879898Y-108949749D01*
X139908077Y-108991922D01*
X139936257Y-109010750D01*
X139950252Y-109020102D01*
X139987442Y-109027500D01*
X139987443Y-109027500D01*
X140412557Y-109027500D01*
X140412558Y-109027500D01*
X140449748Y-109020102D01*
X140491922Y-108991922D01*
X140520102Y-108949748D01*
X140527500Y-108912558D01*
X140527500Y-108287442D01*
X140520102Y-108250252D01*
X140518950Y-108247472D01*
X140518949Y-108244460D01*
X140518901Y-108244215D01*
X140518949Y-108244205D01*
X140518947Y-108199637D01*
X140522565Y-108192301D01*
X140549907Y-108144943D01*
X140549906Y-108144943D01*
X140549910Y-108144938D01*
X140575500Y-108049435D01*
X140575500Y-107950565D01*
X140549910Y-107855062D01*
X140500475Y-107769438D01*
X140500473Y-107769436D01*
X140500470Y-107769432D01*
X140430567Y-107699529D01*
X140430563Y-107699526D01*
X140430562Y-107699525D01*
X140377227Y-107668732D01*
X140344937Y-107650089D01*
X140344933Y-107650088D01*
X140249441Y-107624501D01*
X140249436Y-107624500D01*
X140249435Y-107624500D01*
X140150565Y-107624500D01*
X140150564Y-107624500D01*
X140150558Y-107624501D01*
X140055066Y-107650088D01*
X140055062Y-107650089D01*
X139969436Y-107699526D01*
X139969432Y-107699529D01*
X139899529Y-107769432D01*
X139899526Y-107769436D01*
X139850089Y-107855062D01*
X139850088Y-107855066D01*
X139824501Y-107950558D01*
X139824500Y-107950566D01*
X138770681Y-107950566D01*
X138259309Y-107439194D01*
X138241003Y-107395000D01*
X138259309Y-107350806D01*
X138303503Y-107332500D01*
X139874112Y-107332500D01*
X139924818Y-107322414D01*
X139969012Y-107304108D01*
X140011998Y-107275386D01*
X140078991Y-107208393D01*
X140634500Y-107208393D01*
X140634500Y-107331606D01*
X140658536Y-107452450D01*
X140658537Y-107452453D01*
X140705687Y-107566283D01*
X140705690Y-107566287D01*
X140765787Y-107656230D01*
X140774142Y-107668733D01*
X140861267Y-107755858D01*
X140963714Y-107824311D01*
X140963715Y-107824311D01*
X140963716Y-107824312D01*
X140979838Y-107830990D01*
X141077548Y-107871463D01*
X141198394Y-107895500D01*
X141198395Y-107895500D01*
X141321605Y-107895500D01*
X141321606Y-107895500D01*
X141442452Y-107871463D01*
X141556286Y-107824311D01*
X141658733Y-107755858D01*
X141745858Y-107668733D01*
X141814311Y-107566286D01*
X141861463Y-107452452D01*
X141885500Y-107331606D01*
X141885500Y-107208394D01*
X141861463Y-107087548D01*
X141814311Y-106973714D01*
X141745858Y-106871267D01*
X141658733Y-106784142D01*
X141654936Y-106781605D01*
X141607509Y-106749915D01*
X141556286Y-106715689D01*
X141556285Y-106715688D01*
X141556283Y-106715687D01*
X141442453Y-106668537D01*
X141442450Y-106668536D01*
X141321606Y-106644500D01*
X141198394Y-106644500D01*
X141198393Y-106644500D01*
X141077549Y-106668536D01*
X141077546Y-106668537D01*
X140963716Y-106715687D01*
X140963712Y-106715690D01*
X140861267Y-106784141D01*
X140774141Y-106871267D01*
X140705690Y-106973712D01*
X140705687Y-106973716D01*
X140658537Y-107087546D01*
X140658536Y-107087549D01*
X140634500Y-107208393D01*
X140078991Y-107208393D01*
X140575386Y-106711998D01*
X140604108Y-106669012D01*
X140622414Y-106624818D01*
X140632500Y-106574112D01*
X140632500Y-105525888D01*
X140622414Y-105475182D01*
X140604108Y-105430988D01*
X140575386Y-105388002D01*
X140511998Y-105324614D01*
X140508131Y-105322030D01*
X140469014Y-105295893D01*
X140469012Y-105295892D01*
X140424818Y-105277586D01*
X140424816Y-105277585D01*
X140374112Y-105267500D01*
X138825888Y-105267500D01*
X138775183Y-105277585D01*
X138775182Y-105277585D01*
X138730990Y-105295891D01*
X138730985Y-105295893D01*
X138688002Y-105324613D01*
X138624613Y-105388002D01*
X138595893Y-105430985D01*
X138595891Y-105430990D01*
X138577585Y-105475182D01*
X138577585Y-105475183D01*
X138567500Y-105525887D01*
X138567500Y-105919228D01*
X138549194Y-105963422D01*
X138342167Y-106170448D01*
X138342162Y-106170454D01*
X138325677Y-106190541D01*
X138325673Y-106190545D01*
X138312142Y-106210799D01*
X138312135Y-106210811D01*
X138308156Y-106218253D01*
X138305006Y-106223507D01*
X138303300Y-106226060D01*
X138286054Y-106243304D01*
X138283496Y-106245013D01*
X138278249Y-106248158D01*
X138270836Y-106252121D01*
X138270803Y-106252141D01*
X138263578Y-106256969D01*
X138228859Y-106267500D01*
X136254093Y-106267500D01*
X136230054Y-106271065D01*
X136215628Y-106273205D01*
X136180910Y-106283737D01*
X136154966Y-106296006D01*
X136140446Y-106300803D01*
X136125396Y-106303798D01*
X136113197Y-106305000D01*
X135905291Y-106305000D01*
X135896122Y-106304323D01*
X135887681Y-106303071D01*
X135887679Y-106303070D01*
X135887667Y-106303069D01*
X135875491Y-106301870D01*
X135875490Y-106301870D01*
X135862750Y-106303759D01*
X135811790Y-106311318D01*
X135767613Y-106329618D01*
X135767586Y-106329630D01*
X135742742Y-106343196D01*
X135742740Y-106343198D01*
X135695891Y-106401332D01*
X135677585Y-106445529D01*
X135667500Y-106496231D01*
X135667500Y-106733996D01*
X135649194Y-106778190D01*
X135605000Y-106796496D01*
X135560806Y-106778190D01*
X134580310Y-105797694D01*
X134562004Y-105753500D01*
X134580310Y-105709306D01*
X134624504Y-105691000D01*
X136232582Y-105691000D01*
X136232584Y-105691000D01*
X136302785Y-105661922D01*
X137147400Y-104817305D01*
X137191594Y-104799000D01*
X138835500Y-104799000D01*
X138879694Y-104817306D01*
X138898000Y-104861500D01*
X138898000Y-104985557D01*
X138905398Y-105022748D01*
X138905398Y-105022749D01*
X138933577Y-105064922D01*
X138961757Y-105083750D01*
X138975752Y-105093102D01*
X139012942Y-105100500D01*
X139012943Y-105100500D01*
X139568057Y-105100500D01*
X139568058Y-105100500D01*
X139605248Y-105093102D01*
X139647422Y-105064922D01*
X139675602Y-105022748D01*
X139683000Y-104985558D01*
X139683000Y-104230442D01*
X139675602Y-104193252D01*
X139667243Y-104180741D01*
X139647421Y-104151076D01*
X139633783Y-104141964D01*
X139607206Y-104102191D01*
X139616538Y-104055275D01*
X139624306Y-104045808D01*
X140227309Y-103442806D01*
X140271503Y-103424500D01*
X140390057Y-103424500D01*
X140390058Y-103424500D01*
X140427248Y-103417102D01*
X140469422Y-103388922D01*
X140497602Y-103346748D01*
X140505000Y-103309558D01*
X140505000Y-102554442D01*
X140497602Y-102517252D01*
X140494994Y-102513349D01*
X140469422Y-102475077D01*
X140427248Y-102446898D01*
X140425257Y-102446502D01*
X140390058Y-102439500D01*
X139834942Y-102439500D01*
X139816347Y-102443199D01*
X139797751Y-102446898D01*
X139797748Y-102446899D01*
X139792325Y-102450523D01*
X139745408Y-102459852D01*
X139705638Y-102433277D01*
X139675386Y-102388002D01*
X139611997Y-102324613D01*
X139569014Y-102295893D01*
X139569012Y-102295892D01*
X139524818Y-102277586D01*
X139524816Y-102277585D01*
X139474112Y-102267500D01*
X138880772Y-102267500D01*
X138836578Y-102249194D01*
X138650806Y-102063422D01*
X138632500Y-102019228D01*
X138632500Y-100625888D01*
X138622414Y-100575182D01*
X138604108Y-100530988D01*
X138575386Y-100488002D01*
X138411998Y-100324614D01*
X138411997Y-100324613D01*
X138369014Y-100295893D01*
X138369012Y-100295892D01*
X138324818Y-100277586D01*
X138324816Y-100277585D01*
X138274112Y-100267500D01*
X137983591Y-100267500D01*
X137948867Y-100256966D01*
X137938376Y-100249955D01*
X137938373Y-100249954D01*
X137872014Y-100236755D01*
X137567202Y-100236755D01*
X137500842Y-100249954D01*
X137500840Y-100249955D01*
X137425590Y-100300237D01*
X137375308Y-100375487D01*
X137375307Y-100375489D01*
X137362108Y-100441848D01*
X137362108Y-100686661D01*
X137375307Y-100753020D01*
X137375308Y-100753022D01*
X137391410Y-100777119D01*
X137425590Y-100828273D01*
X137475507Y-100861627D01*
X137502083Y-100901400D01*
X137503284Y-100913593D01*
X137503284Y-102884689D01*
X137506798Y-102908376D01*
X137508989Y-102923149D01*
X137508991Y-102923157D01*
X137519520Y-102957866D01*
X137519521Y-102957869D01*
X137519523Y-102957874D01*
X137524992Y-102969438D01*
X137531790Y-102983812D01*
X137536587Y-102998334D01*
X137539582Y-103013385D01*
X137540784Y-103025583D01*
X137540784Y-103140395D01*
X137550869Y-103191099D01*
X137550869Y-103191100D01*
X137559209Y-103211234D01*
X137568995Y-103234859D01*
X137569175Y-103235292D01*
X137569177Y-103235297D01*
X137599213Y-103280249D01*
X137608545Y-103302776D01*
X137611484Y-103317549D01*
X137661766Y-103392801D01*
X137706085Y-103422414D01*
X137737016Y-103443082D01*
X137737018Y-103443083D01*
X137803378Y-103456283D01*
X138108190Y-103456283D01*
X138174550Y-103443083D01*
X138174623Y-103443033D01*
X138174794Y-103442981D01*
X138180236Y-103440728D01*
X138180457Y-103441263D01*
X138209347Y-103432500D01*
X139537500Y-103432500D01*
X139540556Y-103432199D01*
X139540749Y-103434162D01*
X139581850Y-103442278D01*
X139608483Y-103482014D01*
X139599217Y-103528943D01*
X139591395Y-103538488D01*
X139439191Y-103690694D01*
X139394997Y-103709000D01*
X137395976Y-103709000D01*
X137325776Y-103738077D01*
X137325773Y-103738079D01*
X136669957Y-104393895D01*
X136625763Y-104412201D01*
X136581569Y-104393895D01*
X136565393Y-104365878D01*
X136564361Y-104362030D01*
X136562460Y-104354933D01*
X136513025Y-104269309D01*
X136513023Y-104269307D01*
X136513020Y-104269303D01*
X136481571Y-104237854D01*
X136463265Y-104193660D01*
X136481571Y-104149466D01*
X136500471Y-104130566D01*
X136500471Y-104130565D01*
X136500475Y-104130562D01*
X136549910Y-104044938D01*
X136575500Y-103949435D01*
X136575500Y-103850565D01*
X136549910Y-103755062D01*
X136500475Y-103669438D01*
X136500473Y-103669436D01*
X136500470Y-103669432D01*
X136430567Y-103599529D01*
X136430563Y-103599526D01*
X136430562Y-103599525D01*
X136387750Y-103574807D01*
X136344937Y-103550089D01*
X136344933Y-103550088D01*
X136249441Y-103524501D01*
X136249436Y-103524500D01*
X136249435Y-103524500D01*
X136150565Y-103524500D01*
X136150564Y-103524500D01*
X136150558Y-103524501D01*
X136055066Y-103550088D01*
X136055062Y-103550089D01*
X135969436Y-103599526D01*
X135969432Y-103599529D01*
X135899529Y-103669432D01*
X135899524Y-103669438D01*
X135894727Y-103677749D01*
X135856778Y-103706870D01*
X135840600Y-103709000D01*
X135480892Y-103709000D01*
X135436698Y-103690694D01*
X135418392Y-103646500D01*
X135428925Y-103611777D01*
X135444299Y-103588767D01*
X135444300Y-103588766D01*
X135457500Y-103522406D01*
X135457500Y-103277594D01*
X135444300Y-103211234D01*
X135394018Y-103135982D01*
X135342358Y-103101463D01*
X135323111Y-103088603D01*
X135296535Y-103048829D01*
X135305867Y-103001913D01*
X135323109Y-102984670D01*
X135354018Y-102964018D01*
X135404300Y-102888766D01*
X135417500Y-102822406D01*
X135417500Y-102578502D01*
X135435806Y-102534308D01*
X135534132Y-102435982D01*
X135635655Y-102334458D01*
X135679848Y-102316153D01*
X135711097Y-102324526D01*
X135755062Y-102349910D01*
X135850565Y-102375500D01*
X135850566Y-102375500D01*
X135949434Y-102375500D01*
X135949435Y-102375500D01*
X136044938Y-102349910D01*
X136130562Y-102300475D01*
X136200475Y-102230562D01*
X136249910Y-102144938D01*
X136275500Y-102049435D01*
X136275500Y-101950565D01*
X136249910Y-101855062D01*
X136200475Y-101769438D01*
X136200473Y-101769436D01*
X136200470Y-101769432D01*
X136130567Y-101699529D01*
X136130563Y-101699526D01*
X136130562Y-101699525D01*
X136071243Y-101665277D01*
X136044937Y-101650089D01*
X136044933Y-101650088D01*
X135949441Y-101624501D01*
X135949436Y-101624500D01*
X135949435Y-101624500D01*
X135850565Y-101624500D01*
X135850564Y-101624500D01*
X135850558Y-101624501D01*
X135755066Y-101650088D01*
X135755059Y-101650091D01*
X135693401Y-101685689D01*
X135645975Y-101691932D01*
X135608025Y-101662811D01*
X135601782Y-101647739D01*
X135598367Y-101634991D01*
X135598366Y-101634989D01*
X135598366Y-101634988D01*
X135542085Y-101537509D01*
X135542080Y-101537503D01*
X135462496Y-101457919D01*
X135462490Y-101457914D01*
X135365011Y-101401633D01*
X135365008Y-101401632D01*
X135256287Y-101372501D01*
X135256282Y-101372500D01*
X135256281Y-101372500D01*
X135248503Y-101372500D01*
X135204309Y-101354194D01*
X135186003Y-101310000D01*
X135204309Y-101265806D01*
X136400673Y-100069442D01*
X139369583Y-100069442D01*
X139369583Y-100544557D01*
X139376981Y-100581748D01*
X139376981Y-100581749D01*
X139405160Y-100623922D01*
X139433340Y-100642750D01*
X139447335Y-100652102D01*
X139484525Y-100659500D01*
X139828584Y-100659500D01*
X139844759Y-100661629D01*
X139864200Y-100666839D01*
X139882080Y-100671630D01*
X139920030Y-100700751D01*
X139926273Y-100748177D01*
X139897152Y-100786127D01*
X139882080Y-100792370D01*
X139864200Y-100797160D01*
X139844759Y-100802370D01*
X139828584Y-100804500D01*
X139484525Y-100804500D01*
X139465930Y-100808199D01*
X139447334Y-100811898D01*
X139447333Y-100811898D01*
X139405160Y-100840077D01*
X139376981Y-100882250D01*
X139376981Y-100882251D01*
X139369839Y-100918155D01*
X139369583Y-100919442D01*
X139369583Y-101394558D01*
X139372183Y-101407626D01*
X139376981Y-101431748D01*
X139376981Y-101431749D01*
X139405160Y-101473922D01*
X139433340Y-101492750D01*
X139447335Y-101502102D01*
X139484525Y-101509500D01*
X139828584Y-101509500D01*
X139844759Y-101511629D01*
X139873643Y-101519369D01*
X139922643Y-101532499D01*
X139922646Y-101532499D01*
X139922648Y-101532500D01*
X139922649Y-101532500D01*
X140021517Y-101532500D01*
X140021518Y-101532500D01*
X140099406Y-101511629D01*
X140115582Y-101509500D01*
X140459640Y-101509500D01*
X140459641Y-101509500D01*
X140496831Y-101502102D01*
X140539005Y-101473922D01*
X140567185Y-101431748D01*
X140574583Y-101394558D01*
X140574583Y-100919442D01*
X140567185Y-100882252D01*
X140560669Y-100872500D01*
X140539005Y-100840077D01*
X140496831Y-100811898D01*
X140484459Y-100809437D01*
X140459641Y-100804500D01*
X140459640Y-100804500D01*
X140115582Y-100804500D01*
X140099406Y-100802370D01*
X140062086Y-100792370D01*
X140024135Y-100763250D01*
X140017892Y-100715824D01*
X140047012Y-100677873D01*
X140062086Y-100671630D01*
X140099406Y-100661630D01*
X140115582Y-100659500D01*
X140459640Y-100659500D01*
X140459641Y-100659500D01*
X140496831Y-100652102D01*
X140539005Y-100623922D01*
X140567185Y-100581748D01*
X140574583Y-100544558D01*
X140574583Y-100069442D01*
X140719583Y-100069442D01*
X140719583Y-100544557D01*
X140726981Y-100581748D01*
X140726981Y-100581749D01*
X140755160Y-100623922D01*
X140783340Y-100642750D01*
X140797335Y-100652102D01*
X140834525Y-100659500D01*
X141178584Y-100659500D01*
X141194759Y-100661629D01*
X141216593Y-100667480D01*
X141272643Y-100682499D01*
X141272646Y-100682499D01*
X141272648Y-100682500D01*
X141272649Y-100682500D01*
X141371517Y-100682500D01*
X141371518Y-100682500D01*
X141449406Y-100661629D01*
X141465582Y-100659500D01*
X141809640Y-100659500D01*
X141809641Y-100659500D01*
X141846831Y-100652102D01*
X141889005Y-100623922D01*
X141917185Y-100581748D01*
X141924583Y-100544558D01*
X141924583Y-100069442D01*
X141917185Y-100032252D01*
X141917184Y-100032250D01*
X141889005Y-99990077D01*
X141846831Y-99961898D01*
X141809641Y-99954500D01*
X141809640Y-99954500D01*
X141465582Y-99954500D01*
X141449406Y-99952370D01*
X141437143Y-99949084D01*
X141371522Y-99931500D01*
X141371518Y-99931500D01*
X141272648Y-99931500D01*
X141272643Y-99931500D01*
X141205714Y-99949435D01*
X141194759Y-99952370D01*
X141178584Y-99954500D01*
X140834525Y-99954500D01*
X140815930Y-99958199D01*
X140797334Y-99961898D01*
X140797333Y-99961898D01*
X140755160Y-99990077D01*
X140726981Y-100032250D01*
X140726981Y-100032251D01*
X140719583Y-100069442D01*
X140574583Y-100069442D01*
X140567185Y-100032252D01*
X140567184Y-100032250D01*
X140539005Y-99990077D01*
X140496831Y-99961898D01*
X140459641Y-99954500D01*
X140459640Y-99954500D01*
X140115582Y-99954500D01*
X140099406Y-99952370D01*
X140087143Y-99949084D01*
X140021522Y-99931500D01*
X140021518Y-99931500D01*
X139922648Y-99931500D01*
X139922643Y-99931500D01*
X139855714Y-99949435D01*
X139844759Y-99952370D01*
X139828584Y-99954500D01*
X139484525Y-99954500D01*
X139465930Y-99958199D01*
X139447334Y-99961898D01*
X139447333Y-99961898D01*
X139405160Y-99990077D01*
X139376981Y-100032250D01*
X139376981Y-100032251D01*
X139369583Y-100069442D01*
X136400673Y-100069442D01*
X137960809Y-98509306D01*
X138005003Y-98491000D01*
X138855260Y-98491000D01*
X138899454Y-98509306D01*
X138916295Y-98544905D01*
X138916902Y-98544785D01*
X138917383Y-98547207D01*
X138917458Y-98547364D01*
X138917500Y-98547793D01*
X138932468Y-98623049D01*
X138932470Y-98623053D01*
X138948137Y-98646500D01*
X138989492Y-98708392D01*
X139050557Y-98749194D01*
X139074831Y-98765414D01*
X139074833Y-98765415D01*
X139150087Y-98780384D01*
X139162468Y-98780383D01*
X139206662Y-98798686D01*
X139224971Y-98842879D01*
X139224500Y-98850088D01*
X139224500Y-98949433D01*
X139224501Y-98949441D01*
X139250088Y-99044933D01*
X139250089Y-99044937D01*
X139299526Y-99130563D01*
X139299529Y-99130567D01*
X139369432Y-99200470D01*
X139369436Y-99200473D01*
X139369438Y-99200475D01*
X139455062Y-99249910D01*
X139550565Y-99275500D01*
X139550566Y-99275500D01*
X139649434Y-99275500D01*
X139649435Y-99275500D01*
X139744938Y-99249910D01*
X139830562Y-99200475D01*
X139900475Y-99130562D01*
X139949910Y-99044938D01*
X139975500Y-98949435D01*
X139975500Y-98850565D01*
X139949910Y-98755062D01*
X139900475Y-98669438D01*
X139900473Y-98669436D01*
X139900470Y-98669432D01*
X139830567Y-98599529D01*
X139830563Y-98599526D01*
X139830562Y-98599525D01*
X139744938Y-98550090D01*
X139744937Y-98550089D01*
X139744936Y-98550089D01*
X139740822Y-98548987D01*
X139702872Y-98519866D01*
X139694499Y-98488617D01*
X139694499Y-98157973D01*
X139694498Y-98157969D01*
X139684758Y-98109000D01*
X139679531Y-98082717D01*
X139622508Y-97997376D01*
X139558863Y-97954850D01*
X139532288Y-97915077D01*
X139541620Y-97868161D01*
X139558862Y-97850918D01*
X139622508Y-97808392D01*
X139679531Y-97723051D01*
X139694500Y-97647797D01*
X139694499Y-97386993D01*
X140879500Y-97386993D01*
X140879500Y-97518774D01*
X140879501Y-97518782D01*
X140913606Y-97646066D01*
X140913607Y-97646069D01*
X140979501Y-97760199D01*
X140979504Y-97760203D01*
X141072680Y-97853379D01*
X141072684Y-97853382D01*
X141072686Y-97853384D01*
X141147367Y-97896501D01*
X141186814Y-97919276D01*
X141186817Y-97919277D01*
X141209613Y-97925385D01*
X141314108Y-97953384D01*
X141314109Y-97953384D01*
X141445891Y-97953384D01*
X141445892Y-97953384D01*
X141573186Y-97919276D01*
X141687314Y-97853384D01*
X141780500Y-97760198D01*
X141846392Y-97646070D01*
X141880500Y-97518776D01*
X141880500Y-97386992D01*
X141846392Y-97259698D01*
X141780500Y-97145570D01*
X141780498Y-97145568D01*
X141780495Y-97145564D01*
X141687319Y-97052388D01*
X141687315Y-97052385D01*
X141687314Y-97052384D01*
X141597499Y-97000529D01*
X141573185Y-96986491D01*
X141573182Y-96986490D01*
X141445898Y-96952385D01*
X141445893Y-96952384D01*
X141445892Y-96952384D01*
X141314108Y-96952384D01*
X141314107Y-96952384D01*
X141314101Y-96952385D01*
X141186817Y-96986490D01*
X141186814Y-96986491D01*
X141072684Y-97052385D01*
X141072680Y-97052388D01*
X140979504Y-97145564D01*
X140979501Y-97145568D01*
X140913607Y-97259698D01*
X140913606Y-97259701D01*
X140879501Y-97386985D01*
X140879500Y-97386993D01*
X139694499Y-97386993D01*
X139694499Y-97257972D01*
X139679531Y-97182717D01*
X139622508Y-97097376D01*
X139622507Y-97097375D01*
X139619088Y-97092258D01*
X139621116Y-97090902D01*
X139606405Y-97055385D01*
X139624711Y-97011191D01*
X139638948Y-97000532D01*
X139657261Y-96990533D01*
X139704108Y-96932400D01*
X139706796Y-96925911D01*
X139740620Y-96892085D01*
X139788455Y-96892084D01*
X139808733Y-96905633D01*
X139811491Y-96908391D01*
X139896831Y-96965414D01*
X139896833Y-96965415D01*
X139972087Y-96980384D01*
X140283912Y-96980383D01*
X140359167Y-96965415D01*
X140444508Y-96908392D01*
X140501531Y-96823051D01*
X140516500Y-96747797D01*
X140516499Y-96357972D01*
X140501531Y-96282717D01*
X140444508Y-96197376D01*
X140386714Y-96158759D01*
X140359168Y-96140353D01*
X140359166Y-96140352D01*
X140283913Y-96125384D01*
X140221387Y-96125384D01*
X140177193Y-96107078D01*
X139408194Y-95338079D01*
X139408193Y-95338078D01*
X139337992Y-95309000D01*
X136339868Y-95309000D01*
X136263884Y-95309000D01*
X136193684Y-95338077D01*
X136193681Y-95338079D01*
X135474382Y-96057377D01*
X135430188Y-96075683D01*
X135385994Y-96057377D01*
X135369818Y-96029359D01*
X135349911Y-95955065D01*
X135349910Y-95955062D01*
X135335768Y-95930567D01*
X135300475Y-95869438D01*
X135300473Y-95869436D01*
X135300470Y-95869432D01*
X135230567Y-95799529D01*
X135230563Y-95799526D01*
X135230562Y-95799525D01*
X135159865Y-95758708D01*
X135144937Y-95750089D01*
X135144933Y-95750088D01*
X135049441Y-95724501D01*
X135049436Y-95724500D01*
X135049435Y-95724500D01*
X134950565Y-95724500D01*
X134950564Y-95724500D01*
X134950558Y-95724501D01*
X134855066Y-95750088D01*
X134855062Y-95750089D01*
X134769436Y-95799526D01*
X134769432Y-95799529D01*
X134699529Y-95869432D01*
X134699522Y-95869441D01*
X134650092Y-95955055D01*
X134650089Y-95955061D01*
X134642823Y-95982180D01*
X134626647Y-96010196D01*
X131877166Y-98759677D01*
X131832972Y-98777983D01*
X131820780Y-98776782D01*
X131774115Y-98767500D01*
X131774112Y-98767500D01*
X131653697Y-98767500D01*
X131641505Y-98766299D01*
X131622406Y-98762500D01*
X131377594Y-98762500D01*
X131358494Y-98766299D01*
X131346303Y-98767500D01*
X131325888Y-98767500D01*
X131275183Y-98777585D01*
X131275182Y-98777585D01*
X131230990Y-98795891D01*
X131230985Y-98795893D01*
X131188002Y-98824613D01*
X131124613Y-98888002D01*
X131095893Y-98930985D01*
X131095891Y-98930990D01*
X131077585Y-98975182D01*
X131077585Y-98975183D01*
X131067500Y-99025887D01*
X131067500Y-99646708D01*
X131049194Y-99690902D01*
X131036788Y-99700521D01*
X131027627Y-99705932D01*
X131018243Y-99707799D01*
X130970783Y-99739510D01*
X130969288Y-99740394D01*
X130947185Y-99743528D01*
X130925307Y-99747880D01*
X130923059Y-99746949D01*
X130921926Y-99747110D01*
X130920057Y-99745705D01*
X130902777Y-99738548D01*
X130856758Y-99707799D01*
X130856756Y-99707798D01*
X130804980Y-99697500D01*
X130670020Y-99697500D01*
X130618238Y-99707799D01*
X130614913Y-99709177D01*
X130567077Y-99709173D01*
X130533256Y-99675346D01*
X130528500Y-99651433D01*
X130528500Y-98528125D01*
X130546805Y-98483932D01*
X131229713Y-97801023D01*
X131229716Y-97801022D01*
X131238504Y-97792234D01*
X131238505Y-97792234D01*
X132441121Y-96589618D01*
X132485315Y-96571312D01*
X133057678Y-96571312D01*
X133057680Y-96571312D01*
X133127881Y-96542234D01*
X133580923Y-96089190D01*
X133625116Y-96070885D01*
X133641291Y-96073015D01*
X133650565Y-96075500D01*
X133749434Y-96075500D01*
X133749435Y-96075500D01*
X133844938Y-96049910D01*
X133930562Y-96000475D01*
X134000475Y-95930562D01*
X134049910Y-95844938D01*
X134075500Y-95749435D01*
X134075500Y-95650565D01*
X134049910Y-95555062D01*
X134000475Y-95469438D01*
X134000473Y-95469436D01*
X134000470Y-95469432D01*
X133930567Y-95399529D01*
X133930563Y-95399526D01*
X133930562Y-95399525D01*
X133883753Y-95372500D01*
X133844937Y-95350089D01*
X133844933Y-95350088D01*
X133749441Y-95324501D01*
X133749436Y-95324500D01*
X133749435Y-95324500D01*
X133650565Y-95324500D01*
X133650564Y-95324500D01*
X133650558Y-95324501D01*
X133555066Y-95350088D01*
X133555062Y-95350089D01*
X133469436Y-95399526D01*
X133469432Y-95399529D01*
X133399529Y-95469432D01*
X133399526Y-95469436D01*
X133350089Y-95555062D01*
X133350088Y-95555066D01*
X133324501Y-95650558D01*
X133324500Y-95650566D01*
X133324500Y-95749439D01*
X133326984Y-95758708D01*
X133320739Y-95806134D01*
X133310807Y-95819076D01*
X132958879Y-96171006D01*
X132914685Y-96189312D01*
X132799418Y-96189312D01*
X132755224Y-96171006D01*
X132736918Y-96126812D01*
X132755224Y-96082618D01*
X132783242Y-96066442D01*
X132822031Y-96056047D01*
X132844938Y-96049910D01*
X132930562Y-96000475D01*
X133000475Y-95930562D01*
X133049910Y-95844938D01*
X133075500Y-95749435D01*
X133075500Y-95650565D01*
X133049910Y-95555062D01*
X133000475Y-95469438D01*
X133000473Y-95469436D01*
X133000470Y-95469432D01*
X132930567Y-95399529D01*
X132930563Y-95399526D01*
X132930562Y-95399525D01*
X132883753Y-95372500D01*
X132844937Y-95350089D01*
X132844933Y-95350088D01*
X132749441Y-95324501D01*
X132749436Y-95324500D01*
X132749435Y-95324500D01*
X132650565Y-95324500D01*
X132650564Y-95324500D01*
X132650558Y-95324501D01*
X132555066Y-95350088D01*
X132555062Y-95350089D01*
X132469436Y-95399526D01*
X132469432Y-95399529D01*
X132399529Y-95469432D01*
X132399526Y-95469436D01*
X132350089Y-95555062D01*
X132350088Y-95555066D01*
X132324501Y-95650558D01*
X132324500Y-95650566D01*
X132324500Y-95749439D01*
X132326984Y-95758708D01*
X132320739Y-95806134D01*
X132310807Y-95819076D01*
X129829307Y-98300578D01*
X129775579Y-98354305D01*
X129775577Y-98354308D01*
X129746500Y-98424508D01*
X129746500Y-99651433D01*
X129728194Y-99695627D01*
X129684000Y-99713933D01*
X129660087Y-99709177D01*
X129656761Y-99707799D01*
X129604980Y-99697500D01*
X129470020Y-99697500D01*
X129418243Y-99707798D01*
X129418241Y-99707799D01*
X129372223Y-99738548D01*
X129325307Y-99747880D01*
X129302777Y-99738548D01*
X129256758Y-99707799D01*
X129256756Y-99707798D01*
X129204980Y-99697500D01*
X129135185Y-99697500D01*
X129090991Y-99679194D01*
X129072685Y-99635000D01*
X129083218Y-99600277D01*
X129090660Y-99589138D01*
X129104108Y-99569012D01*
X129122414Y-99524818D01*
X129132500Y-99474112D01*
X129132500Y-99468484D01*
X129150806Y-99424290D01*
X129160272Y-99416520D01*
X129164018Y-99414018D01*
X129214300Y-99338766D01*
X129227500Y-99272406D01*
X129227500Y-98967594D01*
X129214300Y-98901234D01*
X129212952Y-98899217D01*
X129191646Y-98867330D01*
X129164018Y-98825982D01*
X129118987Y-98795893D01*
X129088767Y-98775700D01*
X129088765Y-98775699D01*
X129022406Y-98762500D01*
X128777594Y-98762500D01*
X128758494Y-98766299D01*
X128746303Y-98767500D01*
X128253697Y-98767500D01*
X128241505Y-98766299D01*
X128222406Y-98762500D01*
X127977594Y-98762500D01*
X127958494Y-98766299D01*
X127946303Y-98767500D01*
X127895000Y-98767500D01*
X127850806Y-98749194D01*
X127832500Y-98705000D01*
X127832500Y-98625888D01*
X127822414Y-98575182D01*
X127804108Y-98530988D01*
X127775386Y-98488002D01*
X127700028Y-98412644D01*
X127682923Y-98380643D01*
X127671980Y-98325628D01*
X127671978Y-98325624D01*
X127655243Y-98300578D01*
X127612857Y-98237143D01*
X127551119Y-98195891D01*
X127524375Y-98178021D01*
X127524371Y-98178019D01*
X127446348Y-98162500D01*
X127113652Y-98162500D01*
X127094553Y-98166299D01*
X127082360Y-98167500D01*
X126925888Y-98167500D01*
X126875183Y-98177585D01*
X126875182Y-98177585D01*
X126830990Y-98195891D01*
X126830985Y-98195893D01*
X126788002Y-98224613D01*
X126724613Y-98288002D01*
X126695893Y-98330985D01*
X126695891Y-98330990D01*
X126677585Y-98375182D01*
X126677585Y-98375183D01*
X126667500Y-98425887D01*
X126667500Y-98708159D01*
X126662460Y-98732748D01*
X126660991Y-98736178D01*
X126650090Y-98755062D01*
X126645363Y-98772699D01*
X126643608Y-98776802D01*
X126632502Y-98787651D01*
X126620111Y-98804680D01*
X126592407Y-98822613D01*
X126592405Y-98822614D01*
X126587666Y-98827216D01*
X126569804Y-98848659D01*
X126564232Y-98856997D01*
X126546992Y-98874236D01*
X126532271Y-98884072D01*
X126513548Y-98899211D01*
X126513542Y-98899217D01*
X126509463Y-98903180D01*
X126509383Y-98903257D01*
X126508958Y-98903673D01*
X126508318Y-98904304D01*
X126507589Y-98905025D01*
X126252299Y-99160316D01*
X126252284Y-99160331D01*
X126243574Y-99169943D01*
X126243567Y-99169951D01*
X126243562Y-99169957D01*
X126235799Y-99179417D01*
X126208272Y-99237620D01*
X126208270Y-99237626D01*
X126198940Y-99284536D01*
X126198940Y-99336235D01*
X126203799Y-99360663D01*
X126205000Y-99372856D01*
X126205000Y-99667140D01*
X126203798Y-99679337D01*
X126197990Y-99708527D01*
X126193193Y-99723049D01*
X126183743Y-99743032D01*
X126183738Y-99743043D01*
X126173206Y-99777759D01*
X126173206Y-99777762D01*
X126167500Y-99816227D01*
X126167500Y-99816231D01*
X126167500Y-100010549D01*
X126149194Y-100054743D01*
X126105000Y-100073049D01*
X126098883Y-100072749D01*
X126096351Y-100072500D01*
X126096348Y-100072500D01*
X125703652Y-100072500D01*
X125700892Y-100073049D01*
X125688039Y-100075605D01*
X125641123Y-100066270D01*
X125631655Y-100058499D01*
X124560095Y-98986939D01*
X124560091Y-98986935D01*
X124485411Y-98943819D01*
X124485410Y-98943818D01*
X124485409Y-98943818D01*
X124402122Y-98921500D01*
X124402117Y-98921500D01*
X121894116Y-98921500D01*
X121807884Y-98921500D01*
X121807878Y-98921500D01*
X121724592Y-98943818D01*
X121724590Y-98943818D01*
X121683410Y-98967594D01*
X121649910Y-98986935D01*
X121649909Y-98986936D01*
X121649905Y-98986939D01*
X120937939Y-99698905D01*
X120937936Y-99698909D01*
X120937935Y-99698910D01*
X120929262Y-99713933D01*
X120894818Y-99773590D01*
X120894818Y-99773592D01*
X120872500Y-99856878D01*
X120500500Y-99856878D01*
X120500500Y-95714173D01*
X125572500Y-95714173D01*
X125572500Y-97485825D01*
X125583190Y-97559201D01*
X125583191Y-97559204D01*
X125638524Y-97672390D01*
X125727610Y-97761476D01*
X125840796Y-97816809D01*
X125914173Y-97827500D01*
X126735826Y-97827499D01*
X126809204Y-97816809D01*
X126922390Y-97761476D01*
X127011476Y-97672390D01*
X127066809Y-97559204D01*
X127077500Y-97485827D01*
X127077499Y-95714174D01*
X127077499Y-95714173D01*
X127722500Y-95714173D01*
X127722500Y-97485825D01*
X127733190Y-97559201D01*
X127733191Y-97559204D01*
X127788524Y-97672390D01*
X127877610Y-97761476D01*
X127990796Y-97816809D01*
X128064173Y-97827500D01*
X128885826Y-97827499D01*
X128959204Y-97816809D01*
X129072390Y-97761476D01*
X129161476Y-97672390D01*
X129216809Y-97559204D01*
X129227500Y-97485827D01*
X129227499Y-96614552D01*
X129245805Y-96570359D01*
X129258743Y-96560430D01*
X129286812Y-96544225D01*
X129356725Y-96474312D01*
X129406160Y-96388688D01*
X129431750Y-96293185D01*
X129431750Y-96194315D01*
X129406160Y-96098812D01*
X129356725Y-96013188D01*
X129356723Y-96013186D01*
X129356720Y-96013182D01*
X129286817Y-95943279D01*
X129286808Y-95943272D01*
X129258749Y-95927072D01*
X129229628Y-95889122D01*
X129227499Y-95872946D01*
X129227499Y-95714174D01*
X129226790Y-95709306D01*
X129216809Y-95640796D01*
X129161476Y-95527610D01*
X129072390Y-95438524D01*
X128959204Y-95383191D01*
X128959202Y-95383190D01*
X128959201Y-95383190D01*
X128900913Y-95374698D01*
X128885827Y-95372500D01*
X128885826Y-95372500D01*
X128300380Y-95372500D01*
X128284206Y-95370371D01*
X128276064Y-95368189D01*
X128276061Y-95368189D01*
X128177191Y-95368189D01*
X128169039Y-95370372D01*
X128152873Y-95372500D01*
X128064173Y-95372500D01*
X127990798Y-95383190D01*
X127990797Y-95383190D01*
X127990796Y-95383191D01*
X127932212Y-95411831D01*
X127877608Y-95438525D01*
X127788525Y-95527608D01*
X127733190Y-95640798D01*
X127722500Y-95714173D01*
X127077499Y-95714173D01*
X127066809Y-95640796D01*
X127011476Y-95527610D01*
X126922390Y-95438524D01*
X126809204Y-95383191D01*
X126809202Y-95383190D01*
X126809201Y-95383190D01*
X126750913Y-95374698D01*
X126735827Y-95372500D01*
X126735826Y-95372500D01*
X125914174Y-95372500D01*
X125840798Y-95383190D01*
X125840797Y-95383190D01*
X125840796Y-95383191D01*
X125782212Y-95411831D01*
X125727608Y-95438525D01*
X125638525Y-95527608D01*
X125583190Y-95640798D01*
X125572500Y-95714173D01*
X120500500Y-95714173D01*
X120500500Y-95678690D01*
X120511938Y-95642648D01*
X121119873Y-94781406D01*
X121126719Y-94773280D01*
X121381694Y-94518306D01*
X121425888Y-94500000D01*
X140774112Y-94500000D01*
X140818306Y-94518306D01*
G37*
%TD.AperFunction*%
%TD*%
M02*
