%TF.GenerationSoftware,KiCad,Pcbnew,9.0.0*%
%TF.CreationDate,2025-08-25T21:43:05+03:00*%
%TF.ProjectId,Daredevil-mini,44617265-6465-4766-996c-2d6d696e692e,rev?*%
%TF.SameCoordinates,Original*%
%TF.FileFunction,Paste,Top*%
%TF.FilePolarity,Positive*%
%FSLAX46Y46*%
G04 Gerber Fmt 4.6, Leading zero omitted, Abs format (unit mm)*
G04 Created by KiCad (PCBNEW 9.0.0) date 2025-08-25 21:43:05*
%MOMM*%
%LPD*%
G01*
G04 APERTURE LIST*
G04 Aperture macros list*
%AMRoundRect*
0 Rectangle with rounded corners*
0 $1 Rounding radius*
0 $2 $3 $4 $5 $6 $7 $8 $9 X,Y pos of 4 corners*
0 Add a 4 corners polygon primitive as box body*
4,1,4,$2,$3,$4,$5,$6,$7,$8,$9,$2,$3,0*
0 Add four circle primitives for the rounded corners*
1,1,$1+$1,$2,$3*
1,1,$1+$1,$4,$5*
1,1,$1+$1,$6,$7*
1,1,$1+$1,$8,$9*
0 Add four rect primitives between the rounded corners*
20,1,$1+$1,$2,$3,$4,$5,0*
20,1,$1+$1,$4,$5,$6,$7,0*
20,1,$1+$1,$6,$7,$8,$9,0*
20,1,$1+$1,$8,$9,$2,$3,0*%
%AMFreePoly0*
4,1,101,2.400000,-3.650000,-0.400000,-3.650000,-0.400000,-0.318000,-0.050000,-0.318000,-0.050000,-3.182000,-0.049000,-3.188000,-0.048000,-3.195000,-0.046000,-3.207000,-0.044000,-3.214000,-0.042000,-3.220000,-0.033000,-3.238000,-0.030000,-3.243000,-0.026000,-3.248000,-0.022000,-3.254000,-0.018000,-3.259000,-0.013000,-3.263000,-0.009000,-3.268000,-0.004000,-3.272000,0.002000,-3.276000,0.007000,-3.280000,
0.012000,-3.283000,0.030000,-3.292000,0.036000,-3.294000,0.043000,-3.296000,0.055000,-3.298000,0.062000,-3.299000,0.068000,-3.300000,1.932000,-3.300000,1.938000,-3.299000,1.945000,-3.298000,1.957000,-3.296000,1.964000,-3.294000,1.970000,-3.292000,1.988000,-3.283000,1.993000,-3.280000,1.998000,-3.276000,2.004000,-3.272000,2.009000,-3.268000,2.013000,-3.263000,2.018000,-3.259000,
2.022000,-3.254000,2.026000,-3.248000,2.030000,-3.243000,2.033000,-3.238000,2.042000,-3.220000,2.044000,-3.214000,2.046000,-3.207000,2.048000,-3.195000,2.049000,-3.188000,2.050000,-3.182000,2.050000,-0.318000,2.049000,-0.312000,2.048000,-0.305000,2.046000,-0.293000,2.044000,-0.286000,2.042000,-0.280000,2.033000,-0.262000,2.030000,-0.257000,2.026000,-0.252000,2.022000,-0.246000,
2.018000,-0.241000,2.013000,-0.237000,2.009000,-0.232000,2.004000,-0.228000,1.998000,-0.224000,1.993000,-0.220000,1.988000,-0.217000,1.970000,-0.208000,1.964000,-0.206000,1.957000,-0.204000,1.945000,-0.202000,1.938000,-0.201000,1.932000,-0.200000,0.068000,-0.200000,0.062000,-0.201000,0.055000,-0.202000,0.043000,-0.204000,0.036000,-0.206000,0.030000,-0.208000,0.012000,-0.217000,
0.007000,-0.220000,0.002000,-0.224000,-0.004000,-0.228000,-0.009000,-0.232000,-0.013000,-0.237000,-0.018000,-0.241000,-0.022000,-0.246000,-0.026000,-0.252000,-0.030000,-0.257000,-0.033000,-0.262000,-0.042000,-0.280000,-0.044000,-0.286000,-0.046000,-0.293000,-0.048000,-0.305000,-0.049000,-0.312000,-0.050000,-0.318000,-0.400000,-0.318000,-0.400000,-0.150000,-0.100000,0.150000,2.400000,0.150000,
2.400000,-3.650000,2.400000,-3.650000,$1*%
G04 Aperture macros list end*
%ADD10C,0.000000*%
%ADD11C,0.010000*%
%ADD12RoundRect,0.079500X-0.079500X-0.100500X0.079500X-0.100500X0.079500X0.100500X-0.079500X0.100500X0*%
%ADD13RoundRect,0.130500X0.130500X-0.169500X0.130500X0.169500X-0.130500X0.169500X-0.130500X-0.169500X0*%
%ADD14RoundRect,0.079500X-0.100500X0.079500X-0.100500X-0.079500X0.100500X-0.079500X0.100500X0.079500X0*%
%ADD15RoundRect,0.079500X0.100500X-0.079500X0.100500X0.079500X-0.100500X0.079500X-0.100500X-0.079500X0*%
%ADD16R,0.530000X0.730000*%
%ADD17C,1.640488*%
%ADD18RoundRect,0.135000X0.185000X-0.135000X0.185000X0.135000X-0.185000X0.135000X-0.185000X-0.135000X0*%
%ADD19RoundRect,0.135000X-0.185000X0.135000X-0.185000X-0.135000X0.185000X-0.135000X0.185000X0.135000X0*%
%ADD20RoundRect,0.140000X0.170000X-0.140000X0.170000X0.140000X-0.170000X0.140000X-0.170000X-0.140000X0*%
%ADD21RoundRect,0.079500X0.079500X0.100500X-0.079500X0.100500X-0.079500X-0.100500X0.079500X-0.100500X0*%
%ADD22RoundRect,0.249999X0.395001X-0.395001X0.395001X0.395001X-0.395001X0.395001X-0.395001X-0.395001X0*%
%ADD23RoundRect,0.050000X0.050000X-0.387500X0.050000X0.387500X-0.050000X0.387500X-0.050000X-0.387500X0*%
%ADD24RoundRect,0.050000X0.387500X-0.050000X0.387500X0.050000X-0.387500X0.050000X-0.387500X-0.050000X0*%
%ADD25RoundRect,0.140000X0.140000X0.170000X-0.140000X0.170000X-0.140000X-0.170000X0.140000X-0.170000X0*%
%ADD26RoundRect,0.250000X0.375000X0.850000X-0.375000X0.850000X-0.375000X-0.850000X0.375000X-0.850000X0*%
%ADD27R,0.950000X0.450000*%
%ADD28FreePoly0,90.000000*%
G04 APERTURE END LIST*
D10*
%TO.C,MK3*%
G36*
X140953900Y-97168184D02*
G01*
X140912200Y-97243584D01*
X140883700Y-97324884D01*
X140869300Y-97409784D01*
X140869300Y-97495984D01*
X140883700Y-97580884D01*
X140912200Y-97662184D01*
X140953900Y-97737584D01*
X140739100Y-97952284D01*
X140656700Y-97822884D01*
X140600000Y-97680284D01*
X140571100Y-97529584D01*
X140571100Y-97376184D01*
X140600000Y-97225484D01*
X140656700Y-97082884D01*
X140739100Y-96953484D01*
X140953900Y-97168184D01*
G37*
G36*
X141607400Y-96672884D02*
G01*
X141750000Y-96729584D01*
X141879400Y-96811984D01*
X141664700Y-97026784D01*
X141589300Y-96985084D01*
X141508000Y-96956584D01*
X141423100Y-96942184D01*
X141336900Y-96942184D01*
X141252000Y-96956584D01*
X141170700Y-96985084D01*
X141095300Y-97026784D01*
X140880600Y-96811984D01*
X141010000Y-96729584D01*
X141152600Y-96672884D01*
X141303300Y-96643984D01*
X141456700Y-96643984D01*
X141607400Y-96672884D01*
G37*
G36*
X141879400Y-98093784D02*
G01*
X141750000Y-98176184D01*
X141607400Y-98232884D01*
X141456700Y-98261784D01*
X141303300Y-98261784D01*
X141152600Y-98232884D01*
X141010000Y-98176184D01*
X140880600Y-98093784D01*
X141095300Y-97878984D01*
X141170700Y-97920684D01*
X141252000Y-97949184D01*
X141336900Y-97963584D01*
X141423100Y-97963584D01*
X141508000Y-97949184D01*
X141589300Y-97920684D01*
X141664700Y-97878984D01*
X141879400Y-98093784D01*
G37*
G36*
X142103300Y-97082884D02*
G01*
X142160000Y-97225484D01*
X142188900Y-97376184D01*
X142188900Y-97529584D01*
X142160000Y-97680284D01*
X142103300Y-97822884D01*
X142020900Y-97952284D01*
X141806100Y-97737584D01*
X141847800Y-97662184D01*
X141876300Y-97580884D01*
X141890700Y-97495984D01*
X141890700Y-97409784D01*
X141876300Y-97324884D01*
X141847800Y-97243584D01*
X141806100Y-97168184D01*
X142020900Y-96953484D01*
X142103300Y-97082884D01*
G37*
%TO.C,MK2*%
G36*
X142547083Y-102132000D02*
G01*
X139047083Y-102132000D01*
X138747083Y-101832000D01*
X138747083Y-99800000D01*
X139097083Y-99800000D01*
X139097083Y-99807000D01*
X139097083Y-101657000D01*
X139097083Y-101664000D01*
X139098083Y-101670000D01*
X139099083Y-101677000D01*
X139100083Y-101683000D01*
X139101083Y-101689000D01*
X139103083Y-101696000D01*
X139105083Y-101702000D01*
X139108083Y-101708000D01*
X139111083Y-101714000D01*
X139114083Y-101720000D01*
X139117083Y-101725000D01*
X139121083Y-101730000D01*
X139125083Y-101736000D01*
X139129083Y-101741000D01*
X139134083Y-101745000D01*
X139138083Y-101750000D01*
X139143083Y-101754000D01*
X139149083Y-101758000D01*
X139154083Y-101762000D01*
X139159083Y-101765000D01*
X139165083Y-101768000D01*
X139171083Y-101771000D01*
X139177083Y-101774000D01*
X139183083Y-101776000D01*
X139190083Y-101778000D01*
X139196083Y-101779000D01*
X139202083Y-101780000D01*
X139209083Y-101781000D01*
X139215083Y-101782000D01*
X139222083Y-101782000D01*
X142072083Y-101782000D01*
X142079083Y-101782000D01*
X142085083Y-101781000D01*
X142092083Y-101780000D01*
X142098083Y-101779000D01*
X142104083Y-101778000D01*
X142111083Y-101776000D01*
X142117083Y-101774000D01*
X142123083Y-101771000D01*
X142129083Y-101768000D01*
X142135083Y-101765000D01*
X142140083Y-101762000D01*
X142145083Y-101758000D01*
X142151083Y-101754000D01*
X142156083Y-101750000D01*
X142160083Y-101745000D01*
X142165083Y-101741000D01*
X142169083Y-101736000D01*
X142173083Y-101730000D01*
X142177083Y-101725000D01*
X142180083Y-101720000D01*
X142183083Y-101714000D01*
X142186083Y-101708000D01*
X142189083Y-101702000D01*
X142191083Y-101696000D01*
X142193083Y-101689000D01*
X142194083Y-101683000D01*
X142195083Y-101677000D01*
X142196083Y-101670000D01*
X142197083Y-101664000D01*
X142197083Y-101657000D01*
X142197083Y-100732000D01*
X142197083Y-99807000D01*
X142197083Y-99800000D01*
X142196083Y-99794000D01*
X142195083Y-99787000D01*
X142194083Y-99781000D01*
X142193083Y-99775000D01*
X142191083Y-99768000D01*
X142189083Y-99762000D01*
X142186083Y-99756000D01*
X142183083Y-99750000D01*
X142180083Y-99744000D01*
X142177083Y-99739000D01*
X142173083Y-99734000D01*
X142169083Y-99728000D01*
X142165083Y-99723000D01*
X142160083Y-99719000D01*
X142156083Y-99714000D01*
X142151083Y-99710000D01*
X142145083Y-99706000D01*
X142140083Y-99702000D01*
X142135083Y-99699000D01*
X142129083Y-99696000D01*
X142123083Y-99693000D01*
X142117083Y-99690000D01*
X142111083Y-99688000D01*
X142104083Y-99686000D01*
X142098083Y-99685000D01*
X142092083Y-99684000D01*
X142085083Y-99683000D01*
X142079083Y-99682000D01*
X142072083Y-99682000D01*
X139222083Y-99682000D01*
X139215083Y-99682000D01*
X139209083Y-99683000D01*
X139202083Y-99684000D01*
X139196083Y-99685000D01*
X139190083Y-99686000D01*
X139183083Y-99688000D01*
X139177083Y-99690000D01*
X139171083Y-99693000D01*
X139165083Y-99696000D01*
X139159083Y-99699000D01*
X139154083Y-99702000D01*
X139149083Y-99706000D01*
X139143083Y-99710000D01*
X139138083Y-99714000D01*
X139134083Y-99719000D01*
X139129083Y-99723000D01*
X139125083Y-99728000D01*
X139121083Y-99734000D01*
X139117083Y-99739000D01*
X139114083Y-99744000D01*
X139111083Y-99750000D01*
X139108083Y-99756000D01*
X139105083Y-99762000D01*
X139103083Y-99768000D01*
X139101083Y-99775000D01*
X139100083Y-99781000D01*
X139099083Y-99787000D01*
X139098083Y-99794000D01*
X139097083Y-99800000D01*
X138747083Y-99800000D01*
X138747083Y-99332000D01*
X142547083Y-99332000D01*
X142547083Y-100732000D01*
X142547083Y-102132000D01*
G37*
D11*
%TO.C,MK4*%
X138275000Y-106215000D02*
X137925000Y-106215000D01*
X137925000Y-105665000D01*
X138275000Y-105665000D01*
X138275000Y-106215000D01*
G36*
X138275000Y-106215000D02*
G01*
X137925000Y-106215000D01*
X137925000Y-105665000D01*
X138275000Y-105665000D01*
X138275000Y-106215000D01*
G37*
X138275000Y-108875000D02*
X137925000Y-108875000D01*
X137925000Y-108325000D01*
X138275000Y-108325000D01*
X138275000Y-108875000D01*
G36*
X138275000Y-108875000D02*
G01*
X137925000Y-108875000D01*
X137925000Y-108325000D01*
X138275000Y-108325000D01*
X138275000Y-108875000D01*
G37*
X139325000Y-106215000D02*
X138975000Y-106215000D01*
X138975000Y-105665000D01*
X139325000Y-105665000D01*
X139325000Y-106215000D01*
G36*
X139325000Y-106215000D02*
G01*
X138975000Y-106215000D01*
X138975000Y-105665000D01*
X139325000Y-105665000D01*
X139325000Y-106215000D01*
G37*
X139325000Y-108875000D02*
X138975000Y-108875000D01*
X138975000Y-108325000D01*
X139325000Y-108325000D01*
X139325000Y-108875000D01*
G36*
X139325000Y-108875000D02*
G01*
X138975000Y-108875000D01*
X138975000Y-108325000D01*
X139325000Y-108325000D01*
X139325000Y-108875000D01*
G37*
X140375000Y-106215000D02*
X140025000Y-106215000D01*
X140025000Y-105665000D01*
X140375000Y-105665000D01*
X140375000Y-106215000D01*
G36*
X140375000Y-106215000D02*
G01*
X140025000Y-106215000D01*
X140025000Y-105665000D01*
X140375000Y-105665000D01*
X140375000Y-106215000D01*
G37*
X140375000Y-108875000D02*
X140025000Y-108875000D01*
X140025000Y-108325000D01*
X140375000Y-108325000D01*
X140375000Y-108875000D01*
G36*
X140375000Y-108875000D02*
G01*
X140025000Y-108875000D01*
X140025000Y-108325000D01*
X140375000Y-108325000D01*
X140375000Y-108875000D01*
G37*
X141425000Y-106215000D02*
X141075000Y-106215000D01*
X141075000Y-105665000D01*
X141425000Y-105665000D01*
X141425000Y-106215000D01*
G36*
X141425000Y-106215000D02*
G01*
X141075000Y-106215000D01*
X141075000Y-105665000D01*
X141425000Y-105665000D01*
X141425000Y-106215000D01*
G37*
X141425000Y-108875000D02*
X141075000Y-108875000D01*
X141075000Y-108325000D01*
X141425000Y-108325000D01*
X141425000Y-108875000D01*
G36*
X141425000Y-108875000D02*
G01*
X141075000Y-108875000D01*
X141075000Y-108325000D01*
X141425000Y-108325000D01*
X141425000Y-108875000D01*
G37*
X141309000Y-106471000D02*
X141347000Y-106474000D01*
X141385000Y-106479000D01*
X141423000Y-106486000D01*
X141461000Y-106495000D01*
X141498000Y-106506000D01*
X141535000Y-106518000D01*
X141570000Y-106532000D01*
X141606000Y-106548000D01*
X141640000Y-106566000D01*
X141673000Y-106585000D01*
X141706000Y-106606000D01*
X141737000Y-106628000D01*
X141768000Y-106652000D01*
X141797000Y-106677000D01*
X141826000Y-106704000D01*
X141853000Y-106733000D01*
X141878000Y-106762000D01*
X141902000Y-106793000D01*
X141924000Y-106824000D01*
X141945000Y-106857000D01*
X141964000Y-106890000D01*
X141982000Y-106924000D01*
X141998000Y-106960000D01*
X142012000Y-106995000D01*
X142024000Y-107032000D01*
X142035000Y-107069000D01*
X142044000Y-107107000D01*
X142051000Y-107145000D01*
X142056000Y-107183000D01*
X142059000Y-107221000D01*
X142060000Y-107260000D01*
X142060000Y-107298000D01*
X142058000Y-107337000D01*
X142054000Y-107375000D01*
X142048000Y-107413000D01*
X142040000Y-107451000D01*
X142030000Y-107488000D01*
X142019000Y-107525000D01*
X142005000Y-107561000D01*
X141991000Y-107597000D01*
X141974000Y-107632000D01*
X141956000Y-107666000D01*
X141936000Y-107699000D01*
X141914000Y-107731000D01*
X141892000Y-107761000D01*
X141695000Y-107564000D01*
X141706000Y-107547000D01*
X141719000Y-107527000D01*
X141730000Y-107505000D01*
X141740000Y-107484000D01*
X141750000Y-107461000D01*
X141758000Y-107439000D01*
X141766000Y-107416000D01*
X141772000Y-107392000D01*
X141777000Y-107369000D01*
X141781000Y-107345000D01*
X141784000Y-107321000D01*
X141786000Y-107297000D01*
X141787000Y-107272000D01*
X141786000Y-107248000D01*
X141785000Y-107224000D01*
X141782000Y-107200000D01*
X141778000Y-107176000D01*
X141773000Y-107153000D01*
X141767000Y-107129000D01*
X141760000Y-107106000D01*
X141752000Y-107083000D01*
X141743000Y-107061000D01*
X141733000Y-107039000D01*
X141721000Y-107017000D01*
X141709000Y-106997000D01*
X141696000Y-106976000D01*
X141682000Y-106957000D01*
X141667000Y-106938000D01*
X141651000Y-106919000D01*
X141631000Y-106899000D01*
X141611000Y-106879000D01*
X141592000Y-106863000D01*
X141573000Y-106848000D01*
X141554000Y-106834000D01*
X141533000Y-106821000D01*
X141513000Y-106809000D01*
X141491000Y-106797000D01*
X141469000Y-106787000D01*
X141447000Y-106778000D01*
X141424000Y-106770000D01*
X141401000Y-106763000D01*
X141377000Y-106757000D01*
X141354000Y-106752000D01*
X141330000Y-106748000D01*
X141306000Y-106745000D01*
X141282000Y-106744000D01*
X141258000Y-106743000D01*
X141233000Y-106744000D01*
X141209000Y-106746000D01*
X141185000Y-106749000D01*
X141161000Y-106753000D01*
X141138000Y-106758000D01*
X141114000Y-106764000D01*
X141091000Y-106772000D01*
X141069000Y-106780000D01*
X141046000Y-106790000D01*
X141025000Y-106800000D01*
X141003000Y-106811000D01*
X140983000Y-106824000D01*
X140966000Y-106835000D01*
X140966200Y-106834778D01*
X140769000Y-106638000D01*
X140799000Y-106616000D01*
X140831000Y-106594000D01*
X140864000Y-106574000D01*
X140898000Y-106556000D01*
X140933000Y-106539000D01*
X140969000Y-106525000D01*
X141005000Y-106511000D01*
X141042000Y-106500000D01*
X141079000Y-106490000D01*
X141117000Y-106482000D01*
X141155000Y-106476000D01*
X141193000Y-106472000D01*
X141232000Y-106470000D01*
X141270000Y-106470000D01*
X141309000Y-106471000D01*
G36*
X141309000Y-106471000D02*
G01*
X141347000Y-106474000D01*
X141385000Y-106479000D01*
X141423000Y-106486000D01*
X141461000Y-106495000D01*
X141498000Y-106506000D01*
X141535000Y-106518000D01*
X141570000Y-106532000D01*
X141606000Y-106548000D01*
X141640000Y-106566000D01*
X141673000Y-106585000D01*
X141706000Y-106606000D01*
X141737000Y-106628000D01*
X141768000Y-106652000D01*
X141797000Y-106677000D01*
X141826000Y-106704000D01*
X141853000Y-106733000D01*
X141878000Y-106762000D01*
X141902000Y-106793000D01*
X141924000Y-106824000D01*
X141945000Y-106857000D01*
X141964000Y-106890000D01*
X141982000Y-106924000D01*
X141998000Y-106960000D01*
X142012000Y-106995000D01*
X142024000Y-107032000D01*
X142035000Y-107069000D01*
X142044000Y-107107000D01*
X142051000Y-107145000D01*
X142056000Y-107183000D01*
X142059000Y-107221000D01*
X142060000Y-107260000D01*
X142060000Y-107298000D01*
X142058000Y-107337000D01*
X142054000Y-107375000D01*
X142048000Y-107413000D01*
X142040000Y-107451000D01*
X142030000Y-107488000D01*
X142019000Y-107525000D01*
X142005000Y-107561000D01*
X141991000Y-107597000D01*
X141974000Y-107632000D01*
X141956000Y-107666000D01*
X141936000Y-107699000D01*
X141914000Y-107731000D01*
X141892000Y-107761000D01*
X141695000Y-107564000D01*
X141706000Y-107547000D01*
X141719000Y-107527000D01*
X141730000Y-107505000D01*
X141740000Y-107484000D01*
X141750000Y-107461000D01*
X141758000Y-107439000D01*
X141766000Y-107416000D01*
X141772000Y-107392000D01*
X141777000Y-107369000D01*
X141781000Y-107345000D01*
X141784000Y-107321000D01*
X141786000Y-107297000D01*
X141787000Y-107272000D01*
X141786000Y-107248000D01*
X141785000Y-107224000D01*
X141782000Y-107200000D01*
X141778000Y-107176000D01*
X141773000Y-107153000D01*
X141767000Y-107129000D01*
X141760000Y-107106000D01*
X141752000Y-107083000D01*
X141743000Y-107061000D01*
X141733000Y-107039000D01*
X141721000Y-107017000D01*
X141709000Y-106997000D01*
X141696000Y-106976000D01*
X141682000Y-106957000D01*
X141667000Y-106938000D01*
X141651000Y-106919000D01*
X141631000Y-106899000D01*
X141611000Y-106879000D01*
X141592000Y-106863000D01*
X141573000Y-106848000D01*
X141554000Y-106834000D01*
X141533000Y-106821000D01*
X141513000Y-106809000D01*
X141491000Y-106797000D01*
X141469000Y-106787000D01*
X141447000Y-106778000D01*
X141424000Y-106770000D01*
X141401000Y-106763000D01*
X141377000Y-106757000D01*
X141354000Y-106752000D01*
X141330000Y-106748000D01*
X141306000Y-106745000D01*
X141282000Y-106744000D01*
X141258000Y-106743000D01*
X141233000Y-106744000D01*
X141209000Y-106746000D01*
X141185000Y-106749000D01*
X141161000Y-106753000D01*
X141138000Y-106758000D01*
X141114000Y-106764000D01*
X141091000Y-106772000D01*
X141069000Y-106780000D01*
X141046000Y-106790000D01*
X141025000Y-106800000D01*
X141003000Y-106811000D01*
X140983000Y-106824000D01*
X140966000Y-106835000D01*
X140966200Y-106834778D01*
X140769000Y-106638000D01*
X140799000Y-106616000D01*
X140831000Y-106594000D01*
X140864000Y-106574000D01*
X140898000Y-106556000D01*
X140933000Y-106539000D01*
X140969000Y-106525000D01*
X141005000Y-106511000D01*
X141042000Y-106500000D01*
X141079000Y-106490000D01*
X141117000Y-106482000D01*
X141155000Y-106476000D01*
X141193000Y-106472000D01*
X141232000Y-106470000D01*
X141270000Y-106470000D01*
X141309000Y-106471000D01*
G37*
X140825000Y-106976000D02*
X140814000Y-106993000D01*
X140801000Y-107013000D01*
X140790000Y-107035000D01*
X140780000Y-107056000D01*
X140770000Y-107079000D01*
X140762000Y-107101000D01*
X140754000Y-107124000D01*
X140748000Y-107148000D01*
X140743000Y-107171000D01*
X140739000Y-107195000D01*
X140736000Y-107219000D01*
X140734000Y-107243000D01*
X140733000Y-107268000D01*
X140734000Y-107292000D01*
X140735000Y-107316000D01*
X140738000Y-107340000D01*
X140742000Y-107364000D01*
X140747000Y-107387000D01*
X140753000Y-107411000D01*
X140760000Y-107434000D01*
X140768000Y-107457000D01*
X140777000Y-107479000D01*
X140787000Y-107501000D01*
X140799000Y-107523000D01*
X140811000Y-107543000D01*
X140824000Y-107564000D01*
X140838000Y-107583000D01*
X140853000Y-107602000D01*
X140869000Y-107621000D01*
X140889000Y-107641000D01*
X140909000Y-107661000D01*
X140928000Y-107677000D01*
X140947000Y-107692000D01*
X140966000Y-107706000D01*
X140987000Y-107719000D01*
X141007000Y-107731000D01*
X141029000Y-107743000D01*
X141051000Y-107753000D01*
X141073000Y-107762000D01*
X141096000Y-107770000D01*
X141119000Y-107777000D01*
X141143000Y-107783000D01*
X141166000Y-107788000D01*
X141190000Y-107792000D01*
X141214000Y-107795000D01*
X141238000Y-107796000D01*
X141262000Y-107797000D01*
X141287000Y-107796000D01*
X141311000Y-107794000D01*
X141335000Y-107791000D01*
X141359000Y-107787000D01*
X141382000Y-107782000D01*
X141406000Y-107776000D01*
X141429000Y-107768000D01*
X141451000Y-107760000D01*
X141474000Y-107750000D01*
X141495000Y-107740000D01*
X141517000Y-107729000D01*
X141537000Y-107716000D01*
X141554000Y-107705000D01*
X141553800Y-107705222D01*
X141751000Y-107902000D01*
X141721000Y-107924000D01*
X141689000Y-107946000D01*
X141656000Y-107966000D01*
X141622000Y-107984000D01*
X141587000Y-108001000D01*
X141551000Y-108015000D01*
X141515000Y-108029000D01*
X141478000Y-108040000D01*
X141441000Y-108050000D01*
X141403000Y-108058000D01*
X141365000Y-108064000D01*
X141327000Y-108068000D01*
X141288000Y-108070000D01*
X141250000Y-108070000D01*
X141211000Y-108069000D01*
X141173000Y-108066000D01*
X141135000Y-108061000D01*
X141097000Y-108054000D01*
X141059000Y-108045000D01*
X141022000Y-108034000D01*
X140985000Y-108022000D01*
X140950000Y-108008000D01*
X140914000Y-107992000D01*
X140880000Y-107974000D01*
X140847000Y-107955000D01*
X140814000Y-107934000D01*
X140783000Y-107912000D01*
X140752000Y-107888000D01*
X140723000Y-107863000D01*
X140694000Y-107836000D01*
X140667000Y-107807000D01*
X140642000Y-107778000D01*
X140618000Y-107747000D01*
X140596000Y-107716000D01*
X140575000Y-107683000D01*
X140556000Y-107650000D01*
X140538000Y-107616000D01*
X140522000Y-107580000D01*
X140508000Y-107545000D01*
X140496000Y-107508000D01*
X140485000Y-107471000D01*
X140476000Y-107433000D01*
X140469000Y-107395000D01*
X140464000Y-107357000D01*
X140461000Y-107319000D01*
X140460000Y-107280000D01*
X140460000Y-107242000D01*
X140462000Y-107203000D01*
X140466000Y-107165000D01*
X140472000Y-107127000D01*
X140480000Y-107089000D01*
X140490000Y-107052000D01*
X140501000Y-107015000D01*
X140515000Y-106979000D01*
X140529000Y-106943000D01*
X140546000Y-106908000D01*
X140564000Y-106874000D01*
X140584000Y-106841000D01*
X140606000Y-106809000D01*
X140628000Y-106779000D01*
X140825000Y-106976000D01*
G36*
X140825000Y-106976000D02*
G01*
X140814000Y-106993000D01*
X140801000Y-107013000D01*
X140790000Y-107035000D01*
X140780000Y-107056000D01*
X140770000Y-107079000D01*
X140762000Y-107101000D01*
X140754000Y-107124000D01*
X140748000Y-107148000D01*
X140743000Y-107171000D01*
X140739000Y-107195000D01*
X140736000Y-107219000D01*
X140734000Y-107243000D01*
X140733000Y-107268000D01*
X140734000Y-107292000D01*
X140735000Y-107316000D01*
X140738000Y-107340000D01*
X140742000Y-107364000D01*
X140747000Y-107387000D01*
X140753000Y-107411000D01*
X140760000Y-107434000D01*
X140768000Y-107457000D01*
X140777000Y-107479000D01*
X140787000Y-107501000D01*
X140799000Y-107523000D01*
X140811000Y-107543000D01*
X140824000Y-107564000D01*
X140838000Y-107583000D01*
X140853000Y-107602000D01*
X140869000Y-107621000D01*
X140889000Y-107641000D01*
X140909000Y-107661000D01*
X140928000Y-107677000D01*
X140947000Y-107692000D01*
X140966000Y-107706000D01*
X140987000Y-107719000D01*
X141007000Y-107731000D01*
X141029000Y-107743000D01*
X141051000Y-107753000D01*
X141073000Y-107762000D01*
X141096000Y-107770000D01*
X141119000Y-107777000D01*
X141143000Y-107783000D01*
X141166000Y-107788000D01*
X141190000Y-107792000D01*
X141214000Y-107795000D01*
X141238000Y-107796000D01*
X141262000Y-107797000D01*
X141287000Y-107796000D01*
X141311000Y-107794000D01*
X141335000Y-107791000D01*
X141359000Y-107787000D01*
X141382000Y-107782000D01*
X141406000Y-107776000D01*
X141429000Y-107768000D01*
X141451000Y-107760000D01*
X141474000Y-107750000D01*
X141495000Y-107740000D01*
X141517000Y-107729000D01*
X141537000Y-107716000D01*
X141554000Y-107705000D01*
X141553800Y-107705222D01*
X141751000Y-107902000D01*
X141721000Y-107924000D01*
X141689000Y-107946000D01*
X141656000Y-107966000D01*
X141622000Y-107984000D01*
X141587000Y-108001000D01*
X141551000Y-108015000D01*
X141515000Y-108029000D01*
X141478000Y-108040000D01*
X141441000Y-108050000D01*
X141403000Y-108058000D01*
X141365000Y-108064000D01*
X141327000Y-108068000D01*
X141288000Y-108070000D01*
X141250000Y-108070000D01*
X141211000Y-108069000D01*
X141173000Y-108066000D01*
X141135000Y-108061000D01*
X141097000Y-108054000D01*
X141059000Y-108045000D01*
X141022000Y-108034000D01*
X140985000Y-108022000D01*
X140950000Y-108008000D01*
X140914000Y-107992000D01*
X140880000Y-107974000D01*
X140847000Y-107955000D01*
X140814000Y-107934000D01*
X140783000Y-107912000D01*
X140752000Y-107888000D01*
X140723000Y-107863000D01*
X140694000Y-107836000D01*
X140667000Y-107807000D01*
X140642000Y-107778000D01*
X140618000Y-107747000D01*
X140596000Y-107716000D01*
X140575000Y-107683000D01*
X140556000Y-107650000D01*
X140538000Y-107616000D01*
X140522000Y-107580000D01*
X140508000Y-107545000D01*
X140496000Y-107508000D01*
X140485000Y-107471000D01*
X140476000Y-107433000D01*
X140469000Y-107395000D01*
X140464000Y-107357000D01*
X140461000Y-107319000D01*
X140460000Y-107280000D01*
X140460000Y-107242000D01*
X140462000Y-107203000D01*
X140466000Y-107165000D01*
X140472000Y-107127000D01*
X140480000Y-107089000D01*
X140490000Y-107052000D01*
X140501000Y-107015000D01*
X140515000Y-106979000D01*
X140529000Y-106943000D01*
X140546000Y-106908000D01*
X140564000Y-106874000D01*
X140584000Y-106841000D01*
X140606000Y-106809000D01*
X140628000Y-106779000D01*
X140825000Y-106976000D01*
G37*
%TD*%
D12*
%TO.C,C7*%
X135035000Y-102700000D03*
X135725000Y-102700000D03*
%TD*%
D13*
%TO.C,MK3*%
X139306000Y-98352884D03*
X140128000Y-98352884D03*
X140128000Y-96552884D03*
X139306000Y-96552884D03*
X139306000Y-97452884D03*
%TD*%
D14*
%TO.C,C16*%
X127900000Y-108255000D03*
X127900000Y-108945000D03*
%TD*%
D15*
%TO.C,C15*%
X131500000Y-99145000D03*
X131500000Y-98455000D03*
%TD*%
D16*
%TO.C,MK1*%
X139290500Y-104608000D03*
X140112500Y-104608000D03*
D17*
X141370000Y-103770000D03*
D16*
X140112500Y-102932000D03*
X139290500Y-102932000D03*
%TD*%
D18*
%TO.C,R11*%
X126900000Y-109300000D03*
X126900000Y-108280000D03*
%TD*%
D19*
%TO.C,R6*%
X133731619Y-109107841D03*
X133731619Y-110127841D03*
%TD*%
D20*
%TO.C,C8*%
X125900000Y-100480000D03*
X125900000Y-99520000D03*
%TD*%
D12*
%TO.C,C10*%
X135075000Y-103400000D03*
X135765000Y-103400000D03*
%TD*%
%TO.C,C11*%
X131405000Y-108250000D03*
X132095000Y-108250000D03*
%TD*%
D15*
%TO.C,C13*%
X128900000Y-99145000D03*
X128900000Y-98455000D03*
%TD*%
D12*
%TO.C,R4*%
X124455000Y-101700000D03*
X125145000Y-101700000D03*
%TD*%
D21*
%TO.C,C18*%
X137980784Y-103128783D03*
X137290784Y-103128783D03*
%TD*%
D22*
%TO.C,DD3*%
X129737500Y-104500000D03*
X131337500Y-104500000D03*
X129737500Y-102900000D03*
X131337500Y-102900000D03*
D23*
X127937500Y-107137500D03*
X128337500Y-107137500D03*
X128737500Y-107137500D03*
X129137500Y-107137500D03*
X129537500Y-107137500D03*
X129937500Y-107137500D03*
X130337500Y-107137500D03*
X130737500Y-107137500D03*
X131137500Y-107137500D03*
X131537500Y-107137500D03*
X131937500Y-107137500D03*
X132337500Y-107137500D03*
X132737500Y-107137500D03*
X133137500Y-107137500D03*
D24*
X133975000Y-106300000D03*
X133975000Y-105900000D03*
X133975000Y-105500000D03*
X133975000Y-105100000D03*
X133975000Y-104700000D03*
X133975000Y-104300000D03*
X133975000Y-103900000D03*
X133975000Y-103500000D03*
X133975000Y-103100000D03*
X133975000Y-102700000D03*
X133975000Y-102300000D03*
X133975000Y-101900000D03*
X133975000Y-101500000D03*
X133975000Y-101100000D03*
D23*
X133137500Y-100262500D03*
X132737500Y-100262500D03*
X132337500Y-100262500D03*
X131937500Y-100262500D03*
X131537500Y-100262500D03*
X131137500Y-100262500D03*
X130737500Y-100262500D03*
X130337500Y-100262500D03*
X129937500Y-100262500D03*
X129537500Y-100262500D03*
X129137500Y-100262500D03*
X128737500Y-100262500D03*
X128337500Y-100262500D03*
X127937500Y-100262500D03*
D24*
X127100000Y-101100000D03*
X127100000Y-101500000D03*
X127100000Y-101900000D03*
X127100000Y-102300000D03*
X127100000Y-102700000D03*
X127100000Y-103100000D03*
X127100000Y-103500000D03*
X127100000Y-103900000D03*
X127100000Y-104300000D03*
X127100000Y-104700000D03*
X127100000Y-105100000D03*
X127100000Y-105500000D03*
X127100000Y-105900000D03*
X127100000Y-106300000D03*
%TD*%
D21*
%TO.C,C14*%
X125345000Y-103600000D03*
X124655000Y-103600000D03*
%TD*%
D19*
%TO.C,R8*%
X131731619Y-109107841D03*
X131731619Y-110127841D03*
%TD*%
%TO.C,R7*%
X132731619Y-109107841D03*
X132731619Y-110127841D03*
%TD*%
D25*
%TO.C,C9*%
X125380000Y-104500000D03*
X124420000Y-104500000D03*
%TD*%
%TO.C,C24*%
X138180000Y-96300000D03*
X137220000Y-96300000D03*
%TD*%
D12*
%TO.C,R3*%
X124455000Y-102400000D03*
X125145000Y-102400000D03*
%TD*%
D19*
%TO.C,R5*%
X134731619Y-109107841D03*
X134731619Y-110127841D03*
%TD*%
D26*
%TO.C,L1*%
X128475000Y-96600000D03*
X126325000Y-96600000D03*
%TD*%
D21*
%TO.C,C20*%
X137945000Y-97200000D03*
X137255000Y-97200000D03*
%TD*%
D25*
%TO.C,C21*%
X137984575Y-102310519D03*
X137024575Y-102310519D03*
%TD*%
D27*
%TO.C,MK2*%
X139972083Y-101157000D03*
X141322083Y-101157000D03*
X141322083Y-100307000D03*
X139972083Y-100307000D03*
D28*
X138897083Y-101732000D03*
%TD*%
D25*
%TO.C,C22*%
X137980000Y-101400000D03*
X137020000Y-101400000D03*
%TD*%
D21*
%TO.C,C19*%
X137744608Y-100564255D03*
X137054608Y-100564255D03*
%TD*%
D20*
%TO.C,C25*%
X136900000Y-106680000D03*
X136900000Y-105720000D03*
%TD*%
D25*
%TO.C,C17*%
X127280000Y-98600000D03*
X126320000Y-98600000D03*
%TD*%
D15*
%TO.C,C23*%
X136010000Y-106745000D03*
X136010000Y-106055000D03*
%TD*%
%TO.C,C12*%
X128100000Y-99145000D03*
X128100000Y-98455000D03*
%TD*%
M02*
